{"glyphs":{"0":{"ha":513,"x_min":54,"x_max":458,"o":"m 220 9 q 129 68 170 13 q 126 73 127 70 q 122 78 124 75 q 119 83 120 81 q 117 86 117 85 l 117 87 l 117 87 q 113 92 116 87 q 106 105 110 98 q 99 120 102 113 q 93 132 96 127 q 76 184 83 156 q 64 239 68 213 q 64 243 64 240 q 62 250 63 246 l 62 252 q 54 378 54 298 q 57 456 54 425 q 67 545 59 488 q 76 601 69 566 q 91 665 83 635 q 148 838 115 760 q 211 947 181 916 q 228 961 221 958 q 242 964 235 964 q 248 963 245 964 q 256 960 251 962 q 265 953 262 957 q 271 948 267 951 q 277 943 274 945 q 284 939 281 941 q 288 937 287 937 q 290 935 288 936 q 297 930 294 932 q 329 897 311 918 q 359 857 347 876 q 437 676 415 767 q 445 646 441 663 q 450 621 448 629 q 450 615 450 619 q 451 607 450 611 q 458 494 458 553 q 456 419 458 458 q 404 190 445 293 q 390 159 398 176 q 376 132 381 142 q 372 125 374 129 q 369 120 370 122 q 363 110 368 117 q 354 96 358 103 q 348 87 349 90 q 345 83 347 86 q 339 77 342 80 q 318 54 331 66 q 296 34 305 41 q 272 20 285 26 q 250 12 260 14 q 234 10 242 11 q 220 9 225 9 m 237 54 q 297 93 266 59 q 404 353 374 184 q 416 496 416 427 q 403 635 416 568 q 357 772 389 707 q 311 852 334 821 q 250 910 279 895 l 245 913 q 242 915 243 914 q 241 916 241 916 q 239 916 240 916 q 234 909 238 914 q 195 837 216 884 q 156 737 174 790 q 102 493 106 583 q 97 376 97 403 q 125 170 97 259 q 212 55 159 73 q 222 53 219 53 q 228 53 226 53 q 237 54 232 53 z "},"1":{"ha":355,"x_min":54,"x_max":300,"o":"m 87 19 q 86 19 87 19 q 85 21 85 20 q 83 22 84 22 q 81 23 82 23 q 79 24 79 24 l 77 25 q 77 26 77 26 q 75 26 76 26 l 73 26 q 70 26 71 26 l 68 28 l 67 28 q 66 28 66 28 q 65 30 65 29 l 65 31 q 64 31 65 31 l 64 31 l 64 33 q 63 36 63 34 q 62 41 62 38 q 64 48 62 46 l 66 50 q 73 56 71 54 q 79 60 75 58 q 88 64 82 62 q 90 64 89 64 q 163 85 119 74 q 166 86 165 85 q 166 87 166 86 q 156 170 159 113 q 153 292 153 227 l 153 315 q 159 471 154 395 q 173 646 163 547 q 181 726 176 685 q 189 798 185 768 q 193 832 192 827 l 193 833 q 192 831 193 833 q 186 825 190 829 q 153 780 168 798 q 127 751 142 766 q 107 733 113 737 q 106 733 106 733 q 106 732 106 732 l 103 730 q 100 728 101 730 q 87 723 93 724 q 79 722 81 722 q 69 724 73 722 q 61 729 65 726 q 57 734 58 732 q 56 736 56 735 q 56 737 56 737 q 55 737 56 737 q 54 738 54 737 q 54 739 54 738 q 55 739 54 739 q 55 740 55 740 q 54 741 55 741 l 54 751 q 57 755 55 755 q 65 756 60 756 q 68 757 68 756 q 69 758 69 758 q 68 760 69 760 q 70 762 68 761 q 73 764 71 763 q 75 765 74 765 q 95 779 80 765 q 125 812 109 792 q 197 924 155 851 q 218 952 214 952 l 219 952 q 220 953 219 953 q 223 953 222 953 q 227 952 225 953 l 230 952 q 233 953 231 952 q 237 954 235 954 l 237 954 q 239 954 239 954 q 245 949 241 952 q 248 946 247 947 q 249 942 249 945 q 249 940 249 941 q 250 939 249 939 q 252 938 252 939 q 252 935 252 937 q 252 929 252 933 q 251 919 252 926 q 249 907 250 913 q 224 730 237 852 q 207 547 213 621 q 197 397 201 473 q 197 333 197 375 q 197 251 197 292 q 197 195 197 211 q 208 96 203 106 q 209 95 209 95 q 211 95 210 95 q 214 95 212 95 q 219 96 216 96 q 228 98 222 97 q 262 102 247 100 q 283 104 277 104 l 287 104 q 293 103 291 104 q 295 100 295 102 l 296 99 q 297 98 296 98 q 298 98 298 98 q 298 94 298 97 q 299 92 298 93 l 299 91 q 300 88 300 91 q 300 81 300 85 q 300 76 300 78 q 299 71 300 71 q 298 70 298 71 q 298 69 298 70 q 298 68 298 68 q 298 67 298 68 l 297 66 q 296 66 296 66 l 296 66 l 296 65 q 296 64 296 64 q 295 64 296 64 l 292 64 q 281 62 291 63 q 271 60 276 61 q 211 51 245 57 q 149 37 177 44 q 127 31 140 35 q 104 24 115 27 q 92 19 94 20 l 87 19 z "},"2":{"ha":563,"x_min":41,"x_max":522,"o":"m 58 28 q 57 31 58 30 q 56 33 56 32 l 55 33 q 53 33 54 33 q 52 35 52 34 q 51 36 51 35 l 51 37 q 50 38 50 38 q 48 39 48 38 q 47 40 47 39 q 46 41 46 40 q 45 43 46 41 q 43 45 44 44 q 43 46 43 45 q 41 48 41 47 q 41 49 41 48 q 42 50 42 49 l 41 50 l 41 54 q 41 55 41 54 q 41 55 41 55 l 41 56 q 41 57 41 57 l 43 57 l 42 58 q 45 62 42 58 q 52 70 47 65 q 157 195 96 114 q 314 424 239 300 q 434 652 389 548 q 477 787 467 729 q 479 801 479 794 q 479 824 479 808 q 479 840 479 834 q 479 848 479 845 q 477 855 478 852 l 477 857 q 412 905 465 905 q 400 904 406 905 q 326 881 366 901 q 210 795 267 852 q 135 699 161 747 q 119 661 123 676 q 115 639 115 646 q 117 629 115 633 q 118 627 118 627 q 119 625 119 626 l 120 625 l 121 623 l 121 614 l 120 612 l 119 612 l 119 611 q 120 610 119 610 l 120 609 l 119 608 l 119 608 q 118 609 118 609 q 117 608 117 608 q 117 607 117 607 q 116 606 117 606 q 115 606 115 606 q 114 606 115 606 l 113 605 q 104 602 113 604 q 96 602 99 602 l 95 602 q 93 601 94 601 q 90 600 92 600 l 87 600 q 84 602 85 600 q 74 623 78 609 q 73 640 73 630 q 74 660 73 650 q 84 691 77 673 q 101 726 92 709 q 111 741 105 732 q 116 750 114 747 q 120 755 119 754 q 127 766 121 757 q 254 888 179 835 q 258 892 256 890 q 262 895 260 893 l 269 898 q 299 917 281 907 q 332 931 318 926 q 338 933 336 932 q 342 935 341 935 q 353 938 345 936 q 371 943 361 941 q 387 946 380 945 q 401 947 392 947 q 418 947 410 947 q 428 947 426 947 l 430 947 q 434 945 431 946 q 450 942 441 945 q 466 935 458 939 q 518 867 507 915 q 522 849 521 857 q 522 821 522 840 q 521 790 522 803 q 515 759 519 778 q 512 745 513 750 l 511 742 q 331 370 473 600 q 153 119 245 232 q 146 112 149 115 q 144 109 144 109 q 145 108 144 108 q 161 113 149 110 q 184 118 173 115 q 231 124 208 123 q 290 126 254 126 q 321 126 307 126 q 342 125 336 126 q 393 119 367 123 q 439 111 420 115 q 448 109 444 110 q 452 109 451 109 q 466 104 457 107 q 484 99 476 102 q 507 87 500 94 q 510 83 509 85 q 511 79 511 82 q 509 72 511 75 q 508 71 509 71 q 507 69 507 70 q 507 67 507 68 q 505 65 506 66 l 504 64 l 504 63 q 503 61 504 62 q 501 60 503 60 q 498 56 499 58 q 496 54 497 54 q 494 54 496 54 l 493 54 l 492 53 q 490 52 492 52 q 488 52 489 52 l 486 52 q 483 54 484 52 q 471 58 481 55 q 451 64 462 61 q 349 81 406 76 q 286 83 321 83 q 225 81 251 83 q 87 37 151 73 q 76 31 81 34 l 71 28 l 70 28 l 69 28 l 68 28 q 67 27 68 27 q 66 26 66 26 l 62 26 q 58 28 61 26 z "},"3":{"ha":555,"x_min":41,"x_max":515,"o":"m 133 27 q 118 31 126 28 q 104 36 111 33 q 98 39 98 38 q 98 39 98 39 q 97 39 98 39 q 93 43 96 39 q 88 47 90 45 q 78 61 82 54 q 73 73 73 68 q 76 80 74 77 q 80 83 78 83 l 82 85 l 83 85 l 84 86 q 87 89 85 87 q 92 90 90 90 l 93 91 q 95 91 94 91 q 97 92 96 91 q 101 92 99 92 q 105 92 104 92 q 107 91 107 92 l 107 90 l 108 90 l 108 91 q 109 90 109 91 q 111 87 110 90 q 113 85 112 86 q 114 83 113 83 l 115 83 q 115 81 115 82 l 117 79 q 139 70 121 73 q 160 68 147 68 l 169 68 q 201 71 188 69 q 344 146 273 86 q 372 173 357 157 q 398 201 388 189 q 469 357 458 276 q 471 380 471 368 q 471 395 471 391 q 470 415 471 408 q 401 519 458 490 q 322 538 367 538 q 258 530 292 538 q 204 513 232 524 q 161 493 176 503 q 154 490 157 490 q 152 492 153 490 l 151 492 l 147 492 q 144 494 146 493 q 142 495 142 494 q 140 496 141 495 q 138 496 139 496 q 136 497 137 496 q 134 498 135 497 q 133 499 134 498 q 131 499 132 499 l 130 500 q 130 501 130 500 l 130 502 l 129 503 q 128 503 128 503 q 127 504 127 503 q 127 506 127 505 q 125 507 126 507 q 124 509 125 508 q 123 510 123 509 l 124 511 q 123 512 124 511 l 123 513 q 122 515 123 513 q 122 517 122 516 q 123 518 122 518 l 123 519 q 123 521 123 520 q 124 522 123 522 q 125 523 125 522 q 125 524 125 524 q 132 534 125 525 q 143 548 137 540 q 265 696 191 609 q 410 861 339 783 l 414 866 l 404 863 q 370 850 392 858 q 333 838 348 843 q 248 821 289 825 q 229 820 241 820 q 203 819 216 819 q 183 820 190 819 q 66 863 111 828 l 61 867 q 57 871 58 870 q 52 876 55 872 q 46 884 49 880 q 42 890 43 888 q 41 902 41 896 q 43 909 41 907 q 45 909 43 909 q 47 910 46 910 q 48 911 47 910 q 51 911 50 911 q 52 910 52 911 q 55 910 54 910 q 56 911 56 911 l 58 912 l 63 912 q 68 912 66 912 q 72 913 71 913 q 73 914 73 914 q 75 913 75 914 q 81 907 77 912 q 136 874 102 886 q 212 862 171 862 q 335 884 265 862 q 461 936 412 907 q 469 941 466 939 q 475 944 473 943 q 478 946 477 945 q 479 946 479 946 l 480 946 q 481 946 481 946 q 481 947 481 946 q 484 947 481 947 q 487 946 485 947 q 490 944 488 945 q 492 941 492 943 q 493 940 492 941 q 495 939 494 939 q 498 937 496 939 q 502 933 500 935 q 506 930 504 931 l 507 928 q 512 923 511 924 q 513 920 513 922 l 513 920 l 512 919 l 512 918 l 511 918 q 511 917 511 918 q 511 916 511 916 q 511 915 511 916 q 510 913 511 914 q 509 911 509 911 q 507 908 509 911 q 500 901 504 905 q 479 875 493 890 q 440 831 466 860 q 322 698 375 759 q 272 639 298 670 q 228 585 246 608 q 209 562 209 563 l 213 563 q 223 565 217 564 q 323 581 279 581 q 364 577 345 581 q 371 576 368 576 q 375 574 374 575 q 382 572 377 574 q 393 569 387 571 q 401 567 398 568 q 419 559 408 564 q 435 550 429 553 q 473 515 458 534 q 478 509 476 511 q 480 505 480 506 q 487 495 483 503 q 495 480 491 488 q 515 388 515 437 q 489 269 515 332 q 475 239 483 255 q 460 214 467 224 q 457 210 459 212 l 452 201 q 440 185 447 195 q 429 170 433 175 q 364 106 399 134 q 210 30 288 45 q 196 27 201 28 q 185 26 191 26 q 168 26 179 26 l 167 26 q 145 26 153 26 q 133 27 138 26 z "},"4":{"ha":617,"x_min":27,"x_max":591,"o":"m 378 21 q 378 22 378 22 q 376 22 377 22 q 371 25 374 22 q 369 31 369 28 l 369 33 l 368 33 q 364 98 364 33 q 369 235 364 151 q 382 405 374 319 q 383 421 382 416 q 384 429 384 427 q 383 431 384 431 l 372 429 q 346 422 361 426 q 176 382 229 393 q 95 372 122 372 q 43 387 60 372 q 29 410 34 396 q 27 428 27 416 q 28 450 27 440 q 75 557 39 492 q 80 568 78 564 q 84 575 83 573 q 262 831 143 679 q 294 872 275 848 q 330 916 313 897 q 350 941 346 936 q 368 952 359 951 q 370 953 370 953 q 372 951 371 953 q 372 950 372 951 q 374 949 373 949 q 378 949 376 949 q 382 949 380 949 q 385 948 385 949 l 385 948 l 386 947 q 387 947 387 947 q 388 947 388 947 q 390 943 388 945 q 392 941 391 942 q 393 940 393 940 q 394 939 393 939 q 394 936 394 939 q 395 932 395 934 l 395 927 l 394 925 q 393 925 393 925 q 393 924 393 924 q 393 922 393 923 q 391 921 392 922 q 379 909 388 919 q 352 877 370 899 q 136 578 210 699 q 71 430 71 469 l 71 423 q 72 420 71 420 q 79 416 74 417 q 95 415 85 415 q 273 448 136 415 q 327 461 300 455 q 370 472 353 468 q 389 476 388 476 l 393 517 q 397 552 395 534 q 401 587 399 574 q 405 616 403 600 q 408 644 407 632 q 410 668 409 659 q 411 674 411 673 q 412 677 412 676 q 412 680 412 679 q 415 685 413 682 q 418 690 417 688 q 421 692 420 692 q 423 692 422 692 l 426 691 l 426 692 l 427 691 q 428 690 427 691 l 431 690 q 441 688 435 689 q 451 687 448 688 q 455 684 454 686 q 456 677 456 682 q 455 672 455 674 q 454 668 455 669 q 452 650 454 667 q 450 636 450 644 q 446 606 448 623 q 444 577 445 589 q 438 531 441 554 q 434 496 435 508 q 433 490 433 492 l 433 487 l 442 489 q 464 493 451 491 q 508 503 481 497 q 553 513 534 509 q 564 515 560 515 q 571 516 568 516 q 576 517 574 517 q 578 516 578 517 l 578 516 q 579 516 579 516 q 580 515 579 515 q 582 514 581 515 q 585 511 583 513 q 586 508 586 509 q 586 506 586 507 q 587 504 587 505 q 588 503 588 503 q 588 501 589 502 q 589 499 588 500 l 589 498 l 589 498 q 590 495 590 496 l 590 488 q 591 486 591 487 q 590 485 591 485 q 589 485 589 485 q 589 484 589 484 q 588 483 589 484 l 588 481 q 587 479 587 480 q 586 478 587 478 l 586 479 l 585 479 q 579 475 584 477 q 566 472 574 473 q 530 464 552 469 q 484 454 507 459 q 446 445 461 449 q 429 441 430 441 q 426 416 428 439 q 421 361 424 393 q 417 304 419 330 q 409 160 411 216 q 407 80 407 104 q 408 54 407 62 q 409 44 409 47 q 410 39 410 41 q 410 36 410 37 q 410 34 410 35 l 411 34 l 410 33 q 410 33 410 33 q 409 32 409 33 q 409 31 409 32 q 409 30 409 30 q 407 30 408 30 q 406 29 406 30 q 405 27 405 28 q 401 25 404 25 q 399 24 401 25 q 397 23 398 24 q 395 22 396 22 q 394 22 395 22 l 393 22 q 392 22 393 22 q 391 22 391 22 q 390 21 391 22 q 389 21 389 21 l 382 21 q 379 20 380 20 q 378 21 378 20 z "},"5":{"ha":596,"x_min":27,"x_max":569,"o":"m 166 21 q 161 22 163 21 l 160 22 q 158 22 159 22 q 155 23 157 23 q 140 29 149 24 q 127 39 132 33 l 125 41 q 120 46 121 45 q 118 50 119 48 q 118 54 118 52 q 121 61 118 59 q 122 62 121 62 q 123 64 122 63 q 125 66 123 64 q 127 68 126 67 q 128 71 127 69 q 130 72 129 71 q 131 72 130 72 l 134 75 q 142 77 136 77 q 146 77 144 77 q 149 76 147 77 q 153 73 150 75 l 153 72 q 162 66 158 68 q 170 63 165 64 q 184 63 175 63 l 189 63 q 201 64 196 64 q 214 66 207 64 q 313 106 265 78 q 375 157 344 124 q 462 279 428 210 q 503 415 498 351 q 504 427 504 421 q 463 538 504 494 q 348 591 422 582 q 313 593 335 593 q 279 591 292 593 q 127 541 210 583 q 72 507 83 518 l 68 504 q 64 501 64 501 l 59 504 q 48 510 54 506 q 37 517 43 513 q 30 522 32 520 q 28 523 28 522 q 28 525 28 524 q 28 526 28 526 l 28 526 q 27 528 27 526 l 27 529 q 30 537 27 531 q 36 555 32 544 q 63 617 47 583 q 107 710 79 651 q 198 883 155 807 q 201 889 200 886 q 203 892 203 891 l 198 891 q 186 890 193 890 l 174 888 q 164 887 166 887 q 158 887 161 887 q 153 888 155 887 q 151 890 151 888 l 151 890 q 150 891 151 891 q 149 891 149 891 q 149 892 149 892 q 146 897 149 894 l 143 899 q 143 901 143 900 q 142 901 143 901 l 142 901 l 142 903 q 141 904 142 903 q 140 907 140 906 q 142 915 140 912 q 144 918 143 918 q 146 919 145 918 q 148 923 147 920 q 151 927 149 926 q 157 929 153 928 q 171 931 161 930 q 187 933 177 932 q 205 935 197 934 q 217 937 213 936 q 224 938 222 937 q 227 939 226 938 q 229 941 228 939 q 231 943 231 942 q 233 943 232 943 q 235 943 233 943 l 236 943 q 237 944 237 943 q 239 945 238 944 q 241 945 240 945 q 242 946 241 945 q 243 947 242 946 q 243 948 243 947 q 244 947 244 948 q 245 948 245 947 l 246 948 q 247 949 246 949 q 249 948 248 949 q 255 947 251 947 l 256 947 q 258 946 257 946 l 259 945 l 263 941 l 280 942 q 403 950 335 947 q 517 954 471 954 q 536 954 529 954 q 549 954 544 954 q 556 953 553 954 q 559 952 558 953 q 561 952 560 952 q 561 951 561 951 q 562 951 562 951 q 564 951 563 951 l 564 952 l 564 951 q 564 950 564 951 q 565 950 564 950 q 566 949 566 949 q 566 947 566 948 q 566 946 566 947 q 567 945 566 946 q 569 941 568 944 q 569 936 569 939 q 568 931 569 934 q 568 923 568 926 q 566 918 567 919 q 565 917 566 918 q 565 915 565 916 q 564 914 565 914 l 564 913 q 562 913 563 913 q 562 912 562 913 l 562 911 q 561 912 561 911 l 560 912 l 559 911 l 544 911 q 489 910 530 911 q 411 907 448 909 q 340 903 375 905 q 280 899 304 901 q 254 897 256 897 q 246 882 254 895 q 228 848 239 868 q 207 808 217 828 q 183 765 191 779 q 146 691 167 733 q 109 614 125 648 q 90 572 92 579 l 90 571 l 91 571 q 97 574 92 572 q 111 580 102 576 q 304 635 215 633 q 315 636 309 636 q 329 635 321 636 q 354 633 345 635 q 359 633 356 633 l 361 633 q 473 587 425 624 q 492 570 481 581 q 509 551 502 560 q 515 541 511 547 q 523 529 519 534 q 526 520 526 523 l 530 513 l 532 507 q 546 429 546 470 q 503 265 546 355 q 451 179 480 218 q 340 71 400 110 q 312 57 329 65 q 283 43 295 48 q 274 40 278 41 q 269 37 271 38 q 250 32 263 35 q 228 25 237 28 q 199 20 210 21 q 181 20 187 20 q 166 21 173 20 z "},"6":{"ha":612,"x_min":27,"x_max":585,"o":"m 240 -1 q 237 0 240 0 q 233 1 235 1 q 226 1 230 1 q 220 3 222 2 q 216 4 218 3 q 212 4 214 4 q 204 6 210 5 q 193 9 199 7 q 184 12 187 12 q 159 25 170 19 q 147 32 149 31 q 147 33 147 33 q 146 33 146 33 q 140 36 145 33 q 130 44 136 40 q 120 53 124 49 l 119 53 q 116 56 117 55 q 113 58 114 58 q 110 58 112 58 q 107 58 109 58 l 106 58 q 105 59 106 59 q 104 60 105 60 q 103 60 104 60 q 102 61 102 60 q 99 65 100 62 q 98 70 98 67 q 97 75 97 73 q 96 78 97 77 q 95 79 96 79 q 87 90 93 81 q 75 108 81 98 q 52 157 61 131 q 27 317 27 227 q 36 431 27 370 q 48 499 41 463 q 64 558 56 535 q 68 574 66 566 q 72 586 71 581 q 74 592 74 591 q 77 603 74 593 q 91 639 83 618 q 120 707 102 668 q 157 778 138 747 q 188 829 171 803 q 218 871 205 855 q 243 902 232 890 q 264 924 254 914 q 283 941 276 935 q 297 952 290 947 q 332 970 315 964 q 348 973 341 973 q 357 973 355 973 q 370 972 365 973 q 375 970 373 971 q 378 968 377 969 q 379 968 378 968 q 381 967 380 967 q 384 965 382 967 q 388 961 386 963 q 391 956 390 958 l 393 954 q 394 952 394 954 q 395 947 395 950 q 394 943 395 945 q 393 941 394 941 l 393 940 l 393 939 q 393 939 393 939 l 393 937 l 392 937 l 392 937 l 391 937 q 390 936 391 936 q 389 935 390 935 q 388 935 388 935 q 387 934 387 935 q 387 932 387 932 q 384 932 386 932 q 383 931 384 931 l 376 931 q 370 930 373 931 q 368 929 369 929 l 363 926 l 359 929 q 355 931 357 930 q 351 930 354 931 q 292 891 328 926 q 127 616 195 791 q 76 417 82 491 q 71 316 71 344 q 92 174 71 235 q 97 159 94 167 q 104 146 101 151 q 107 140 106 140 l 109 145 q 113 156 110 149 q 157 262 130 205 q 175 296 167 281 q 196 332 184 311 q 221 369 206 348 q 250 408 235 389 q 279 438 261 420 q 307 465 296 456 q 334 485 319 475 q 359 503 349 496 q 384 514 369 508 q 407 524 398 521 q 428 530 417 527 q 446 534 439 532 l 479 534 l 481 533 q 485 532 482 532 q 508 526 496 531 q 530 515 521 521 q 573 459 558 496 l 580 439 q 582 428 581 435 q 584 417 583 420 q 585 402 585 412 q 585 381 585 392 q 585 364 585 370 q 475 117 570 233 q 452 93 463 104 q 427 69 441 82 q 411 56 421 64 q 393 43 401 48 q 260 -1 327 -1 l 240 -1 m 291 45 q 370 79 331 54 q 470 183 426 118 q 533 320 514 248 q 542 389 542 353 q 530 450 542 427 q 464 491 511 491 q 421 484 441 491 q 223 293 313 444 q 200 251 214 277 q 178 206 186 224 q 155 145 165 176 q 141 96 144 115 l 141 94 q 142 91 141 92 q 147 86 144 89 q 235 43 186 50 q 253 43 243 43 l 264 43 q 291 45 281 43 z "},"7":{"ha":611,"x_min":-27,"x_max":584,"o":"m 56 1 q 53 2 54 1 q 50 3 52 3 q 48 3 49 3 q 46 4 47 3 q 45 5 46 5 q 43 5 44 5 q 41 6 42 5 l 40 7 q 38 8 39 7 q 36 9 37 9 q 33 11 33 9 q 33 12 33 12 q 32 14 32 13 q 31 14 31 14 q 31 15 31 14 q 31 16 31 16 q 30 16 31 16 q 29 18 29 16 q 35 36 29 21 q 55 86 42 56 q 82 148 67 116 q 248 473 151 297 q 475 848 346 654 q 485 863 480 857 q 502 889 495 879 l 508 899 l 498 895 q 430 870 469 882 q 353 848 391 857 q 230 826 279 830 q 222 825 226 825 q 218 825 219 825 q 201 824 211 824 q 185 824 192 824 l 172 824 q 151 825 158 824 q 47 846 86 829 q 43 848 45 847 q 39 849 41 849 q 33 852 38 850 q 23 857 28 854 q 16 862 18 860 q 13 863 14 862 l 7 866 q 1 870 3 870 q -2 873 1 870 q -9 880 -5 876 q -17 887 -14 884 q -22 893 -20 891 q -26 904 -25 899 q -27 912 -27 909 q -26 918 -27 915 q -25 920 -26 919 q -22 921 -24 920 q -17 922 -20 922 q -5 923 -13 922 l -5 923 q 4 924 1 924 q 9 924 7 924 q 11 923 10 924 q 12 922 12 923 q 13 921 12 922 q 14 920 13 920 q 15 920 14 920 q 16 918 16 920 q 23 910 17 916 q 35 901 28 905 q 66 885 47 892 q 104 874 85 878 q 181 867 140 867 q 280 876 227 867 q 328 886 301 880 q 373 898 355 892 q 377 899 374 899 q 383 901 380 900 q 389 903 387 902 q 432 916 408 908 q 470 930 455 924 q 499 943 488 937 q 532 960 511 948 q 547 968 542 965 q 555 971 553 970 q 557 972 557 972 l 559 972 q 560 972 559 972 q 562 973 561 973 l 562 972 q 562 972 562 972 q 563 972 562 972 q 564 971 564 972 q 565 970 565 971 q 566 970 566 970 l 567 969 q 569 968 568 969 q 570 966 570 968 q 572 964 571 965 q 574 962 573 963 q 574 961 574 962 q 575 960 575 960 l 576 958 q 578 956 577 956 q 579 954 578 954 q 581 950 581 951 q 582 949 581 949 q 583 947 582 948 q 584 945 584 947 q 583 942 584 944 q 580 930 583 937 q 567 910 578 927 q 542 871 557 894 q 520 838 530 853 q 446 726 475 771 q 176 243 307 508 q 117 122 139 170 q 80 34 96 75 q 77 26 79 31 q 72 14 74 19 q 70 9 70 9 q 66 3 68 5 q 62 1 64 1 q 60 2 61 2 l 60 2 l 60 1 q 59 1 60 1 q 56 1 58 1 z "},"8":{"ha":610,"x_min":27,"x_max":583,"o":"m 183 -20 q 174 -19 178 -20 q 170 -18 170 -18 l 168 -18 q 163 -17 165 -17 q 156 -16 160 -16 q 148 -14 151 -15 q 143 -13 144 -14 q 139 -11 142 -12 q 132 -9 136 -10 q 113 -1 119 -6 q 111 -1 111 -1 l 109 -1 q 107 0 109 -1 q 106 1 106 0 q 104 2 106 1 q 100 4 102 3 q 96 5 98 5 l 94 6 q 94 7 94 7 q 92 9 93 8 q 88 10 90 9 q 86 12 87 11 q 82 15 85 12 q 78 18 81 16 q 65 29 72 22 q 55 39 59 35 q 52 43 54 41 q 50 45 51 44 q 50 46 50 45 q 50 47 50 47 l 49 47 q 47 51 49 48 q 44 56 46 53 q 41 61 42 59 q 39 64 39 64 q 39 66 39 65 q 38 67 39 67 q 35 74 37 69 q 32 84 33 79 q 31 90 31 89 q 31 91 31 90 l 31 92 q 30 94 30 93 q 28 101 28 97 q 28 112 28 105 q 27 119 27 115 q 27 134 27 127 q 28 140 27 140 q 28 146 28 142 q 29 150 29 149 q 31 153 30 152 l 31 154 q 31 158 31 156 l 33 163 q 35 173 33 168 q 37 178 36 177 q 37 182 37 180 l 39 186 q 44 201 41 194 q 45 203 45 202 q 46 206 45 205 l 47 207 q 48 212 47 208 q 53 222 50 216 q 58 233 56 228 q 61 239 60 237 l 62 241 q 65 246 64 243 q 67 250 66 248 q 71 258 69 254 q 75 263 73 261 q 77 267 76 266 q 80 273 77 269 q 85 282 83 277 q 88 288 87 286 q 91 292 90 289 q 95 298 93 294 q 98 304 97 301 q 104 313 101 307 q 110 320 107 317 q 113 326 112 324 q 115 328 113 326 q 118 333 117 330 q 121 338 119 336 l 122 339 q 124 342 123 340 q 129 348 126 345 q 135 358 132 354 q 142 368 138 363 q 145 372 144 370 q 149 378 148 375 q 156 387 153 382 q 161 394 159 391 q 164 399 163 397 q 167 401 165 399 q 170 405 168 403 q 172 409 171 407 q 174 413 174 412 q 180 420 176 414 q 190 432 184 425 q 199 445 195 439 l 203 450 q 204 452 203 451 q 206 454 205 453 q 210 460 207 456 q 218 470 214 465 q 220 472 218 471 q 222 475 221 473 q 223 477 222 475 q 226 481 224 479 q 228 483 227 482 q 230 486 229 485 q 232 489 231 488 l 233 490 l 231 491 q 228 492 229 492 q 224 494 226 493 l 222 495 l 221 496 q 218 496 220 496 q 215 497 217 496 l 209 500 l 208 501 q 203 503 205 501 q 197 505 201 504 l 189 509 q 182 513 184 511 q 178 514 179 514 q 176 516 178 515 q 171 518 174 517 q 168 520 170 519 l 159 524 q 154 528 157 526 q 149 531 151 530 q 145 533 147 532 q 143 535 144 534 q 140 536 142 536 q 136 540 138 538 q 131 543 133 541 q 130 545 130 545 l 130 546 l 129 546 q 124 549 127 546 q 116 556 121 552 q 109 564 112 560 q 105 568 105 568 q 105 569 105 569 q 103 570 104 570 q 102 572 102 571 q 99 574 100 573 l 98 577 q 96 579 97 578 q 94 583 94 582 l 94 584 l 93 584 l 92 585 q 91 588 91 587 q 90 589 90 589 l 90 591 q 89 592 89 591 q 87 594 88 593 q 84 601 86 596 q 79 610 81 605 q 77 617 77 614 q 75 622 77 621 q 74 624 75 623 q 74 625 74 625 q 73 628 74 626 q 72 632 73 630 q 71 636 72 634 q 71 643 71 639 q 69 654 70 646 q 68 669 68 661 q 70 691 68 679 q 77 727 72 711 q 78 730 77 728 q 79 734 79 733 q 80 738 79 736 q 81 739 80 739 q 81 742 81 740 q 82 745 81 743 q 84 751 83 747 q 88 760 86 755 q 92 768 90 764 q 94 773 93 772 q 96 777 95 776 l 102 789 q 106 798 104 794 q 109 802 109 802 l 111 805 q 116 813 112 808 q 124 825 119 819 q 126 829 125 827 q 129 833 127 831 q 131 836 130 835 q 133 839 132 838 q 135 841 134 840 q 136 843 136 842 q 138 846 136 844 q 141 851 139 848 q 145 856 143 852 q 149 861 148 859 q 153 866 151 863 q 156 869 155 868 q 159 872 157 870 q 163 878 161 875 q 194 909 176 891 q 222 935 212 927 q 227 939 224 937 q 233 943 229 941 q 242 951 239 948 q 244 953 243 952 q 246 954 245 954 q 248 954 247 954 q 250 956 249 955 q 253 958 252 958 l 254 959 q 256 961 255 960 q 260 962 258 962 q 271 969 264 966 q 282 975 277 973 q 285 977 283 976 l 288 979 q 298 983 291 980 q 313 988 306 985 q 322 991 319 990 q 326 991 323 991 q 330 992 328 992 q 346 994 335 994 q 363 991 357 994 q 369 990 366 991 q 374 987 372 989 q 376 987 376 987 q 388 978 382 984 q 397 968 394 972 q 402 954 401 959 q 404 944 404 949 q 405 940 404 941 q 410 936 406 938 q 443 883 433 920 q 446 872 445 876 q 447 866 446 868 q 448 860 447 863 l 448 859 q 449 829 449 844 q 443 770 449 800 q 441 763 442 766 q 437 749 439 755 q 434 740 435 742 q 433 737 434 739 l 432 732 l 431 727 q 429 726 430 727 q 429 723 429 725 q 428 721 429 722 q 426 716 427 719 q 425 714 425 715 q 425 712 425 713 l 425 711 q 423 708 425 711 q 421 704 422 706 q 418 698 420 701 q 417 694 418 696 q 416 692 417 693 q 415 690 416 691 q 414 690 414 690 l 414 689 q 413 686 414 688 q 411 681 412 684 q 409 677 410 679 l 408 675 l 407 675 q 406 673 406 674 q 405 669 406 673 q 401 662 404 666 q 397 654 399 658 q 394 650 395 650 l 393 648 q 392 645 393 647 q 391 643 391 644 q 390 641 391 642 l 389 640 q 388 640 389 640 q 388 638 388 639 q 387 635 388 637 q 383 630 385 633 q 380 626 382 628 q 378 621 378 623 q 375 616 377 620 q 371 610 373 613 q 366 602 368 606 q 363 597 364 600 l 361 595 q 361 593 361 593 l 359 591 q 354 585 357 588 q 349 577 352 581 q 348 575 349 576 q 345 572 347 573 q 339 563 345 570 q 328 547 334 555 q 326 544 327 545 q 326 542 326 543 q 322 538 325 541 q 317 531 319 535 q 306 516 309 519 q 304 513 304 513 l 302 511 q 307 509 302 511 q 315 506 311 507 q 323 503 320 504 l 326 502 q 329 500 328 500 q 334 499 332 499 q 335 498 334 499 q 338 497 337 498 q 342 495 340 496 q 346 494 345 494 q 351 492 348 493 q 355 491 353 492 q 359 489 357 490 l 360 488 q 362 488 361 488 q 364 487 363 488 q 367 486 365 486 q 370 485 369 486 q 374 483 372 484 q 378 481 376 482 q 382 479 381 479 q 390 476 383 479 q 402 471 394 474 q 410 467 405 469 q 422 461 416 464 q 433 455 429 458 q 438 453 437 453 q 440 452 439 452 q 444 450 441 451 q 450 446 447 448 q 457 442 454 444 q 475 431 472 433 q 478 429 476 430 l 480 427 q 490 421 485 425 l 491 420 q 494 418 493 419 q 497 416 496 417 q 500 414 499 415 q 502 412 500 413 l 505 410 q 528 389 515 401 q 547 367 540 377 q 552 361 550 363 l 554 357 l 555 357 q 556 356 555 357 q 557 354 556 355 q 562 347 559 352 q 567 338 564 342 q 570 331 569 333 q 571 327 570 330 q 573 323 572 325 q 574 321 574 322 q 575 320 574 320 q 575 319 575 319 l 574 319 l 576 313 q 577 311 576 312 q 578 309 577 309 l 578 307 q 578 305 578 306 q 578 304 578 304 q 582 288 581 298 q 583 273 583 279 q 582 261 583 267 q 580 242 581 250 q 578 231 579 233 q 577 229 578 231 q 576 227 576 228 q 574 216 576 222 q 570 206 572 210 q 570 205 570 205 q 570 204 570 205 l 569 203 l 569 203 q 568 199 569 202 q 564 193 566 197 l 562 186 l 561 183 l 560 182 q 559 182 560 182 l 556 175 q 555 173 555 174 q 554 173 555 173 l 554 172 l 553 172 q 552 170 553 172 q 550 165 551 168 q 548 161 549 163 l 547 159 q 546 157 546 158 l 545 157 q 543 154 545 156 q 541 151 542 153 q 538 148 540 150 q 535 143 537 145 q 520 124 530 136 q 503 105 511 113 q 488 92 497 100 q 470 77 479 83 q 460 69 462 70 q 458 67 459 68 q 456 66 457 66 q 454 64 455 64 l 453 63 q 451 62 452 63 q 450 61 450 62 q 448 60 449 60 q 446 58 446 59 q 443 56 445 58 q 437 53 440 54 q 433 50 435 51 q 431 49 431 49 q 429 48 430 48 q 428 47 429 47 q 416 40 426 45 q 393 27 406 34 q 372 17 381 21 l 345 6 q 333 2 342 5 q 317 -3 325 -1 q 307 -6 309 -6 q 306 -7 307 -7 q 302 -8 304 -7 l 300 -8 q 292 -10 296 -9 q 288 -12 290 -11 q 286 -12 287 -12 q 284 -12 284 -12 q 283 -12 283 -12 q 281 -12 282 -12 q 279 -13 280 -12 q 276 -14 277 -14 q 272 -15 275 -14 q 264 -16 269 -16 q 257 -17 261 -16 q 226 -20 239 -20 q 206 -20 212 -20 q 183 -20 193 -20 m 264 532 l 266 534 q 267 536 267 535 q 270 538 269 537 q 271 541 271 540 q 272 544 271 543 q 273 545 273 545 l 274 545 l 274 545 q 275 546 275 545 q 276 548 275 547 q 278 551 277 549 q 279 552 278 551 q 281 555 280 553 q 283 558 282 557 q 294 574 289 567 q 299 580 298 578 q 317 606 301 582 q 322 613 319 609 q 328 622 325 617 q 332 628 330 626 q 335 633 333 631 q 338 637 336 636 l 340 642 q 344 648 341 643 q 351 659 347 653 q 357 670 354 665 l 359 675 q 361 679 359 676 q 363 682 362 680 q 366 686 364 684 q 366 688 366 687 q 368 690 367 690 l 368 691 q 369 692 369 692 q 370 694 370 693 q 371 697 370 694 q 374 704 372 700 q 384 725 380 716 q 387 734 387 734 q 388 736 387 735 q 389 739 388 737 q 390 742 389 740 q 391 745 391 744 l 391 747 q 392 750 392 749 q 393 751 393 751 q 397 762 395 754 q 401 779 399 770 q 402 783 401 781 q 403 790 402 786 q 404 797 404 793 q 404 800 404 798 q 405 806 405 805 q 406 821 406 810 q 405 844 406 832 q 404 859 405 856 l 404 861 q 404 864 404 863 l 402 868 q 401 871 401 870 l 401 876 l 400 878 q 399 882 399 879 q 395 888 397 884 q 389 898 393 895 q 378 904 386 901 q 373 908 375 906 q 370 913 370 910 q 370 914 370 913 q 368 915 369 914 l 368 918 q 369 921 369 920 l 369 923 q 366 926 368 926 q 363 928 364 927 q 362 930 362 929 q 361 939 362 933 q 360 946 361 944 q 356 950 359 949 q 348 951 353 951 q 328 947 335 951 q 324 946 326 947 q 322 946 323 946 q 318 945 321 946 q 311 942 315 943 q 304 939 307 940 q 302 937 303 938 q 299 936 300 937 q 296 935 297 935 q 290 931 293 933 q 288 930 288 930 q 285 927 286 928 q 283 926 283 926 q 264 913 274 921 q 237 891 254 906 q 217 872 229 884 q 198 852 205 861 q 181 832 187 839 q 172 819 175 825 q 170 818 171 819 q 170 816 170 817 l 169 815 q 167 812 168 814 q 164 809 165 811 l 161 805 q 158 800 159 802 q 150 787 155 794 q 147 782 149 784 q 146 779 146 779 l 144 777 l 142 772 q 136 761 139 767 q 131 751 133 755 q 126 739 128 745 q 123 730 124 732 q 122 728 123 729 q 121 726 121 727 q 115 704 119 723 q 112 678 112 688 q 112 665 112 668 q 114 644 112 652 q 115 642 115 643 q 115 640 115 641 l 115 640 q 115 636 115 639 q 116 633 116 635 q 118 629 117 631 l 119 627 q 120 622 119 625 q 124 614 122 618 q 129 608 127 610 q 132 603 130 605 q 133 601 133 602 q 138 595 134 600 q 147 586 142 591 q 155 580 152 582 q 157 578 156 578 q 159 576 158 577 q 160 575 160 576 q 179 563 167 570 q 200 551 191 556 q 217 543 212 545 q 222 541 222 541 q 224 541 223 541 q 228 539 226 540 q 240 534 233 536 q 249 530 246 531 q 251 530 250 530 q 256 527 253 529 q 258 526 258 526 q 260 526 259 526 q 261 527 260 526 q 264 532 262 530 m 240 24 l 245 24 q 247 24 245 24 q 252 26 249 24 q 255 26 253 26 q 257 26 256 26 l 258 26 q 262 27 259 26 q 266 28 264 28 q 269 28 267 28 q 272 29 270 28 q 277 31 275 30 q 280 32 278 31 q 283 32 282 32 q 287 32 285 32 q 291 33 289 33 q 296 35 294 34 q 302 37 300 36 q 308 39 304 38 q 313 41 311 40 q 321 43 319 43 q 323 43 322 43 q 328 46 325 44 q 331 47 330 46 q 333 47 332 47 q 335 48 334 47 q 339 50 336 49 l 345 52 l 347 53 q 350 54 348 53 q 363 61 355 57 q 380 69 372 65 q 391 75 388 73 q 399 79 395 77 l 399 80 q 403 81 401 81 q 405 83 404 82 q 409 85 406 84 q 412 87 410 86 q 416 91 414 89 q 421 94 419 92 l 422 94 q 426 97 424 94 q 428 98 427 98 l 429 98 q 430 99 429 98 q 432 102 431 100 q 435 103 433 102 q 437 104 436 104 q 448 113 439 106 q 466 130 456 121 q 482 146 476 140 q 499 167 491 157 q 509 181 507 178 q 510 182 509 182 q 510 183 510 182 q 512 184 511 183 q 514 189 513 186 q 517 193 515 191 q 519 196 518 195 l 520 199 q 522 202 521 201 q 523 205 522 204 q 524 208 524 207 q 526 212 526 209 q 527 215 526 212 q 530 219 528 217 q 532 226 530 222 q 532 229 532 227 q 533 231 532 230 q 534 233 534 233 q 535 235 534 233 q 536 239 535 237 q 536 243 536 241 q 537 245 536 245 q 538 249 538 245 q 539 260 538 254 q 539 272 539 267 q 539 281 539 278 q 534 304 537 294 q 524 327 531 313 q 486 370 512 347 q 452 395 473 382 q 410 420 431 408 q 404 422 406 421 q 400 425 401 424 q 392 428 398 425 q 377 435 385 431 q 363 441 370 438 q 357 444 357 444 q 355 444 356 444 q 352 445 353 445 q 349 447 351 446 q 345 448 347 448 q 341 450 342 449 q 339 450 340 450 q 338 451 339 451 q 336 452 338 452 q 333 454 335 453 q 329 455 330 454 q 326 456 327 456 q 324 457 326 456 q 321 458 322 458 q 318 459 319 458 q 316 459 317 459 l 315 460 q 314 461 315 460 q 311 462 313 461 q 308 463 310 462 q 304 464 306 464 q 301 465 302 465 l 300 466 q 298 466 300 466 q 296 467 297 467 q 292 469 294 467 q 290 469 291 469 q 287 471 290 470 q 282 472 285 471 q 277 474 279 473 l 275 474 q 270 469 274 473 q 263 459 267 464 q 257 450 259 454 q 251 443 254 446 q 249 440 250 442 q 247 437 248 439 l 244 433 q 241 431 243 433 q 241 430 241 431 q 239 428 240 429 q 239 426 239 427 q 236 424 238 426 q 233 419 235 422 l 229 414 q 225 409 227 410 q 222 406 224 408 q 220 402 221 403 l 218 399 q 217 397 218 398 l 216 397 q 215 394 216 395 q 212 391 214 393 q 209 387 210 389 q 207 385 208 385 l 206 383 l 203 379 q 199 373 201 376 q 197 371 199 372 q 195 367 195 369 q 190 361 193 365 q 184 353 187 357 q 180 348 182 349 l 179 345 q 176 340 177 343 q 172 334 174 338 q 167 328 169 331 q 164 323 165 326 q 161 319 163 322 q 157 313 159 317 q 153 309 155 311 q 151 306 153 308 q 148 301 150 304 l 146 297 q 144 294 144 295 q 142 292 144 294 q 138 286 140 290 q 136 281 137 284 q 131 274 132 277 q 126 267 128 271 q 124 263 125 264 q 121 258 123 261 q 117 252 119 254 q 114 246 115 249 q 112 242 112 243 l 110 238 q 107 233 108 235 q 99 218 104 227 q 91 202 95 209 q 87 194 87 195 q 87 192 87 193 q 86 190 87 191 q 80 175 83 185 q 75 156 77 165 q 72 144 72 146 l 72 140 q 71 138 71 139 q 70 131 71 137 q 70 118 70 125 q 71 109 70 111 q 71 106 71 107 l 71 102 q 73 97 72 100 q 74 94 73 95 q 75 91 74 92 q 75 89 75 90 l 77 86 q 79 81 77 83 q 82 75 81 77 q 85 72 84 73 q 92 62 86 68 q 104 52 98 56 q 121 41 111 47 q 138 33 132 36 q 143 32 141 33 q 146 31 145 31 q 149 30 146 31 l 152 30 q 155 29 153 29 q 157 28 157 28 q 162 27 158 28 q 172 25 166 26 q 182 24 177 24 q 191 22 188 23 q 206 22 195 22 q 227 23 217 22 q 240 24 237 23 z "},"9":{"ha":591,"x_min":27,"x_max":536,"o":"m 288 -25 q 262 -12 273 -23 q 255 -2 258 -7 q 252 4 252 3 q 251 5 252 5 q 250 5 251 5 l 250 7 q 251 8 251 7 q 251 9 251 8 q 252 12 251 9 q 256 16 254 14 q 259 21 258 19 q 262 22 261 22 l 264 22 q 267 25 264 24 q 273 27 269 26 q 279 28 276 28 q 283 28 281 28 q 284 28 284 28 l 285 27 q 287 25 286 26 q 290 22 288 23 q 295 17 293 18 q 298 16 296 16 l 300 16 q 309 18 302 16 q 354 42 330 24 q 396 83 378 60 q 473 290 452 159 q 485 490 485 361 q 480 673 485 570 q 478 715 479 698 q 477 731 477 730 q 476 739 477 732 q 475 753 475 745 l 475 768 l 475 774 q 466 761 473 774 q 448 726 458 747 q 340 525 388 601 q 322 497 332 511 q 309 477 313 484 q 304 471 308 476 q 295 458 300 465 q 201 364 245 393 q 193 359 196 361 q 188 356 191 357 q 182 353 186 355 q 174 349 176 351 q 168 347 171 348 q 161 345 165 346 q 134 340 147 340 q 109 345 121 340 q 89 353 97 348 q 71 367 81 358 q 33 448 43 396 q 32 454 33 451 q 30 465 31 459 q 28 483 29 471 q 27 504 27 490 q 28 531 27 517 q 29 553 28 545 q 30 560 30 556 q 31 567 31 564 q 40 618 33 588 q 54 671 46 648 q 57 682 56 678 l 58 685 q 62 699 58 688 q 72 723 66 710 q 80 745 77 736 q 99 787 89 767 q 124 832 109 806 q 137 852 128 839 q 155 876 146 866 q 268 979 210 949 q 277 984 273 982 q 283 986 281 985 l 288 989 q 302 993 293 991 q 317 997 311 996 q 327 999 321 998 q 340 1000 334 1000 q 349 1000 345 1000 q 356 1000 353 1000 q 372 997 363 999 q 388 992 378 996 q 404 985 398 989 q 464 926 439 966 q 469 919 467 923 q 473 911 471 914 q 475 906 474 908 l 476 904 q 480 912 477 904 q 485 930 482 920 q 489 947 487 940 q 492 962 490 957 q 495 970 493 967 q 500 975 496 973 q 509 981 506 981 q 512 979 511 981 q 513 979 512 979 l 514 979 l 515 978 q 519 975 516 975 q 522 975 521 975 q 523 974 523 975 l 524 974 q 524 973 524 973 q 526 973 525 973 q 530 972 530 973 q 533 970 532 970 l 534 968 q 536 967 536 968 q 536 965 536 966 q 536 960 536 963 q 536 955 536 958 q 535 951 536 952 l 535 948 q 534 945 534 947 q 532 937 534 943 q 530 930 532 933 q 522 871 526 912 q 520 818 520 855 l 520 791 q 523 674 520 732 q 528 487 528 566 q 524 371 528 418 q 438 68 512 176 q 432 59 435 63 q 429 54 429 55 q 425 50 427 52 q 420 43 422 47 q 375 3 402 23 q 363 -4 371 0 q 349 -13 356 -9 q 342 -16 342 -16 q 339 -17 341 -16 q 335 -18 337 -17 q 319 -24 328 -22 q 302 -27 310 -26 q 294 -26 298 -27 q 288 -25 290 -26 m 152 387 q 317 570 223 414 q 440 812 381 679 q 450 836 447 827 q 452 839 451 838 q 447 860 452 844 q 435 890 443 875 q 365 954 410 943 q 346 957 357 956 q 326 956 334 957 q 233 899 279 945 q 170 824 199 867 q 71 538 85 689 l 71 502 q 73 469 71 481 q 120 386 84 399 q 134 383 127 383 q 152 387 142 383 z "},"\u0000":{"ha":339,"x_min":0,"x_max":0,"o":""},"\u001d":{"ha":339,"x_min":0,"x_max":0,"o":""}," ":{"ha":339,"x_min":0,"x_max":0,"o":""}," ":{"ha":339,"x_min":0,"x_max":0,"o":""},"!":{"ha":225,"x_min":68,"x_max":157,"o":"m 94 148 l 92 148 q 90 149 91 149 q 90 149 90 149 q 88 149 89 149 l 87 149 l 87 150 q 87 151 87 151 q 87 153 87 152 q 83 159 85 153 q 79 170 81 164 q 68 293 69 220 q 68 385 68 366 q 75 631 68 499 q 83 747 78 686 q 100 913 89 808 q 104 950 102 932 q 109 1002 108 988 q 111 1017 110 1010 q 112 1027 112 1025 q 115 1040 114 1040 q 116 1041 116 1040 q 116 1042 116 1041 l 116 1042 q 118 1044 117 1042 q 121 1046 119 1045 q 124 1049 122 1048 q 127 1051 125 1050 q 129 1052 128 1052 q 131 1051 130 1052 q 135 1048 132 1050 q 140 1045 138 1046 q 146 1044 142 1044 l 151 1042 l 152 1042 q 153 1042 152 1042 l 153 1042 q 154 1042 153 1042 q 155 1041 155 1042 q 157 1039 156 1040 q 157 1034 157 1038 q 157 1030 157 1031 q 157 1028 157 1029 l 157 1027 q 156 1027 156 1027 q 155 1025 155 1026 l 156 1025 l 156 1024 l 155 1024 l 155 1019 q 153 1006 154 1013 q 150 976 152 998 q 144 926 147 953 q 128 758 134 818 q 119 648 122 697 q 111 389 111 510 l 111 357 q 123 176 111 222 q 123 174 123 175 q 125 165 125 168 q 125 162 125 162 l 124 162 l 124 161 q 123 159 124 161 q 121 156 122 157 q 119 155 119 155 l 115 153 q 113 151 114 152 q 111 151 112 151 l 110 151 q 109 150 109 151 q 109 149 109 150 l 107 149 q 104 149 106 149 q 102 148 103 148 q 100 148 100 148 l 98 148 q 96 147 97 147 q 94 148 94 147 m 99 -79 q 97 -79 98 -79 q 95 -79 96 -79 l 92 -79 q 89 -77 91 -78 q 87 -77 87 -77 q 86 -77 86 -77 q 85 -76 85 -77 q 84 -75 84 -76 q 83 -74 83 -75 q 82 -74 83 -74 q 78 -73 79 -74 q 77 -71 77 -73 l 75 -70 q 74 -69 75 -69 q 73 -68 73 -68 q 73 -66 73 -67 q 72 -66 73 -66 l 72 -65 q 73 -63 73 -64 q 73 -60 73 -62 q 76 -46 73 -55 q 83 -31 79 -38 q 88 -23 86 -24 l 89 -22 q 90 -22 90 -22 q 91 -20 90 -21 q 95 -18 93 -19 q 99 -16 98 -17 q 102 -17 101 -16 q 105 -19 104 -17 q 107 -21 106 -20 q 109 -23 109 -22 q 114 -24 109 -24 q 117 -25 115 -25 q 120 -26 119 -25 q 122 -26 121 -26 q 124 -27 123 -27 q 126 -30 125 -28 q 127 -34 127 -33 q 126 -38 127 -36 q 125 -40 125 -39 q 125 -42 125 -41 l 125 -43 q 125 -44 125 -43 q 124 -45 124 -45 q 122 -49 123 -46 q 119 -55 121 -52 q 115 -65 117 -62 q 112 -73 114 -69 l 112 -75 l 111 -76 l 111 -77 q 110 -76 111 -77 l 109 -76 l 109 -77 q 108 -78 109 -77 q 106 -79 107 -79 q 105 -79 106 -79 q 104 -79 104 -79 q 102 -81 103 -81 q 99 -79 101 -81 z "},"\"":{"ha":347,"x_min":68,"x_max":279,"o":"m 173 732 l 172 732 q 171 733 172 733 q 170 732 170 733 l 168 732 q 165 733 166 732 q 163 735 164 734 q 161 735 162 735 q 160 735 161 735 q 159 736 159 736 l 158 737 q 156 738 157 738 q 155 739 155 739 q 152 740 153 739 q 151 741 151 741 l 150 743 q 149 744 149 743 q 148 745 149 745 q 148 746 148 745 l 148 753 q 154 770 149 758 q 168 804 158 782 q 194 868 178 831 q 223 933 210 904 q 239 967 237 962 q 243 971 241 970 q 246 972 245 972 l 248 971 l 248 971 q 249 970 248 970 l 250 971 l 250 971 l 251 970 l 258 970 l 258 970 q 259 969 258 969 q 262 968 260 968 q 265 969 264 969 q 266 968 266 968 l 267 968 q 269 967 268 967 q 272 967 271 967 q 273 966 273 966 q 274 965 273 965 q 275 964 275 964 q 279 952 279 963 q 278 947 279 949 q 277 945 277 945 q 266 922 275 943 q 243 870 256 901 q 216 809 229 840 q 195 758 203 779 q 190 745 192 750 q 188 739 189 740 q 183 734 186 736 q 180 732 181 732 l 179 733 l 179 732 q 178 732 178 732 q 176 731 177 731 q 173 732 175 731 m 92 809 l 92 810 q 90 810 91 810 q 85 810 88 810 q 85 811 85 810 l 85 813 l 81 813 q 79 814 80 813 l 79 814 l 79 815 l 78 816 q 75 817 77 817 q 73 818 74 817 q 71 820 72 819 q 69 823 71 823 l 69 824 q 69 825 69 825 q 68 826 69 825 q 68 827 68 826 l 68 827 q 69 828 68 827 l 69 833 q 74 844 71 836 q 84 867 77 852 q 103 907 92 882 q 112 926 109 918 l 115 934 q 117 936 115 935 q 119 939 118 937 q 125 944 123 944 q 128 943 127 944 q 129 942 128 942 l 129 941 q 130 942 129 942 q 132 941 131 941 q 135 940 133 940 q 139 939 137 939 q 141 939 140 939 q 142 939 142 939 q 143 938 142 938 q 145 938 144 938 q 151 937 147 938 q 157 935 155 937 q 158 930 158 934 q 157 922 158 926 q 155 916 156 918 q 145 895 153 912 q 129 860 137 878 q 117 832 120 841 q 110 819 113 824 q 106 812 106 813 q 105 812 105 812 q 105 810 105 811 q 104 810 105 810 l 103 810 q 102 810 102 810 q 100 809 102 809 q 96 808 98 808 q 92 809 94 808 z "},"#":{"ha":804,"x_min":68,"x_max":736,"o":"m 370 59 q 366 60 368 60 q 364 60 365 60 q 363 61 363 60 l 363 61 q 359 63 361 62 q 356 64 357 63 q 355 65 355 64 q 355 66 355 66 q 353 68 354 67 q 352 70 353 68 q 352 75 352 71 q 353 86 352 79 q 359 106 355 92 q 361 112 359 109 q 363 122 362 119 q 369 142 366 132 l 373 156 q 374 162 374 159 q 379 178 377 171 q 387 202 382 189 q 397 237 391 216 q 401 251 399 243 q 411 279 406 266 q 418 299 415 293 q 421 310 420 305 q 423 315 422 315 q 426 324 424 317 q 431 338 429 330 q 435 352 433 346 l 437 358 l 433 358 q 410 357 427 358 q 353 354 385 356 q 297 351 321 352 l 273 348 l 273 345 q 269 333 272 343 q 260 310 265 323 q 252 287 256 297 q 248 275 249 276 q 246 268 248 273 q 242 255 244 262 q 238 243 240 248 q 237 238 237 240 q 235 235 236 235 q 235 233 235 234 l 235 231 l 232 224 q 228 210 230 217 q 224 198 226 203 q 223 193 223 193 q 222 189 223 191 q 220 184 221 187 l 219 180 q 218 177 218 178 q 218 176 218 176 q 218 175 218 176 l 216 175 l 216 174 q 215 173 215 174 q 214 173 214 173 q 212 172 213 172 l 210 172 l 210 172 q 209 171 210 171 l 208 171 q 203 172 205 172 q 195 173 198 172 q 191 175 191 174 l 190 176 q 187 176 189 176 q 184 177 185 176 q 183 180 183 178 l 182 180 q 182 181 182 181 q 181 182 182 182 q 180 183 180 182 q 179 187 179 185 q 179 189 179 189 l 179 191 q 181 197 179 192 q 183 210 182 203 q 186 221 185 216 q 189 228 188 227 q 191 234 189 229 q 193 243 192 238 q 197 255 195 248 q 202 270 199 263 q 205 280 203 275 q 211 298 209 291 q 213 303 212 300 q 215 312 215 309 q 217 317 216 313 q 221 328 219 322 q 224 339 223 334 l 226 343 l 224 343 q 210 342 220 343 q 172 338 194 340 q 129 333 150 336 q 98 328 109 330 q 89 327 91 327 q 87 329 87 327 q 84 333 87 330 q 82 335 83 334 q 81 336 81 336 q 79 335 80 336 q 77 335 78 335 q 75 336 76 335 q 74 337 75 336 q 73 337 73 337 q 71 340 72 337 l 68 342 q 68 342 68 342 l 68 351 q 68 355 68 354 q 73 358 69 357 q 75 359 75 359 q 76 360 76 360 q 77 362 77 361 l 77 363 q 79 366 77 365 q 89 370 81 368 q 119 374 94 371 q 173 381 144 378 q 221 387 202 385 q 236 389 230 387 l 242 389 l 243 391 q 244 394 243 392 q 246 399 245 395 q 252 414 249 406 q 255 425 254 420 q 259 435 258 433 q 262 441 260 438 q 264 447 263 445 q 268 458 265 452 q 272 470 270 465 q 275 476 274 475 l 276 479 q 278 485 277 481 l 282 496 q 288 513 285 504 q 294 528 292 522 q 299 541 297 535 q 302 549 300 546 q 303 553 302 551 q 304 558 304 557 q 307 561 305 558 q 310 568 308 564 q 313 575 311 572 l 313 578 l 311 578 q 295 577 307 578 q 230 572 276 576 q 178 568 202 570 q 163 567 168 568 q 146 566 153 566 q 139 565 140 565 q 134 566 136 565 q 132 570 132 566 q 129 573 130 572 q 126 573 128 573 q 123 572 125 572 q 121 574 122 572 q 120 575 121 574 q 119 576 120 576 q 118 576 119 576 q 117 577 117 576 l 117 578 l 117 578 q 115 580 116 578 q 115 584 115 582 q 115 587 115 586 l 115 589 q 116 594 115 593 q 120 597 117 596 l 121 597 q 122 597 121 597 q 122 598 122 597 l 122 599 q 123 602 122 600 q 126 605 123 604 q 128 606 127 606 l 129 605 q 130 606 130 605 q 131 606 130 606 q 132 607 131 606 q 134 607 132 607 q 138 608 135 608 q 145 609 140 608 q 155 609 149 609 q 170 610 161 610 q 189 612 178 611 q 249 617 211 614 q 323 622 287 620 l 332 623 l 333 627 q 335 631 334 629 q 337 637 336 634 q 341 645 338 640 q 346 657 343 651 q 352 673 349 663 q 359 691 356 682 q 366 705 363 699 l 368 711 q 369 714 368 711 q 372 721 370 718 q 376 730 374 726 q 379 738 378 735 q 385 752 382 747 q 389 760 387 756 q 391 764 390 762 q 393 770 392 766 q 395 777 395 774 q 399 785 397 780 q 403 796 401 790 q 408 806 406 802 q 409 809 408 808 q 410 812 410 811 l 411 813 q 412 817 411 814 q 414 823 413 820 q 441 842 423 842 q 450 841 448 842 q 452 836 452 840 q 452 833 452 833 q 456 831 453 832 l 456 831 q 460 829 459 830 q 462 826 462 828 q 463 823 463 825 q 462 818 463 821 q 459 811 460 813 l 456 808 q 457 808 457 808 q 456 807 456 808 q 455 806 456 806 q 452 801 454 805 q 448 792 450 797 q 445 783 446 787 q 443 778 443 779 q 441 774 443 777 q 439 769 440 772 q 435 761 437 766 q 431 750 433 756 q 429 744 430 747 q 424 732 426 738 q 420 724 421 726 q 418 719 420 723 q 413 708 416 714 q 409 697 412 703 q 405 688 406 692 q 401 680 404 685 q 397 669 399 675 l 394 663 q 389 650 391 656 q 386 643 387 644 q 384 639 385 642 q 382 633 383 637 l 379 627 l 389 627 q 479 633 435 630 q 507 634 496 633 l 540 637 l 541 640 q 548 658 542 643 q 569 707 555 673 q 584 744 576 724 q 589 757 586 750 q 594 769 592 764 q 600 782 597 775 q 605 795 603 789 q 610 807 607 800 q 615 819 613 814 q 616 823 616 821 q 621 833 618 827 q 625 842 623 838 q 629 851 626 845 q 633 863 631 857 q 638 873 636 867 q 642 880 641 878 q 644 886 642 882 q 649 897 646 891 q 664 914 659 914 l 667 914 q 668 913 667 913 q 671 911 669 913 q 684 909 674 910 q 693 908 690 909 q 695 905 695 907 q 696 901 696 903 q 695 897 696 899 q 693 889 694 892 q 690 883 692 886 q 687 877 689 880 q 683 869 685 873 q 669 838 673 848 q 665 829 667 831 q 663 823 665 827 q 660 814 662 819 q 654 800 657 808 q 650 791 652 795 q 640 768 644 778 q 631 747 636 759 q 626 734 629 741 q 621 721 623 727 q 619 718 620 719 q 613 701 616 711 q 605 684 609 692 q 594 657 598 667 q 589 644 590 648 q 587 640 587 641 l 606 640 q 715 643 689 643 q 726 642 724 643 q 729 641 728 642 q 731 639 730 640 q 732 637 732 638 l 732 637 q 733 636 732 637 q 734 635 733 635 q 734 633 734 635 q 734 631 734 632 q 734 629 734 629 q 735 628 734 628 q 736 626 736 628 q 736 621 736 624 q 735 615 735 618 q 735 610 735 612 q 734 608 735 609 l 734 608 q 732 607 733 608 q 732 606 732 606 q 731 603 732 604 q 729 602 730 602 l 728 602 q 727 602 728 602 q 726 601 727 602 q 690 599 726 600 q 630 597 659 598 q 583 595 600 596 l 569 595 l 566 585 q 560 571 564 581 q 553 551 556 562 q 544 531 548 541 q 538 515 541 521 q 518 460 527 488 q 514 448 516 454 q 510 437 511 441 q 506 427 508 433 q 502 416 504 421 l 498 404 l 507 405 q 547 406 521 406 q 601 408 572 407 q 648 408 629 408 q 671 408 669 408 q 673 407 672 408 l 675 407 l 675 406 q 675 406 675 406 q 676 406 675 406 q 677 405 677 406 q 677 404 677 404 l 678 403 q 680 401 679 401 q 681 399 680 399 q 681 397 681 398 q 680 396 681 397 l 680 394 q 681 393 680 393 q 681 392 681 393 q 682 392 682 392 q 682 391 682 391 l 682 389 l 680 387 q 681 386 680 387 q 682 384 682 385 q 681 382 682 383 q 680 381 680 382 q 680 378 680 379 l 680 375 l 679 374 q 678 373 678 374 q 677 372 677 373 q 677 371 677 372 q 677 370 677 371 q 676 370 677 370 l 675 368 l 675 368 q 673 367 674 367 q 670 367 672 367 q 666 367 669 367 q 660 366 664 366 q 651 366 656 366 q 640 366 646 366 q 625 365 633 366 q 515 362 570 364 q 500 361 508 361 l 484 361 l 482 357 q 480 351 481 355 q 477 340 478 346 q 473 328 475 334 q 469 321 471 323 q 465 308 469 317 q 462 298 464 303 q 456 280 460 292 l 446 248 q 425 181 431 200 q 423 175 424 178 q 420 165 422 170 q 417 156 418 159 l 414 145 q 407 120 411 134 q 400 94 403 106 q 389 61 393 65 q 385 59 387 60 q 380 58 384 58 q 374 58 377 58 q 370 59 372 58 m 321 395 q 359 397 337 396 q 402 400 381 399 q 438 401 424 401 l 452 402 l 459 421 q 478 476 471 457 q 495 522 486 496 q 496 524 496 524 q 501 537 498 530 q 509 556 506 549 q 513 568 511 562 q 517 581 515 575 q 521 588 519 585 l 522 591 l 518 591 q 492 591 512 591 q 391 584 464 589 q 381 583 385 584 q 367 582 371 583 q 361 580 362 582 q 358 575 359 578 q 357 572 358 574 q 355 566 356 570 q 350 554 352 559 q 345 543 348 549 q 342 534 343 538 q 339 525 340 528 q 336 521 337 522 q 335 517 336 520 q 333 511 334 515 q 327 494 330 503 q 321 480 323 485 q 321 479 321 479 q 318 470 320 476 q 313 458 315 465 q 309 447 311 452 q 308 442 309 444 q 307 439 307 439 l 306 438 l 306 437 q 304 433 305 435 q 301 426 303 431 q 297 414 300 422 q 293 402 295 407 l 291 397 q 290 394 290 395 q 291 393 290 393 q 300 394 292 393 q 321 395 309 394 z "},"$":{"ha":639,"x_min":68,"x_max":571,"o":"m 323 -59 q 321 -58 322 -58 q 320 -58 321 -58 l 319 -58 q 319 -57 319 -57 q 318 -56 319 -56 l 317 -56 q 315 -56 316 -56 q 315 -55 315 -56 l 315 -54 l 313 -54 l 313 -53 q 313 -52 313 -52 q 313 -50 313 -51 q 312 -36 312 -50 q 312 14 312 -21 l 312 76 l 290 76 q 260 77 273 76 q 234 81 248 78 q 204 87 219 83 q 183 94 190 91 l 182 95 q 175 99 179 96 q 163 105 168 102 q 153 115 158 109 q 145 122 149 118 q 139 129 142 125 q 137 133 137 132 q 137 134 137 134 q 136 136 136 135 q 134 137 134 136 q 134 138 134 138 q 134 139 134 138 q 134 140 134 139 l 134 140 q 133 141 133 140 q 133 143 133 142 q 134 145 134 144 q 135 146 135 146 q 136 148 136 147 l 137 150 q 139 153 138 151 q 142 156 141 155 l 144 157 q 145 158 144 157 q 147 159 146 158 q 149 161 148 160 l 151 161 q 152 161 151 161 q 154 163 153 162 q 157 163 155 163 q 161 164 159 164 q 164 164 163 164 q 165 163 165 164 l 165 163 l 166 163 q 168 162 168 163 q 169 161 169 161 q 173 155 170 159 q 181 146 176 151 q 291 119 213 119 l 313 119 l 313 132 q 314 160 313 143 q 316 240 315 197 q 319 310 318 283 q 320 334 319 323 l 320 341 l 321 349 l 292 354 q 191 377 228 364 q 127 409 154 390 q 112 422 121 414 q 99 436 103 431 q 71 495 78 463 q 71 498 71 496 l 71 500 q 68 532 68 513 q 71 566 68 551 q 124 700 81 629 q 142 729 133 715 q 159 753 152 744 q 298 883 228 842 q 327 898 311 890 q 351 906 343 905 q 354 907 352 907 q 357 907 355 907 q 359 908 358 907 q 360 908 359 908 q 362 910 361 909 q 363 916 362 912 q 364 927 363 920 q 366 944 365 933 q 367 954 366 948 q 370 989 369 977 q 372 1008 371 1002 q 376 1018 374 1014 q 385 1028 379 1025 q 393 1031 390 1031 q 396 1031 395 1031 q 399 1029 397 1030 q 404 1029 401 1029 q 407 1029 406 1029 q 409 1029 408 1029 l 410 1029 q 410 1028 410 1028 q 410 1027 410 1027 q 413 1026 411 1027 q 416 1023 414 1025 q 418 1021 418 1022 l 418 1021 q 419 1019 418 1020 q 419 1017 419 1018 q 422 1013 421 1015 q 422 1008 422 1010 q 422 1006 422 1007 q 420 1001 422 1002 q 419 1000 420 1000 q 418 998 418 999 q 418 998 418 998 q 417 998 418 998 q 414 994 416 998 q 412 981 413 991 q 410 954 411 972 q 407 928 408 939 q 406 916 406 916 q 407 914 406 914 q 409 913 407 913 q 414 913 410 913 q 420 912 416 912 q 427 911 424 911 q 433 909 430 909 q 436 908 435 908 q 440 907 437 908 q 446 905 443 906 q 502 863 477 892 q 545 765 532 827 q 552 723 550 743 q 554 677 554 703 q 546 587 554 623 q 544 575 545 581 q 543 566 543 569 q 543 561 543 563 q 542 558 543 559 q 542 557 542 557 q 541 557 541 557 q 540 555 540 556 q 539 554 540 555 q 538 554 539 554 l 537 554 l 537 553 q 535 552 537 553 q 529 551 532 551 q 522 551 525 551 l 519 551 q 515 551 518 551 q 509 552 512 551 q 505 553 506 553 q 500 567 500 556 q 503 589 500 576 q 509 630 508 612 q 511 667 511 648 l 511 685 q 508 729 510 711 q 500 769 505 748 q 420 868 478 852 q 416 869 418 869 q 411 870 413 869 q 407 870 408 870 q 404 870 405 870 q 402 870 402 870 q 401 869 401 869 l 401 861 q 397 825 399 849 q 367 411 380 644 q 366 393 366 401 l 366 386 l 373 385 q 389 381 379 383 q 538 328 500 362 q 550 317 545 322 q 555 309 555 311 l 557 308 l 557 308 q 558 307 557 307 q 559 304 558 307 q 562 300 560 302 q 571 263 571 283 q 567 236 571 250 q 558 215 564 227 q 546 197 552 204 q 441 112 505 145 q 430 106 436 109 q 422 103 425 104 q 418 101 420 102 q 412 98 414 100 q 393 92 405 96 q 369 85 380 87 l 356 81 l 355 67 q 355 42 355 61 q 355 1 355 22 q 353 -52 354 -52 q 351 -53 352 -52 q 349 -55 350 -54 q 344 -58 347 -58 l 341 -58 l 340 -58 l 335 -58 q 323 -59 330 -59 m 323 396 q 325 435 323 400 q 330 510 327 469 q 334 579 332 551 q 353 817 344 715 q 355 836 354 827 q 356 855 356 848 q 357 863 357 862 l 356 863 q 348 859 354 863 q 330 851 340 856 q 328 850 329 850 q 147 654 223 790 q 115 568 124 610 q 114 566 115 567 q 112 553 113 559 q 111 533 111 547 q 113 506 111 515 q 120 485 115 496 q 237 408 142 431 q 266 402 248 406 q 300 396 284 399 q 320 393 317 393 q 323 394 322 393 q 323 396 323 394 m 372 130 q 514 226 465 161 q 528 264 528 248 l 528 266 q 421 332 523 308 q 407 335 416 333 q 388 338 397 336 q 371 341 378 340 l 363 342 l 363 336 q 362 301 363 323 q 361 262 361 282 q 359 212 360 243 q 357 147 358 186 q 356 136 356 140 q 356 130 356 132 q 356 127 356 127 q 357 126 357 126 q 362 127 358 126 q 372 130 366 128 z "},"%":{"ha":731,"x_min":68,"x_max":663,"o":"m 90 24 q 88 26 89 26 q 87 26 87 26 q 83 27 85 26 q 79 30 81 28 q 77 32 77 31 q 76 32 76 32 q 75 33 75 33 q 73 33 74 33 q 70 37 72 35 q 68 43 68 40 q 69 49 68 45 q 75 59 71 54 q 78 66 78 65 l 88 83 l 112 126 q 118 138 112 127 q 135 165 125 149 q 151 193 143 180 q 160 210 159 206 q 168 223 162 213 q 181 246 174 233 q 193 266 189 258 q 198 275 198 275 l 201 281 q 209 293 204 286 q 221 313 215 303 q 231 330 227 323 l 235 336 q 245 355 235 337 q 270 397 256 374 q 279 411 275 405 q 282 417 282 416 l 286 423 q 295 438 290 429 q 304 452 299 445 q 314 469 311 463 q 319 477 315 472 q 341 513 328 492 q 355 534 349 526 q 363 548 362 547 q 370 559 363 549 q 386 585 376 570 q 402 610 395 600 q 410 622 409 621 q 416 631 411 623 q 428 650 421 640 q 440 669 435 661 q 445 677 443 673 l 446 680 q 456 694 446 680 q 472 719 463 704 l 498 758 l 504 766 q 517 787 509 775 l 538 818 l 560 850 q 562 853 562 852 q 576 874 570 865 q 582 883 582 882 l 585 888 q 594 901 589 893 q 601 911 597 905 q 614 930 609 922 q 631 949 627 949 l 633 948 q 636 947 634 947 q 638 945 637 946 l 639 945 q 647 949 639 948 q 651 948 648 949 q 655 946 653 947 q 657 945 657 945 l 658 944 q 659 942 658 943 q 660 941 659 941 q 663 937 662 939 q 663 930 663 935 q 663 928 663 929 q 663 926 663 926 l 663 924 q 662 924 662 924 q 661 923 661 924 l 661 922 l 661 922 q 660 922 660 922 l 660 921 q 659 920 660 920 q 658 918 659 919 q 655 915 656 917 q 652 910 654 912 q 646 900 650 907 l 637 888 q 616 856 621 864 q 608 845 611 849 q 598 830 606 841 q 582 806 591 819 q 555 766 569 787 q 531 731 541 745 q 522 715 522 716 q 512 701 522 715 l 500 682 q 485 659 491 669 q 477 648 478 649 q 475 643 477 647 l 468 633 q 451 606 460 620 q 436 583 442 593 q 429 572 429 573 l 426 568 q 418 555 422 562 l 406 537 l 405 534 q 400 526 403 530 q 395 519 397 522 l 393 515 l 391 511 q 384 500 388 507 q 365 470 374 484 q 350 446 356 456 q 345 436 345 437 l 334 419 q 322 399 328 410 q 314 387 317 392 q 298 361 309 378 l 289 345 q 271 315 278 327 q 269 310 269 312 q 263 301 268 308 q 253 283 259 294 q 242 265 248 275 q 226 238 233 250 q 220 227 220 227 l 218 223 q 213 214 216 220 q 203 197 209 208 q 196 185 199 191 q 188 172 191 177 q 185 166 185 167 l 179 155 q 163 129 173 144 q 154 113 158 121 q 145 98 149 104 l 142 92 q 139 86 142 91 q 132 73 136 81 q 128 67 130 71 q 117 48 121 55 q 111 37 113 41 q 107 31 109 33 q 104 28 106 29 q 101 25 102 26 q 96 24 100 24 l 96 24 q 92 24 93 24 q 90 24 90 24 m 169 625 q 130 647 148 630 q 114 666 121 656 q 101 690 108 675 q 99 698 100 692 q 96 709 98 703 q 94 718 95 715 q 93 744 93 728 q 94 771 93 760 q 117 850 100 812 q 128 869 123 860 q 137 882 134 878 q 139 885 138 884 q 138 888 139 886 l 137 890 q 138 890 137 890 q 138 892 138 891 q 138 893 138 892 l 138 896 l 140 897 l 139 897 q 140 899 139 898 q 144 902 142 900 q 150 905 147 903 q 186 913 166 913 l 193 913 q 243 901 220 913 q 304 802 304 873 l 304 796 q 268 673 304 730 q 251 652 261 663 q 233 637 240 642 q 220 630 224 633 q 211 627 216 628 q 203 625 207 625 q 192 624 199 624 q 189 623 191 624 q 169 625 175 623 m 205 671 q 249 731 233 685 q 262 796 260 764 q 249 844 262 829 q 223 863 240 856 q 193 870 205 870 l 189 870 q 185 869 186 870 q 183 867 184 868 q 182 864 183 865 q 180 862 181 863 q 174 859 177 861 q 167 851 171 857 q 149 814 157 836 q 137 769 140 791 q 136 750 136 760 l 136 743 q 138 720 136 730 q 174 669 146 680 q 179 667 176 667 q 187 667 182 667 q 196 668 193 667 q 204 671 199 669 l 205 671 m 532 52 q 522 55 526 53 q 510 60 517 56 q 460 121 477 77 q 447 195 447 157 q 451 239 447 216 q 453 249 452 244 q 454 254 454 254 q 456 258 454 256 q 460 275 457 265 q 525 364 486 345 q 545 369 535 369 q 556 368 551 369 l 559 368 q 570 367 564 367 q 586 365 579 367 q 601 358 593 363 q 620 344 610 353 q 637 324 629 334 q 649 300 643 314 q 657 276 655 287 q 661 237 661 258 l 661 230 q 656 184 661 204 q 650 161 652 168 q 646 146 648 153 q 606 79 631 105 q 592 67 598 72 q 578 59 586 62 q 543 51 561 51 q 532 52 538 51 m 554 95 q 604 155 583 106 q 611 181 607 165 q 616 209 614 196 q 618 231 618 220 l 618 238 q 616 263 618 253 q 601 299 612 283 q 578 322 591 315 q 574 323 575 323 q 570 324 572 324 q 565 323 568 323 q 557 323 560 323 l 554 323 q 552 323 553 323 q 551 323 551 323 l 551 324 l 549 324 q 548 324 549 324 q 548 325 548 324 q 547 326 548 326 q 545 326 547 326 q 529 314 539 326 q 510 284 519 302 q 490 208 494 250 l 490 197 q 499 139 490 165 q 530 98 511 108 q 541 94 537 94 q 545 94 544 94 q 554 95 549 94 z "},"&":{"ha":750,"x_min":68,"x_max":682,"o":"m 218 -113 q 141 -82 171 -106 q 123 -65 134 -77 q 106 -45 112 -54 q 95 -25 100 -36 q 86 -5 89 -14 q 84 -1 85 -3 q 83 1 83 1 q 74 35 79 14 q 68 78 70 56 l 68 121 q 70 164 68 148 q 241 663 87 351 l 254 690 l 250 709 q 236 789 240 749 q 233 829 233 812 q 233 851 233 846 q 235 890 233 872 q 260 985 242 947 q 263 992 262 989 q 265 998 264 996 q 273 1011 267 1002 q 285 1031 279 1021 q 303 1052 292 1040 q 324 1070 315 1064 q 346 1081 336 1078 q 367 1084 355 1084 l 372 1084 q 381 1084 376 1084 q 391 1082 388 1083 l 392 1080 q 394 1079 393 1080 q 402 1075 397 1078 q 410 1069 407 1072 q 415 1062 413 1065 q 419 1055 417 1059 q 430 1009 430 1036 q 410 918 430 971 q 382 855 399 892 q 333 751 366 818 l 301 686 l 308 665 q 401 467 342 561 q 405 460 404 463 q 407 456 407 457 q 424 469 409 456 q 433 479 429 475 q 440 485 437 483 q 444 488 442 486 q 446 490 445 489 q 451 494 447 490 q 461 501 456 497 q 472 507 467 505 q 562 536 519 536 q 586 533 574 536 q 661 468 638 522 q 670 439 667 454 q 672 406 672 425 l 672 397 q 623 213 672 314 l 621 209 q 618 200 619 203 l 616 196 q 622 189 617 195 q 633 176 627 182 q 642 165 638 169 q 663 143 651 155 q 680 127 674 132 q 682 126 681 127 l 682 125 q 679 119 682 124 q 671 106 676 114 q 665 97 667 100 q 662 92 663 93 q 660 92 661 92 l 659 92 q 637 109 652 94 q 605 142 622 123 l 593 156 l 589 150 q 569 119 582 138 q 547 88 556 100 q 515 48 530 66 q 479 11 499 30 q 385 -64 431 -36 q 378 -68 381 -66 q 374 -71 374 -71 q 361 -77 370 -73 q 343 -86 353 -81 q 328 -93 333 -91 q 262 -111 296 -106 q 249 -112 258 -112 q 229 -113 239 -113 q 218 -113 220 -113 m 308 798 q 347 879 332 848 q 368 932 361 909 q 387 1010 387 981 q 386 1019 387 1015 q 369 1042 384 1042 q 334 1022 354 1042 q 276 837 276 956 l 276 823 q 279 790 277 807 q 283 763 281 773 q 286 753 285 753 q 293 767 286 754 q 308 798 299 779 m 597 258 q 630 398 630 339 q 619 458 630 431 q 583 489 608 481 q 574 492 578 491 q 562 492 570 492 q 548 492 553 492 q 538 490 543 491 q 441 427 488 477 l 433 418 l 450 396 q 481 355 465 376 q 534 292 498 335 q 566 256 553 271 q 581 237 579 241 l 586 233 l 588 239 q 594 252 591 243 q 597 258 595 255 m 258 -68 q 458 50 357 -52 q 559 184 517 113 l 564 192 l 554 203 q 540 220 550 208 q 511 254 527 236 q 450 326 471 301 q 415 370 429 351 q 409 378 412 375 q 406 380 407 380 q 404 376 406 380 q 399 367 401 372 q 394 355 396 361 q 379 294 383 328 q 378 281 378 288 l 378 275 q 380 255 378 264 q 383 243 381 245 q 384 239 384 241 q 384 235 385 237 q 383 233 384 233 q 382 232 382 233 q 382 231 382 232 q 382 230 382 231 q 380 228 381 229 l 378 227 q 377 225 377 226 q 376 224 377 224 q 374 223 375 223 q 372 221 372 222 l 369 220 l 368 219 l 366 219 q 365 219 366 219 q 363 218 364 218 q 359 216 362 216 q 355 216 357 216 q 353 216 353 216 q 353 217 353 217 q 352 218 353 218 l 351 217 l 351 218 q 350 219 351 219 q 347 221 349 219 q 344 227 345 224 q 340 235 340 232 q 339 240 339 237 q 338 243 338 241 q 336 249 337 246 q 336 266 336 254 q 336 289 336 277 q 337 307 336 300 q 371 406 346 363 l 379 421 l 368 439 q 309 545 334 493 l 298 570 l 296 574 q 295 575 296 574 q 294 578 294 576 q 289 590 292 584 q 283 606 287 596 l 281 609 q 277 622 279 616 q 275 628 275 627 l 275 629 l 274 629 l 273 629 q 272 626 273 628 q 269 621 271 625 q 266 613 268 618 q 259 600 263 608 q 250 581 256 592 q 112 158 129 323 q 111 135 111 149 q 111 112 111 121 l 111 94 q 112 68 111 75 q 159 -41 122 -7 q 235 -70 188 -70 q 246 -69 239 -70 q 258 -68 253 -68 z "},"'":{"ha":267,"x_min":68,"x_max":199,"o":"m 93 732 l 92 732 q 91 733 92 733 l 90 732 q 89 732 90 732 q 86 733 87 732 q 83 735 85 734 q 81 735 82 735 q 80 735 81 735 q 79 736 80 736 q 75 739 78 738 q 73 740 74 739 q 72 741 72 741 l 69 744 q 68 745 68 745 q 68 746 68 745 q 68 746 68 746 l 69 746 l 68 747 q 68 749 68 747 q 68 753 68 751 q 74 770 69 758 q 87 804 79 782 q 115 868 99 831 q 144 933 131 904 q 160 967 157 962 q 164 971 162 970 q 167 972 165 972 l 168 971 l 169 971 l 170 970 q 170 971 170 970 l 171 971 q 172 970 172 970 l 178 970 l 179 970 q 180 969 179 969 q 182 968 181 968 q 185 969 184 969 q 186 968 186 968 l 188 968 q 190 967 189 967 q 192 967 191 967 q 194 966 193 966 q 194 965 194 965 q 195 964 195 964 q 199 955 199 964 l 199 952 q 199 947 199 949 l 198 945 q 186 922 196 943 q 163 870 177 901 q 137 809 150 840 q 116 758 124 779 q 111 745 113 750 q 108 739 109 740 q 104 734 106 736 q 100 732 101 732 l 100 733 l 99 732 q 98 732 98 732 q 96 731 98 731 q 93 732 95 731 z "},"(":{"ha":485,"x_min":68,"x_max":417,"o":"m 260 -141 l 260 -141 q 258 -141 259 -141 q 256 -140 257 -140 q 232 -130 249 -140 q 215 -115 224 -125 q 199 -97 206 -106 q 196 -92 197 -94 q 193 -90 194 -90 q 188 -82 192 -88 q 180 -70 184 -76 q 174 -60 176 -63 q 171 -53 173 -58 q 166 -45 168 -49 q 130 32 148 -12 q 99 117 111 77 q 91 148 95 132 q 86 173 87 164 q 86 176 86 174 q 85 178 85 178 q 83 184 84 180 q 82 194 83 189 q 80 205 81 200 q 79 213 79 211 q 78 220 79 214 q 76 231 77 224 q 72 263 74 243 q 69 304 71 283 q 68 338 68 317 q 68 374 68 359 l 68 402 q 69 444 68 431 q 124 743 79 601 q 142 797 132 767 q 161 845 153 826 q 163 848 162 846 q 164 851 163 850 q 165 853 165 852 q 219 960 191 912 q 239 991 228 974 q 256 1016 250 1008 q 260 1020 257 1017 q 267 1029 263 1023 q 382 1114 335 1114 q 401 1109 392 1114 q 408 1105 405 1107 q 415 1097 411 1102 q 416 1094 416 1096 q 417 1088 417 1091 q 417 1084 417 1086 q 416 1082 416 1082 l 416 1082 l 415 1082 l 415 1081 q 414 1080 415 1080 q 413 1078 414 1078 q 412 1077 412 1077 l 410 1077 q 410 1076 410 1076 q 410 1076 410 1076 q 410 1075 410 1076 q 409 1074 410 1074 q 405 1074 408 1074 q 398 1074 403 1074 q 393 1072 396 1074 q 390 1069 392 1071 q 387 1068 389 1068 l 386 1069 q 383 1069 385 1069 q 380 1071 382 1071 q 377 1070 380 1071 q 370 1067 375 1069 q 293 991 338 1050 q 142 643 193 857 q 110 389 112 515 l 110 376 q 130 175 110 269 q 167 54 142 116 q 222 -54 192 -8 q 263 -98 243 -88 q 273 -103 271 -102 q 275 -106 275 -105 q 275 -106 275 -106 l 276 -106 q 277 -108 276 -107 l 277 -109 q 277 -111 277 -110 q 277 -112 277 -112 q 278 -113 278 -112 l 277 -114 q 276 -117 277 -115 q 276 -120 276 -119 q 274 -125 276 -124 l 274 -125 q 274 -127 274 -126 q 273 -130 273 -128 q 272 -131 273 -130 q 270 -136 271 -134 q 268 -137 269 -136 q 267 -138 267 -138 l 265 -138 l 265 -139 q 264 -140 265 -140 q 263 -140 264 -140 l 262 -140 q 262 -141 262 -140 l 262 -142 l 260 -142 l 260 -141 z "},")":{"ha":485,"x_min":68,"x_max":417,"o":"m 224 1113 l 226 1113 q 229 1112 227 1112 q 253 1101 237 1112 q 269 1087 260 1097 q 285 1068 278 1078 q 290 1062 288 1065 l 291 1061 q 296 1053 292 1059 q 304 1041 300 1047 q 311 1031 309 1034 q 315 1023 312 1028 q 319 1017 317 1019 q 355 939 337 984 q 385 854 373 895 q 393 824 389 839 q 399 799 397 808 q 399 795 399 797 l 399 793 q 401 783 400 790 q 404 769 403 776 q 406 760 406 762 q 407 752 406 758 q 408 741 408 747 q 412 708 410 728 q 416 667 414 688 q 417 626 416 654 q 417 569 417 598 q 416 527 416 541 q 360 228 405 371 q 342 175 353 204 q 323 127 332 146 q 321 122 322 124 q 320 119 320 120 q 266 12 293 58 q 245 -19 257 -2 q 228 -44 233 -37 q 224 -49 227 -45 q 218 -57 221 -52 q 103 -142 150 -142 q 83 -137 92 -142 q 76 -133 79 -136 q 69 -125 73 -131 q 68 -121 68 -123 q 68 -117 68 -119 l 68 -114 q 69 -111 68 -111 l 69 -109 q 71 -106 70 -107 q 73 -105 72 -106 l 73 -104 l 73 -105 q 74 -105 74 -105 q 75 -105 75 -105 q 75 -104 75 -104 l 75 -103 l 76 -103 q 79 -102 77 -102 q 85 -102 81 -102 l 86 -102 q 89 -101 87 -102 q 91 -100 90 -101 q 94 -98 92 -99 q 98 -97 96 -97 q 99 -97 98 -97 q 100 -98 100 -97 q 103 -99 102 -99 q 106 -99 104 -99 l 108 -99 q 115 -96 110 -98 q 191 -20 146 -79 q 343 329 292 115 q 374 582 373 455 l 374 602 q 355 798 374 707 q 318 918 342 857 q 262 1025 293 979 q 222 1069 241 1061 q 212 1075 214 1073 q 210 1077 210 1076 l 210 1078 l 209 1078 q 208 1079 208 1078 q 208 1080 208 1080 q 208 1082 208 1082 q 207 1083 208 1083 l 207 1086 q 208 1088 208 1086 q 208 1093 208 1090 q 209 1094 209 1093 q 210 1095 210 1095 l 210 1096 q 211 1097 210 1096 q 211 1098 211 1097 l 211 1099 l 212 1099 q 212 1101 212 1101 l 215 1107 q 218 1109 216 1109 q 219 1110 218 1109 q 219 1111 219 1110 q 220 1112 219 1112 l 220 1112 q 221 1112 221 1112 q 222 1112 222 1112 q 222 1112 222 1112 q 223 1114 222 1113 q 224 1114 223 1114 l 224 1113 z "},"*":{"ha":431,"x_min":68,"x_max":363,"o":"m 199 551 q 198 551 199 551 q 197 551 198 551 q 194 552 196 551 q 189 553 191 552 q 184 554 186 553 l 184 555 q 183 555 183 555 l 182 555 q 181 556 182 555 q 179 557 180 557 q 179 559 179 557 q 178 563 178 560 q 178 568 178 566 l 178 589 q 184 715 178 631 q 186 731 185 724 l 186 737 l 176 728 q 152 707 166 720 q 124 681 138 694 q 106 663 114 671 q 98 656 98 656 l 90 656 q 84 659 86 656 l 83 660 l 81 660 q 80 661 81 660 q 77 664 79 663 q 74 667 75 665 q 73 669 73 668 l 73 670 l 71 671 q 70 673 71 672 q 68 675 68 674 q 68 680 68 678 q 68 682 68 681 l 68 683 q 69 684 68 683 q 69 685 69 684 q 85 702 69 686 q 124 740 101 718 q 172 783 148 762 q 175 786 174 785 q 176 787 176 787 l 175 788 q 168 796 174 789 q 155 812 163 802 q 140 830 148 821 q 126 846 132 840 q 116 858 119 854 q 111 864 112 862 q 110 867 110 865 l 110 867 q 110 868 110 868 q 109 869 109 869 q 109 872 109 870 q 109 876 109 875 l 109 880 q 110 884 109 882 l 111 884 q 115 885 113 884 q 120 885 117 885 q 132 889 129 886 q 134 890 134 890 l 135 890 l 135 890 q 136 890 136 890 q 138 891 137 890 q 140 892 138 892 q 142 890 140 892 q 154 878 145 888 q 174 856 163 868 q 190 837 184 844 l 193 833 l 193 836 q 195 853 193 838 q 197 878 195 863 q 199 913 198 896 q 200 932 199 926 q 201 945 201 939 q 201 952 201 951 q 205 962 203 960 q 206 962 205 962 q 206 963 206 962 l 206 964 q 208 966 206 964 q 211 968 210 967 q 212 969 212 969 q 214 968 213 969 q 217 967 216 968 q 222 966 220 966 q 227 966 224 966 q 228 965 227 966 q 230 965 229 965 l 231 964 l 232 964 q 234 964 233 964 l 236 964 q 242 962 239 964 q 246 958 245 961 l 246 954 q 243 928 245 951 l 241 902 q 239 878 241 890 l 237 846 l 237 840 q 240 843 237 840 q 248 849 243 845 q 265 864 254 854 q 288 882 276 873 q 312 903 303 896 q 326 913 321 910 q 333 917 331 917 q 336 918 334 918 q 338 917 337 918 q 341 916 340 916 q 342 916 342 916 l 343 917 l 345 917 q 347 917 346 917 q 347 918 347 917 l 348 918 l 348 918 q 348 917 348 917 q 349 916 349 916 q 351 916 350 916 q 353 913 352 915 l 353 913 q 355 912 354 912 q 356 911 355 912 q 358 909 357 911 q 359 907 359 908 l 360 906 q 360 904 360 905 q 361 903 361 903 q 363 897 363 900 q 355 880 363 880 q 353 880 355 880 q 350 878 351 879 q 325 858 345 874 q 281 821 304 841 q 239 786 257 801 l 236 782 l 256 760 q 326 695 294 722 q 336 686 332 690 q 340 682 340 682 q 340 681 340 681 q 341 680 340 680 q 342 679 342 680 q 341 675 342 677 q 340 671 341 673 q 338 669 340 669 q 337 667 338 668 q 337 665 337 665 q 336 663 337 664 q 335 661 336 662 l 332 658 q 331 656 331 657 q 330 656 330 656 l 329 656 q 328 655 328 656 q 327 654 328 654 q 324 652 326 652 q 323 650 323 651 q 320 650 322 650 q 318 650 319 650 q 316 650 317 650 q 315 650 315 650 q 315 651 315 651 q 314 651 315 651 q 287 672 311 651 q 274 684 283 675 q 255 702 265 692 q 238 719 245 711 q 230 726 231 726 l 229 726 q 229 727 229 727 q 229 728 229 728 l 229 727 q 228 725 229 726 q 228 721 228 724 q 227 713 227 718 q 226 701 227 708 q 225 685 226 694 q 224 664 225 676 q 222 629 224 647 q 221 591 221 604 q 220 572 220 578 q 219 563 220 566 q 219 557 219 559 l 219 557 q 218 556 219 556 q 217 556 218 556 q 216 556 216 556 q 216 555 216 555 q 215 554 216 554 q 214 553 215 553 l 213 553 l 212 552 l 210 551 q 205 551 208 551 q 201 551 203 551 l 199 551 z "},"+":{"ha":414,"x_min":68,"x_max":347,"o":"m 195 234 l 193 234 q 191 235 193 235 q 188 235 189 235 q 187 236 187 235 l 186 237 l 186 237 q 184 238 185 237 q 182 240 182 239 q 181 242 181 241 q 180 268 180 245 q 182 323 180 291 q 182 358 182 342 l 182 377 l 176 376 q 152 373 165 375 q 125 370 138 372 q 111 368 117 369 q 99 367 104 367 q 93 366 94 366 q 88 367 90 366 q 86 369 86 368 q 84 372 86 371 q 79 374 82 374 q 74 375 75 374 q 74 376 74 376 q 73 377 73 377 q 71 377 72 377 q 70 379 70 378 l 70 380 q 70 381 70 381 q 68 381 69 381 l 68 383 q 68 389 68 385 q 68 393 68 392 q 71 395 69 395 q 71 396 71 396 q 73 397 72 397 l 74 397 l 74 400 l 75 401 q 76 403 75 402 q 79 405 77 404 q 81 406 80 406 l 83 406 q 84 407 83 406 q 90 409 85 408 q 101 411 95 410 q 140 415 118 412 q 162 418 152 416 q 176 419 172 419 q 182 420 179 420 l 184 421 l 184 429 q 186 471 185 444 q 186 516 186 500 q 188 541 187 533 q 190 552 189 549 q 195 558 192 555 l 196 559 q 197 559 196 559 l 197 560 q 198 559 198 560 q 210 557 200 557 q 215 557 213 557 l 217 556 l 218 556 q 219 555 218 555 q 220 555 219 555 q 222 555 220 555 q 226 555 224 555 q 231 551 231 553 q 232 545 232 549 l 232 542 q 231 535 231 538 q 231 529 231 532 q 230 509 230 525 q 229 474 229 493 q 229 440 229 454 l 228 425 l 233 425 q 246 426 239 425 q 250 427 248 426 q 292 430 278 429 q 319 431 306 431 q 330 431 326 431 q 336 431 334 431 q 338 430 338 431 q 339 429 339 430 q 339 428 339 429 q 340 428 340 428 l 341 428 q 342 427 341 427 q 342 426 342 427 q 342 425 342 426 q 343 425 342 425 q 345 416 345 423 l 345 410 q 346 407 346 408 q 347 406 347 406 l 346 405 q 345 404 345 405 q 345 402 345 404 q 345 401 345 401 q 346 398 346 399 q 345 396 346 397 q 343 396 344 396 q 342 395 342 395 q 342 392 342 393 q 340 391 341 391 l 339 391 q 338 391 338 391 q 337 390 337 391 l 336 390 q 331 389 334 389 q 321 388 328 389 q 304 387 315 387 q 272 385 290 386 q 241 382 254 383 q 227 380 228 381 q 225 365 226 380 q 225 326 225 349 q 224 309 224 317 q 222 245 223 258 q 222 243 222 244 q 221 241 222 242 q 220 240 220 241 l 221 240 l 221 239 l 220 238 q 218 237 219 237 q 216 236 217 236 q 216 236 216 236 q 215 235 216 235 q 212 234 215 235 q 205 234 209 234 q 199 233 201 233 q 195 234 195 233 z "},",":{"ha":248,"x_min":68,"x_max":180,"o":"m 94 119 l 93 120 l 90 120 q 88 120 89 120 q 87 121 87 121 l 86 121 q 84 122 85 122 q 83 122 83 122 q 81 123 82 122 q 79 124 80 123 q 77 125 79 125 q 75 126 76 126 q 73 128 74 127 q 72 130 72 129 l 72 130 l 71 132 q 70 132 70 132 l 70 133 q 70 134 70 134 q 68 135 69 135 l 68 136 q 68 136 68 136 q 68 138 68 137 l 68 139 q 70 144 69 142 q 73 152 71 146 q 79 168 75 157 q 124 264 100 214 q 135 287 131 279 q 143 298 140 295 q 149 304 146 302 q 151 304 150 304 q 152 304 152 304 q 154 302 153 304 l 155 302 l 155 302 l 156 302 l 158 300 q 161 298 159 298 q 166 296 163 297 q 169 296 167 296 q 175 295 172 296 q 179 294 178 294 q 180 289 180 292 q 180 283 180 286 q 180 280 180 281 q 179 279 179 279 q 179 278 179 279 l 179 277 l 178 277 l 177 277 q 177 274 177 275 q 176 272 176 273 q 175 270 176 271 q 160 241 172 264 q 137 190 149 218 q 117 144 124 163 q 109 127 112 134 q 104 120 105 120 l 104 121 q 104 121 104 121 l 103 121 q 100 119 102 120 q 96 119 98 119 q 94 119 94 119 z "},"-":{"ha":456,"x_min":68,"x_max":389,"o":"m 75 372 q 69 395 72 376 q 68 403 68 400 q 68 407 68 406 q 68 409 68 408 q 69 410 68 410 q 76 413 71 412 q 91 415 81 414 q 121 418 102 416 q 182 420 142 419 q 267 421 222 421 q 342 422 311 422 q 380 421 375 422 q 387 416 387 419 q 387 414 387 415 q 388 414 387 414 l 389 410 q 389 401 389 406 q 388 392 389 396 q 387 387 388 388 l 387 386 l 386 385 l 386 385 q 386 383 386 384 q 384 381 385 382 q 382 380 383 380 q 377 379 380 379 q 366 379 373 379 q 120 374 191 378 q 97 373 108 374 q 81 372 86 372 l 77 372 q 75 372 76 372 z "},"­":{"ha":456,"x_min":68,"x_max":389,"o":"m 75 372 q 69 395 72 376 q 68 403 68 400 q 68 407 68 406 q 68 409 68 408 q 69 410 68 410 q 76 413 71 412 q 91 415 81 414 q 121 418 102 416 q 182 420 142 419 q 267 421 222 421 q 342 422 311 422 q 380 421 375 422 q 387 416 387 419 q 387 414 387 415 q 388 414 387 414 l 389 410 q 389 401 389 406 q 388 392 389 396 q 387 387 388 388 l 387 386 l 386 385 l 386 385 q 386 383 386 384 q 384 381 385 382 q 382 380 383 380 q 377 379 380 379 q 366 379 373 379 q 120 374 191 378 q 97 373 108 374 q 81 372 86 372 l 77 372 q 75 372 76 372 z "},".":{"ha":190,"x_min":68,"x_max":122,"o":"m 96 237 q 94 237 94 237 q 92 237 93 237 q 92 237 92 237 q 90 237 91 237 q 87 237 89 237 q 83 239 85 239 q 81 240 82 239 q 80 241 80 240 q 79 241 79 241 q 78 241 79 241 q 77 241 78 241 q 74 242 75 241 q 72 244 72 243 l 72 245 q 71 246 72 245 q 70 247 71 246 q 70 248 70 247 l 70 248 q 69 250 70 249 l 68 250 l 68 250 l 68 251 l 69 252 l 69 256 q 73 270 70 261 q 79 285 75 278 q 83 293 82 292 q 85 293 85 293 q 86 294 86 294 l 88 296 q 92 298 90 297 q 96 300 94 299 l 97 300 l 98 300 l 101 297 q 104 295 102 296 l 104 293 l 105 293 q 107 292 106 292 q 109 291 108 292 q 116 290 114 291 l 117 290 q 120 289 119 289 q 122 286 121 288 q 122 283 122 284 q 121 278 122 281 l 121 274 l 121 273 q 121 272 121 273 l 121 271 q 120 270 121 271 q 118 268 119 270 q 116 263 117 265 q 115 261 116 262 q 112 251 113 255 q 109 243 110 247 q 107 241 108 242 q 107 239 107 240 l 104 239 l 104 239 q 104 238 104 238 q 103 238 104 238 l 102 237 l 100 237 l 100 237 q 98 236 100 236 q 96 237 98 236 z "},"/":{"ha":899,"x_min":68,"x_max":831,"o":"m 90 -36 q 87 -35 89 -35 q 85 -35 86 -35 q 84 -34 85 -35 q 82 -32 83 -33 q 81 -31 82 -31 q 79 -31 80 -31 l 78 -29 q 76 -28 77 -28 l 73 -25 q 71 -24 72 -24 l 70 -23 q 70 -21 70 -22 q 68 -18 69 -19 l 68 -18 q 68 -16 68 -17 q 68 -14 68 -15 q 68 -12 68 -14 q 73 -3 70 -8 q 83 13 77 3 q 99 38 90 22 l 103 45 q 185 171 146 113 q 283 315 224 230 q 671 844 475 598 q 762 963 749 941 q 769 973 766 970 q 774 979 771 975 q 783 989 778 983 q 790 998 787 994 q 795 1003 793 1002 q 797 1004 796 1004 q 799 1006 798 1005 l 800 1006 q 802 1007 800 1007 q 804 1008 803 1008 q 807 1008 806 1008 q 808 1008 808 1008 l 808 1007 q 810 1005 809 1006 q 812 1003 811 1004 q 815 1000 814 1001 q 820 1000 817 1000 q 823 999 822 1000 q 825 998 825 999 l 825 998 l 826 998 q 827 998 827 998 q 829 997 828 998 q 830 996 829 997 q 831 994 831 996 q 831 990 831 993 q 830 985 831 987 q 829 983 830 983 l 829 981 q 829 980 829 981 q 829 980 829 980 q 827 978 828 979 q 827 976 827 977 l 825 974 q 823 971 824 972 q 817 963 823 971 q 804 945 812 956 q 789 925 796 935 q 779 911 782 916 q 773 904 775 907 q 768 899 770 899 q 765 893 768 897 q 758 885 762 890 l 758 884 q 750 874 754 879 q 745 867 747 870 q 708 822 734 855 q 652 750 682 788 q 605 689 623 713 q 235 168 427 455 q 188 98 206 126 q 141 24 170 71 q 136 17 139 20 q 122 -6 127 3 q 113 -21 116 -16 q 107 -29 109 -26 q 104 -33 105 -32 q 102 -35 102 -35 q 96 -37 99 -37 q 93 -37 94 -37 q 90 -36 91 -37 z "},":":{"ha":191,"x_min":68,"x_max":123,"o":"m 96 237 q 94 237 95 237 q 93 237 94 237 q 92 237 92 237 q 91 237 92 237 q 88 237 90 237 q 86 239 87 238 q 83 239 85 239 q 82 240 82 239 q 81 241 81 240 q 80 241 81 241 l 79 241 q 75 242 77 241 q 73 244 73 243 l 73 245 l 72 246 q 71 247 71 246 q 71 248 71 247 l 71 248 q 70 250 71 249 q 68 250 69 250 l 68 250 l 68 251 q 70 254 69 251 q 71 256 70 254 q 73 270 71 261 q 79 285 76 278 q 85 293 83 292 q 86 293 85 293 q 87 294 87 294 l 88 296 q 92 298 90 297 q 96 300 94 299 l 98 300 l 99 300 q 102 297 100 299 q 104 295 103 296 l 105 293 q 107 292 106 293 q 111 291 109 292 q 114 291 113 291 q 117 290 116 290 q 119 289 118 290 l 121 289 q 123 286 122 288 q 123 282 123 283 l 123 278 q 122 274 122 275 l 122 273 l 121 270 q 119 267 120 269 q 116 261 117 264 q 112 251 114 255 q 109 243 111 247 q 109 241 109 242 q 109 239 109 240 l 106 239 l 105 239 q 104 238 105 238 q 103 237 104 237 l 101 237 l 100 237 q 99 236 100 236 q 96 237 98 236 m 96 471 l 92 471 q 91 471 92 471 q 88 471 90 471 q 86 473 87 472 q 83 473 85 473 q 82 473 83 473 q 81 474 81 473 q 80 475 81 475 q 79 475 79 475 q 75 476 77 475 q 73 477 73 477 q 73 479 73 478 q 72 480 73 479 q 71 481 71 480 q 71 482 71 481 q 70 484 71 483 q 68 484 69 484 l 68 484 l 68 485 q 70 487 69 485 q 71 490 70 488 q 73 504 71 495 q 79 519 76 512 q 85 526 83 526 q 86 527 85 526 q 87 528 87 528 l 88 530 q 92 532 90 531 q 96 534 94 533 q 99 533 98 534 q 102 531 100 533 l 104 529 q 105 526 105 527 q 108 526 106 526 q 111 525 109 526 q 114 525 113 525 q 117 524 116 524 q 119 523 118 524 l 121 523 q 123 516 123 522 l 123 511 q 122 509 123 510 q 122 507 122 508 l 122 507 l 121 504 q 119 500 120 503 q 116 494 117 498 q 113 486 114 489 q 111 480 112 483 q 109 477 110 479 q 109 475 109 476 l 109 473 l 108 473 l 107 473 l 106 473 q 105 473 106 473 q 105 472 105 473 l 104 472 q 103 471 104 471 q 102 471 102 471 q 101 471 101 471 q 100 470 100 471 q 99 469 100 469 q 96 471 98 469 z "},";":{"ha":248,"x_min":68,"x_max":180,"o":"m 94 119 l 93 119 q 90 120 92 120 q 85 121 87 120 q 84 122 85 122 q 83 122 83 122 q 81 123 82 122 q 79 124 80 123 q 78 125 79 125 q 75 126 77 126 q 73 128 73 127 q 72 130 72 129 l 70 132 l 69 133 q 69 134 69 134 q 68 135 69 135 l 68 135 q 68 136 68 136 q 69 138 68 137 l 69 139 q 70 143 69 141 q 71 147 70 144 q 75 155 73 150 q 79 168 76 160 q 123 264 99 214 q 135 287 131 279 q 143 298 140 295 q 149 304 146 302 q 152 304 151 304 q 154 302 153 304 l 155 302 q 156 302 155 302 l 159 300 q 161 298 159 298 q 165 296 163 297 q 170 296 168 296 q 176 295 173 296 q 179 294 178 294 q 180 289 180 292 q 180 283 180 286 q 179 280 180 281 l 179 277 l 178 277 l 178 277 l 177 277 q 177 274 177 275 q 177 273 177 273 q 176 270 176 272 q 160 241 172 264 q 137 190 149 218 q 117 144 124 163 q 109 127 113 134 q 104 121 106 121 l 104 121 q 104 121 104 121 q 100 119 102 120 q 96 119 98 119 q 94 119 95 119 m 128 471 l 124 471 q 122 471 123 471 q 121 471 121 471 q 119 473 120 472 q 116 473 117 473 q 115 473 115 473 q 114 473 115 473 q 114 474 114 473 l 113 474 q 113 475 113 475 q 111 475 112 475 q 107 476 109 475 q 106 477 106 477 q 105 479 106 478 q 104 480 105 479 q 103 481 104 480 q 102 482 102 481 q 102 484 102 483 q 101 484 102 484 l 100 484 l 101 485 q 102 486 102 485 q 102 490 102 488 q 105 504 102 495 q 112 519 109 512 q 117 526 115 526 q 118 527 118 526 q 119 528 119 528 l 121 530 q 124 532 122 531 q 128 534 127 533 q 132 533 130 534 q 134 531 133 533 l 136 529 q 138 526 138 527 q 140 526 138 526 q 143 525 141 526 q 146 525 144 525 q 149 524 149 524 q 152 523 151 524 l 153 523 q 156 516 156 522 l 155 511 q 155 509 155 510 q 155 507 155 508 l 155 507 l 154 506 q 153 504 153 505 q 151 500 153 503 q 149 494 150 498 q 145 486 146 489 q 143 480 144 483 q 141 477 142 479 l 141 475 l 140 473 l 140 473 q 139 473 140 473 q 139 473 139 473 q 138 473 138 473 q 138 472 138 473 l 137 472 q 135 471 136 471 l 134 471 q 133 471 134 471 q 133 470 133 471 q 132 469 132 469 q 128 471 130 469 z "},";":{"ha":248,"x_min":68,"x_max":180,"o":"m 94 119 l 93 119 q 90 120 92 120 q 85 121 87 120 q 84 122 85 122 q 83 122 83 122 q 81 123 82 122 q 79 124 80 123 q 78 125 79 125 q 75 126 77 126 q 73 128 73 127 q 72 130 72 129 l 70 132 l 69 133 q 69 134 69 134 q 68 135 69 135 l 68 135 q 68 136 68 136 q 69 138 68 137 l 69 139 q 70 143 69 141 q 71 147 70 144 q 75 155 73 150 q 79 168 76 160 q 123 264 99 214 q 135 287 131 279 q 143 298 140 295 q 149 304 146 302 q 152 304 151 304 q 154 302 153 304 l 155 302 q 156 302 155 302 l 159 300 q 161 298 159 298 q 165 296 163 297 q 170 296 168 296 q 176 295 173 296 q 179 294 178 294 q 180 289 180 292 q 180 283 180 286 q 179 280 180 281 l 179 277 l 178 277 l 178 277 l 177 277 q 177 274 177 275 q 177 273 177 273 q 176 270 176 272 q 160 241 172 264 q 137 190 149 218 q 117 144 124 163 q 109 127 113 134 q 104 121 106 121 l 104 121 q 104 121 104 121 q 100 119 102 120 q 96 119 98 119 q 94 119 95 119 m 128 471 l 124 471 q 122 471 123 471 q 121 471 121 471 q 119 473 120 472 q 116 473 117 473 q 115 473 115 473 q 114 473 115 473 q 114 474 114 473 l 113 474 q 113 475 113 475 q 111 475 112 475 q 107 476 109 475 q 106 477 106 477 q 105 479 106 478 q 104 480 105 479 q 103 481 104 480 q 102 482 102 481 q 102 484 102 483 q 101 484 102 484 l 100 484 l 101 485 q 102 486 102 485 q 102 490 102 488 q 105 504 102 495 q 112 519 109 512 q 117 526 115 526 q 118 527 118 526 q 119 528 119 528 l 121 530 q 124 532 122 531 q 128 534 127 533 q 132 533 130 534 q 134 531 133 533 l 136 529 q 138 526 138 527 q 140 526 138 526 q 143 525 141 526 q 146 525 144 525 q 149 524 149 524 q 152 523 151 524 l 153 523 q 156 516 156 522 l 155 511 q 155 509 155 510 q 155 507 155 508 l 155 507 l 154 506 q 153 504 153 505 q 151 500 153 503 q 149 494 150 498 q 145 486 146 489 q 143 480 144 483 q 141 477 142 479 l 141 475 l 140 473 l 140 473 q 139 473 140 473 q 139 473 139 473 q 138 473 138 473 q 138 472 138 473 l 137 472 q 135 471 136 471 l 134 471 q 133 471 134 471 q 133 470 133 471 q 132 469 132 469 q 128 471 130 469 z "},"<":{"ha":353,"x_min":68,"x_max":286,"o":"m 217 193 q 214 196 216 194 q 208 202 211 199 q 202 209 205 205 l 192 223 q 189 227 190 227 q 188 228 189 227 q 185 232 186 230 q 180 239 184 235 q 173 248 176 244 q 170 253 170 252 q 168 256 169 254 q 164 260 166 258 q 157 270 162 264 q 151 280 154 275 q 145 288 148 283 q 136 301 140 296 q 131 309 134 304 q 127 315 128 313 q 122 321 125 317 q 117 329 119 326 q 109 339 113 334 q 98 353 105 345 q 95 359 97 356 q 91 365 93 363 q 82 377 87 371 q 75 385 77 383 q 71 391 73 387 q 69 399 69 395 q 69 401 69 400 q 68 403 68 403 l 68 406 q 69 409 68 408 q 71 411 70 411 q 72 411 71 411 q 73 412 73 412 q 78 420 73 414 q 92 435 84 427 q 102 445 95 438 q 115 458 109 452 q 143 488 122 467 q 189 534 164 509 l 196 541 q 230 575 218 563 q 248 591 242 587 q 255 596 253 595 l 261 600 l 267 594 q 272 588 269 591 q 279 581 276 585 q 282 577 281 578 q 286 572 286 574 q 282 569 284 572 q 281 566 281 567 q 279 563 281 565 q 274 559 277 561 q 266 550 270 555 q 259 543 262 546 q 256 538 256 539 l 251 534 q 228 512 245 529 q 189 474 211 495 q 150 433 168 452 q 136 419 142 425 q 127 410 131 414 q 122 404 124 406 q 120 401 121 402 l 119 400 q 122 396 119 399 q 127 388 124 393 q 134 379 130 383 q 135 377 134 378 q 138 373 136 375 q 140 370 139 372 l 142 367 q 145 363 144 363 l 146 362 q 147 360 146 361 q 149 357 148 359 q 153 351 153 353 q 155 349 153 351 q 158 345 157 347 q 164 336 161 341 l 172 324 q 180 314 176 319 q 186 304 184 308 q 191 296 189 300 q 196 290 194 292 q 199 286 197 288 q 205 277 203 281 q 209 272 208 274 q 212 269 211 269 q 214 265 212 268 l 216 262 q 219 259 218 260 q 220 257 220 258 l 222 256 q 224 252 222 254 q 227 248 225 250 q 229 245 228 246 q 230 244 229 245 q 232 241 231 243 l 234 238 q 241 229 237 234 q 249 220 245 223 q 250 218 250 219 l 249 218 q 248 218 248 218 q 248 217 248 218 l 248 216 q 247 214 248 214 l 247 212 q 246 211 246 212 q 245 209 246 210 q 243 206 245 208 q 240 203 241 204 q 238 201 239 201 q 237 201 237 201 l 235 199 q 235 197 235 198 q 233 197 234 197 q 232 197 232 197 q 231 196 231 197 q 231 195 231 195 q 229 194 230 194 q 225 194 228 194 q 220 193 223 193 q 217 193 218 193 z "},"=":{"ha":469,"x_min":68,"x_max":401,"o":"m 78 444 q 70 467 73 447 q 68 475 68 472 q 68 479 68 477 q 68 481 68 480 q 70 482 68 481 q 78 485 72 484 q 98 487 84 486 q 138 490 113 488 q 231 492 174 491 q 334 494 287 494 q 389 493 380 494 q 397 487 397 491 q 398 486 397 486 l 399 485 q 400 482 400 485 q 401 477 401 479 q 400 472 401 475 q 400 463 400 467 q 398 458 399 458 q 397 457 397 457 q 397 456 397 456 q 396 454 396 455 q 395 453 395 454 q 392 452 393 452 q 389 451 391 452 q 382 451 387 451 q 369 451 377 451 q 257 450 298 450 q 190 448 216 449 q 137 446 163 448 q 106 445 120 446 q 84 443 92 444 q 78 444 79 443 m 78 300 q 70 324 73 303 q 68 332 68 330 q 68 336 68 334 l 68 337 q 70 339 68 338 q 78 341 72 340 q 98 343 84 342 q 138 346 113 345 q 231 349 174 348 q 334 351 287 351 q 389 350 380 351 q 398 344 398 348 q 399 342 398 343 l 399 342 q 400 339 400 342 q 401 334 401 336 q 400 329 401 332 q 400 320 400 324 q 398 315 399 315 q 397 314 397 314 q 397 313 397 313 q 395 309 397 311 q 392 309 393 309 q 389 308 391 309 q 382 308 387 308 q 369 308 377 308 q 257 307 298 307 q 190 305 216 306 q 137 303 163 304 q 106 301 120 302 q 84 300 92 300 q 78 300 79 300 z "},">":{"ha":354,"x_min":68,"x_max":287,"o":"m 137 600 q 143 594 139 599 q 151 584 148 589 l 153 582 q 165 566 165 568 q 168 562 165 566 l 170 561 q 174 553 171 558 q 181 545 178 549 q 184 540 184 541 q 186 537 184 539 q 190 532 188 535 q 196 524 192 529 q 203 513 199 518 q 212 500 208 507 l 218 492 q 221 487 220 490 q 227 478 224 481 q 232 472 229 475 q 237 464 235 468 l 244 454 q 255 439 248 449 l 258 435 q 264 428 260 431 q 272 416 267 422 q 279 408 277 410 q 282 401 281 406 q 284 395 284 397 q 285 391 284 393 q 286 390 286 390 l 287 389 l 286 387 q 285 384 286 386 q 283 382 284 382 q 282 382 282 382 q 282 380 282 381 q 276 373 282 380 q 262 358 270 366 q 254 350 260 355 q 239 334 247 342 q 211 305 233 326 q 165 258 190 283 q 156 250 160 254 q 123 217 134 229 q 106 201 111 206 q 99 196 101 197 l 93 193 l 88 199 q 82 204 85 201 q 75 212 78 208 q 68 220 68 219 l 68 220 q 72 223 71 221 q 73 227 73 226 q 75 230 73 228 q 79 235 77 232 q 88 242 83 238 q 95 250 92 247 q 98 254 98 254 l 99 255 q 101 257 100 256 q 102 259 102 258 q 126 281 109 264 q 165 319 143 298 q 205 359 186 341 q 214 369 210 365 q 225 381 220 376 q 231 388 229 385 q 234 392 233 391 q 235 393 235 393 q 230 401 234 395 q 220 414 226 407 q 218 416 220 415 q 216 420 217 418 q 214 423 214 422 q 211 428 212 426 l 210 430 q 208 432 209 430 q 205 435 206 434 q 202 439 203 438 l 201 441 q 199 444 200 441 q 195 449 197 446 q 194 452 195 450 q 182 469 189 460 q 174 479 178 473 q 168 489 170 485 q 162 496 165 492 q 157 503 159 500 q 154 509 156 505 q 149 516 151 513 q 144 522 146 519 l 143 524 q 141 527 142 525 q 138 531 140 528 q 135 534 136 532 q 134 536 134 536 q 131 540 134 536 q 130 542 130 541 q 127 545 129 543 q 125 548 125 547 l 125 549 q 122 552 123 550 q 120 555 121 553 q 112 564 117 559 q 105 573 108 570 q 105 574 105 574 q 106 575 105 575 l 106 576 l 106 576 l 106 576 q 106 578 106 577 q 106 579 106 578 q 107 581 107 580 q 107 582 107 581 q 108 584 107 583 q 111 587 109 585 q 114 591 113 589 q 117 592 116 592 q 118 592 117 592 q 118 593 118 593 q 118 594 118 593 q 119 595 119 594 q 120 596 119 595 q 121 596 120 596 q 122 596 122 596 q 123 597 123 597 l 123 598 q 124 599 124 598 q 129 599 126 599 q 133 600 131 600 q 137 600 136 600 z "},"?":{"ha":647,"x_min":68,"x_max":579,"o":"m 322 138 q 320 139 321 138 l 318 139 q 313 141 316 139 q 308 147 311 144 q 303 153 304 150 q 299 173 299 159 q 300 190 299 180 q 317 256 304 210 q 347 350 330 302 q 414 524 372 423 q 446 600 435 572 q 463 641 457 627 q 473 665 469 654 q 536 896 536 817 q 463 1002 536 981 q 460 1002 461 1002 q 452 1004 456 1003 q 444 1005 449 1004 q 429 1005 439 1005 q 413 1005 418 1005 q 404 1004 408 1004 q 395 1002 399 1003 q 392 1002 393 1002 q 256 933 322 987 q 223 903 242 922 q 192 869 203 884 q 111 691 124 783 q 110 666 110 680 q 111 642 110 652 q 130 588 116 612 q 142 571 134 580 q 157 558 151 563 q 166 553 161 555 q 176 549 172 551 q 183 547 181 547 q 186 543 185 547 q 188 539 187 541 q 192 537 189 538 q 197 532 197 536 q 196 526 197 529 l 196 521 q 197 520 197 521 l 196 519 q 194 518 195 519 q 193 517 193 517 q 191 517 192 517 q 191 516 191 517 q 189 515 191 515 q 186 515 188 515 q 183 514 184 515 l 182 513 q 182 511 182 513 q 181 509 181 510 q 178 507 180 507 q 174 506 177 506 q 149 514 165 506 q 123 531 134 522 q 119 534 121 532 q 117 535 118 535 q 114 538 117 535 q 108 545 111 541 q 102 553 104 549 q 69 630 79 582 q 68 646 68 636 q 68 663 68 656 l 68 676 q 68 697 68 690 q 189 931 87 825 q 204 946 197 939 q 225 964 212 953 q 230 968 226 964 q 239 975 234 971 q 279 1002 260 991 q 324 1025 298 1013 q 342 1032 331 1028 q 360 1038 353 1036 q 366 1040 364 1039 q 369 1040 368 1040 l 373 1041 q 384 1044 378 1042 q 393 1045 391 1045 q 398 1046 395 1046 q 404 1046 401 1046 q 415 1047 408 1047 q 429 1048 422 1048 q 507 1030 473 1048 q 562 975 543 1011 q 569 959 566 968 q 574 943 572 949 q 574 942 574 943 q 575 940 574 941 q 578 912 578 928 q 579 888 579 897 q 578 865 579 876 q 551 752 573 818 q 479 568 529 686 q 467 538 473 552 q 429 445 443 480 q 403 378 414 410 q 368 278 384 328 q 346 197 353 228 q 343 171 343 181 l 343 168 q 344 165 344 167 q 343 163 344 165 q 342 156 342 159 q 340 153 341 153 l 340 153 l 340 153 q 339 150 340 151 q 338 148 338 149 q 337 147 338 147 q 336 146 336 146 q 336 144 336 145 q 335 142 336 143 q 332 140 334 141 q 331 140 332 140 l 330 139 q 329 138 330 138 q 326 138 327 138 l 322 138 m 316 -75 l 313 -75 q 311 -75 312 -75 q 309 -75 310 -75 q 307 -74 308 -74 q 304 -73 305 -73 q 303 -73 303 -73 q 302 -72 302 -73 q 302 -71 302 -72 q 300 -71 301 -71 q 299 -71 300 -71 q 295 -70 297 -71 q 294 -68 294 -68 l 294 -67 l 292 -66 q 291 -65 292 -66 q 291 -65 291 -65 q 291 -64 291 -64 q 290 -63 291 -63 q 289 -62 290 -62 l 289 -62 q 290 -61 290 -62 q 291 -58 290 -60 q 291 -56 291 -57 q 294 -43 291 -51 q 300 -27 297 -35 q 305 -20 303 -20 q 307 -19 306 -19 l 307 -18 q 309 -17 307 -18 q 313 -14 311 -16 q 316 -13 315 -13 l 318 -12 l 319 -13 q 322 -15 321 -14 q 325 -18 323 -16 q 326 -20 326 -19 q 328 -20 326 -20 q 331 -21 329 -20 q 336 -22 333 -21 l 337 -22 q 339 -23 338 -22 q 341 -24 340 -24 q 343 -26 342 -24 q 344 -31 344 -28 l 343 -35 q 342 -38 342 -37 l 342 -40 q 341 -42 342 -41 q 339 -45 340 -43 q 336 -52 338 -48 q 333 -61 334 -58 q 330 -69 331 -65 q 329 -72 329 -71 q 329 -73 329 -73 l 327 -73 q 326 -73 326 -73 q 326 -74 326 -73 l 325 -75 l 324 -75 q 322 -75 323 -75 l 321 -75 q 319 -77 321 -77 q 316 -75 319 -77 z "},"@":{"ha":753,"x_min":-24,"x_max":659,"o":"m 222 9 q 125 34 165 14 q 39 109 74 59 q 32 117 35 113 q 28 123 29 121 q 28 125 28 124 q 26 126 27 126 q 24 131 26 127 q 18 142 22 136 q -10 216 0 176 q -16 242 -13 227 q -20 266 -19 256 q -23 289 -22 280 q -24 309 -24 298 q -24 339 -24 319 q -23 382 -24 368 q -20 412 -23 396 q -19 420 -20 416 q -18 424 -18 423 q -18 427 -18 425 q -17 431 -18 429 q -12 453 -16 439 q -6 477 -9 468 q 37 575 9 530 q 127 682 71 633 q 279 765 197 740 q 373 779 327 779 q 497 753 437 779 q 508 748 503 751 l 516 744 q 520 742 518 743 q 524 740 523 741 q 527 738 526 739 q 531 735 528 737 q 541 730 534 734 q 608 665 582 702 q 610 661 608 664 q 614 656 612 659 q 639 604 627 635 q 654 545 650 574 q 654 541 654 545 q 656 534 655 538 q 657 519 656 529 q 658 502 658 509 q 659 491 659 494 q 658 486 659 488 l 658 480 q 657 467 657 473 q 656 454 657 459 l 656 450 q 655 445 656 448 q 654 438 654 441 q 653 427 654 433 q 652 420 652 422 q 650 413 651 416 q 649 409 650 410 q 645 389 648 401 q 638 367 642 377 q 583 268 618 307 q 515 224 553 235 q 497 221 505 222 q 485 221 489 221 q 471 222 477 221 q 462 224 467 223 q 453 227 457 226 q 448 229 449 228 l 447 229 q 445 230 446 229 q 444 231 444 230 q 437 234 441 231 q 429 239 433 236 q 422 243 425 241 l 420 245 q 410 254 414 251 q 404 260 406 258 q 392 276 392 274 l 392 277 l 391 277 q 387 283 390 277 q 380 297 384 289 q 372 317 376 304 q 366 339 368 330 q 365 342 366 340 q 365 346 365 344 q 361 367 363 353 q 358 391 359 381 l 358 404 q 357 407 357 406 q 357 410 357 410 q 355 408 357 410 q 351 399 355 408 q 340 378 347 390 q 283 280 310 315 q 268 262 277 273 q 252 247 258 252 q 206 227 229 227 q 185 231 192 227 q 182 232 183 231 l 180 232 q 174 236 178 233 q 165 242 170 239 q 136 306 143 264 q 135 333 135 317 q 136 361 135 349 q 144 401 139 380 q 155 435 149 422 l 157 441 q 159 447 158 444 q 175 478 165 460 q 193 505 186 496 q 196 509 194 507 q 201 515 199 511 q 219 533 209 524 q 241 548 230 542 q 296 565 269 564 l 301 565 q 360 541 336 565 l 369 532 l 370 536 q 374 551 371 543 q 378 564 376 559 q 405 583 388 582 q 412 582 410 583 q 414 577 414 581 l 414 576 q 415 574 414 574 q 418 573 416 573 q 421 573 419 573 q 424 572 423 572 q 427 570 426 571 q 428 568 428 570 q 428 564 428 567 q 428 559 428 561 q 427 557 427 557 l 426 557 q 427 556 426 556 l 427 554 l 426 555 l 425 555 l 425 553 q 425 552 425 553 q 423 551 424 551 q 413 529 418 551 q 403 468 407 506 q 401 425 401 451 q 401 385 401 399 q 441 284 409 312 q 454 274 448 277 q 468 267 460 270 q 474 265 471 266 q 479 264 476 264 q 488 264 483 264 q 497 264 494 264 q 503 265 500 264 q 509 267 505 266 q 574 327 547 281 q 612 439 601 374 q 615 490 615 465 q 547 670 615 601 q 382 735 482 729 l 376 735 q 131 627 242 735 q 20 385 35 528 q 18 342 18 368 q 20 301 18 317 q 97 106 31 171 q 225 53 144 57 q 248 52 237 52 q 295 58 273 52 q 332 75 314 64 q 338 80 335 78 l 340 81 q 344 83 341 81 q 346 84 345 84 q 347 84 347 85 l 347 84 l 347 85 q 349 86 348 86 l 349 86 q 350 85 349 85 q 351 85 350 85 q 352 85 351 85 q 354 84 353 85 l 355 84 l 355 83 l 355 83 q 358 81 356 83 q 363 77 361 79 q 367 72 366 74 q 369 68 369 69 l 369 68 q 369 67 369 67 q 370 66 370 66 q 371 63 371 64 q 372 58 372 61 q 371 53 372 54 q 368 50 371 52 q 352 38 363 45 q 332 26 341 31 q 322 22 328 24 q 312 18 316 20 q 307 17 309 17 l 307 17 q 303 16 305 17 q 273 10 290 12 q 244 9 256 9 q 222 9 233 9 m 215 274 q 264 330 237 284 q 336 474 309 399 q 340 486 338 481 q 341 490 341 489 q 342 491 342 490 q 340 495 342 492 q 336 504 339 499 q 329 511 332 508 q 302 522 319 522 l 298 522 q 239 492 269 522 q 208 447 220 473 q 181 368 188 411 q 178 341 178 353 q 178 326 178 330 q 180 306 178 313 q 198 271 186 278 q 203 270 200 270 q 215 274 208 270 z "},"A":{"ha":782,"x_min":-24,"x_max":714,"o":"m 45 -102 q 42 -102 43 -102 q 41 -101 41 -102 q 40 -100 41 -100 q 39 -100 39 -100 l 38 -100 l 38 -98 q 38 -97 38 -97 q 37 -96 37 -96 q 35 -95 36 -96 q 32 -93 33 -94 q 30 -91 31 -92 q 28 -85 29 -89 l 28 -84 q 27 -79 27 -81 q 27 -75 27 -77 q 28 -66 27 -72 q 36 -20 28 -58 q 53 66 43 18 q 70 146 63 113 q 119 361 92 248 q 163 539 146 475 q 163 541 163 541 q 161 541 163 541 q 144 538 159 541 q 108 534 129 536 q 66 528 87 530 q 33 524 45 525 q -8 519 5 519 q -19 521 -16 519 l -24 522 l -24 527 q -22 539 -23 532 q -21 552 -22 547 q -19 558 -20 557 q -17 560 -18 559 q -12 561 -16 560 q -2 562 -9 562 q 24 565 6 563 q 61 571 41 568 q 110 577 84 574 q 142 582 129 580 q 165 585 155 583 q 176 587 174 587 q 179 599 177 589 q 222 743 197 665 q 271 882 248 821 q 350 1046 315 999 q 366 1063 357 1056 q 380 1072 374 1070 l 381 1073 q 382 1073 382 1073 q 384 1074 383 1074 q 392 1076 388 1076 q 397 1076 395 1076 q 405 1076 401 1076 q 471 981 445 1072 q 493 877 481 941 q 522 688 505 812 q 528 648 526 665 l 531 632 l 536 633 q 547 633 540 633 q 573 636 553 634 q 616 642 593 638 q 660 646 641 644 q 684 649 679 648 q 699 650 694 650 q 705 649 705 650 l 705 648 l 706 648 q 707 648 707 648 q 708 646 708 647 q 709 645 709 646 l 709 644 l 710 644 q 711 644 711 644 q 712 640 712 642 q 712 638 712 639 q 713 637 712 637 q 713 636 713 637 q 713 633 713 635 l 713 629 q 714 628 714 629 q 714 624 714 626 q 714 619 714 621 q 713 616 713 617 q 712 615 712 616 q 712 614 712 615 q 712 613 713 613 q 711 612 712 612 l 711 612 l 711 611 q 703 608 711 610 q 684 605 696 607 q 656 602 675 604 q 627 599 642 600 q 543 589 557 591 l 538 589 l 538 587 q 538 579 538 585 q 541 565 539 574 q 544 542 542 556 q 551 494 547 524 q 625 43 595 206 q 634 -3 631 14 q 642 -35 638 -20 q 645 -46 644 -41 q 647 -53 646 -52 q 647 -54 647 -54 q 647 -56 647 -55 q 648 -56 647 -56 q 648 -57 648 -57 q 647 -58 648 -58 q 646 -59 646 -58 q 647 -61 646 -60 l 648 -62 l 647 -62 l 646 -62 l 646 -63 q 646 -64 646 -64 q 644 -64 645 -64 l 644 -65 q 643 -66 643 -66 q 642 -68 643 -67 q 640 -68 641 -68 q 638 -69 639 -69 q 636 -70 637 -70 q 635 -71 635 -71 q 633 -72 634 -72 q 632 -72 633 -72 l 631 -72 q 630 -72 630 -72 q 629 -73 629 -72 q 626 -74 629 -73 q 622 -74 624 -74 q 617 -74 619 -74 q 615 -73 615 -74 q 614 -73 615 -73 q 613 -73 614 -73 q 612 -73 612 -73 q 611 -73 611 -73 q 611 -72 611 -72 q 610 -71 610 -71 l 608 -71 l 608 -68 q 605 -60 607 -67 q 600 -43 602 -52 q 597 -29 597 -35 q 595 -23 596 -28 q 593 -12 594 -18 q 555 198 580 49 q 503 525 530 347 q 496 566 499 549 l 494 583 q 449 578 491 583 q 352 566 407 573 q 255 553 297 559 q 210 547 213 548 l 205 528 q 193 483 200 509 q 181 434 186 457 q 91 35 130 229 q 83 -7 86 10 q 77 -37 79 -25 q 73 -55 75 -48 q 71 -66 72 -62 q 71 -72 71 -70 q 71 -74 71 -73 q 73 -82 73 -77 q 71 -89 73 -86 l 70 -90 l 69 -92 q 69 -93 69 -92 q 68 -93 68 -93 q 66 -93 67 -93 q 64 -94 65 -94 q 64 -95 64 -95 q 62 -96 63 -96 q 60 -97 61 -96 q 58 -100 59 -98 q 57 -102 58 -102 q 55 -103 56 -103 q 52 -104 54 -104 q 48 -103 51 -104 q 45 -102 46 -103 m 262 598 l 300 603 q 382 613 340 608 q 450 622 425 618 q 476 625 465 624 l 487 627 q 484 655 487 628 q 474 720 480 682 q 463 796 469 759 q 454 855 457 833 q 403 1030 428 1001 l 398 1034 l 395 1032 q 366 992 385 1025 q 327 908 347 958 q 258 713 295 827 q 243 663 251 690 q 230 616 235 636 q 224 594 224 595 q 224 593 224 593 q 226 593 225 593 l 227 593 q 234 594 228 593 q 249 596 240 595 q 262 598 255 597 z "},"B":{"ha":938,"x_min":-24,"x_max":816,"o":"m 291 -127 q 312 -127 301 -127 q 406 -116 357 -127 q 696 58 557 -76 q 715 77 707 68 q 734 98 723 85 q 771 147 753 120 q 796 193 788 174 q 798 198 797 195 q 800 202 799 201 q 804 212 802 205 q 808 225 806 219 q 810 234 810 232 q 811 238 811 235 q 812 243 812 240 q 816 276 816 259 q 815 295 816 281 q 808 327 814 309 q 736 408 790 377 q 695 426 718 418 q 653 437 673 435 q 648 439 651 438 q 644 439 646 439 q 639 440 642 440 q 635 441 636 441 q 629 441 633 441 q 622 442 625 442 q 567 446 595 446 q 493 440 532 446 q 489 439 491 439 q 483 438 486 439 q 479 437 480 438 q 468 436 475 437 q 454 433 460 435 q 446 431 447 432 q 447 433 446 432 q 450 437 448 434 q 454 441 452 439 q 497 483 471 456 q 538 527 523 510 q 758 869 718 724 q 762 891 761 883 q 766 911 764 899 q 766 925 766 918 q 766 946 766 932 q 763 971 766 960 q 702 1063 750 1030 q 694 1068 697 1067 q 689 1072 692 1070 q 682 1075 687 1073 q 657 1085 671 1080 q 634 1093 643 1090 q 624 1095 631 1093 q 618 1096 621 1095 q 610 1097 614 1097 q 607 1098 609 1097 q 604 1098 606 1098 l 603 1098 q 597 1098 602 1098 q 586 1099 592 1099 q 572 1100 578 1099 q 565 1101 566 1101 q 379 1061 474 1098 q 117 888 229 1002 q 2 722 41 811 q -13 683 -6 705 q -22 638 -19 660 q -23 625 -23 634 q -24 608 -24 616 q -22 594 -24 598 q -14 556 -20 570 q -6 539 -9 545 q 3 526 -2 532 q 56 489 24 499 q 66 487 60 488 q 78 485 73 486 l 87 485 q 89 486 88 485 q 91 492 90 488 q 92 507 91 497 l 92 508 q 92 522 92 517 q 90 527 92 526 q 83 528 87 528 l 82 528 q 42 546 58 530 q 19 606 21 568 l 19 613 q 28 670 19 640 q 135 844 56 760 q 323 988 214 929 q 527 1055 427 1043 q 564 1057 542 1057 q 597 1055 585 1057 q 662 1037 635 1050 q 677 1027 671 1032 q 692 1017 684 1023 q 723 946 720 989 q 724 935 724 941 q 700 831 724 890 q 384 435 614 642 q 360 415 368 422 q 347 405 351 408 q 340 401 343 401 l 335 398 l 336 423 q 344 580 338 496 q 357 730 350 665 q 359 746 359 741 q 361 753 360 751 q 366 757 363 755 q 368 766 368 760 q 366 778 368 772 q 363 782 365 780 q 359 786 361 785 q 357 788 357 788 l 357 789 l 356 789 l 356 789 l 355 790 q 351 790 353 790 q 347 789 349 790 q 345 788 345 789 q 343 788 344 788 q 340 789 342 789 q 336 791 338 791 q 332 789 334 791 q 326 783 329 787 q 323 778 323 780 q 316 743 319 771 q 307 654 312 715 q 296 512 300 585 q 292 397 292 439 l 292 378 l 284 374 q 273 368 279 371 q 258 358 268 365 q 230 337 242 347 q 214 319 218 326 q 210 310 211 315 q 208 301 208 305 q 210 298 208 298 q 212 296 212 298 q 213 293 213 295 q 212 292 212 292 q 212 291 212 292 q 213 291 212 291 l 214 290 l 214 289 l 218 284 q 231 281 224 281 q 246 283 236 281 q 281 301 256 286 l 292 309 l 292 277 q 297 198 295 227 q 298 188 298 193 q 298 180 298 183 q 303 140 300 160 q 309 109 307 121 q 311 105 310 107 q 311 102 311 102 q 314 92 312 97 q 319 82 317 86 q 322 79 321 79 l 322 77 q 322 76 322 76 q 323 76 323 76 l 324 77 q 325 76 325 77 q 326 75 325 75 q 328 75 326 75 q 328 76 328 76 q 329 76 329 76 q 330 75 330 75 l 332 75 q 334 76 332 75 q 337 77 335 77 q 339 78 338 78 q 341 78 340 78 q 342 79 342 79 l 342 80 l 345 80 q 346 81 345 80 q 348 82 347 81 q 350 84 349 83 q 353 85 351 85 q 355 87 355 87 q 355 90 355 89 q 356 90 355 90 q 357 91 357 91 q 357 92 357 92 l 357 93 q 357 94 357 94 q 358 94 357 94 l 357 98 q 355 105 357 100 q 335 317 339 149 l 334 338 l 351 352 l 368 365 l 384 370 q 511 399 446 391 q 571 402 543 402 q 745 349 686 402 q 771 303 763 330 q 773 279 773 294 q 771 253 773 264 q 718 145 759 200 q 463 -52 616 20 q 350 -82 406 -75 q 309 -85 328 -85 q 225 -59 249 -85 q 217 -48 220 -54 q 214 -33 215 -42 q 212 -25 212 -28 q 211 -21 212 -22 q 211 -20 211 -20 q 210 -18 210 -19 q 209 -16 209 -17 l 208 -14 l 204 -14 l 204 -14 q 202 -12 204 -12 q 194 -13 200 -12 q 184 -14 188 -13 l 183 -14 q 181 -14 182 -14 q 179 -15 180 -15 q 177 -16 178 -15 q 176 -17 176 -16 q 174 -18 175 -18 q 173 -18 174 -18 q 172 -19 172 -18 q 172 -20 172 -19 q 172 -21 172 -20 q 171 -22 172 -22 q 170 -26 170 -22 q 171 -37 170 -31 q 172 -47 171 -43 q 213 -104 181 -85 q 232 -114 223 -111 q 251 -121 240 -118 q 269 -124 258 -123 q 291 -127 280 -126 z "},"C":{"ha":651,"x_min":-24,"x_max":651,"o":"m 323 -79 l 330 -79 q 346 -79 335 -79 q 372 -78 357 -79 q 394 -77 387 -77 q 529 -42 466 -67 q 540 -38 536 -40 q 548 -35 544 -37 q 557 -31 551 -33 q 566 -27 560 -29 q 636 20 606 -7 l 642 26 q 647 32 645 29 q 650 35 650 35 q 650 36 650 36 q 651 36 650 36 l 651 45 l 650 46 q 648 47 650 47 q 647 50 648 49 q 646 51 646 50 q 644 54 646 52 q 643 56 643 55 l 642 56 l 642 58 q 641 58 642 58 q 640 59 640 59 q 639 60 640 60 l 638 60 q 636 62 637 60 q 631 64 633 64 q 630 65 631 64 q 628 66 629 66 l 628 66 l 627 65 l 626 65 q 625 66 625 65 l 625 66 l 625 66 l 625 66 l 621 64 q 616 60 619 63 q 608 54 612 58 q 547 12 582 29 q 429 -27 492 -15 q 347 -36 385 -36 q 316 -35 331 -36 q 178 25 241 -25 q 152 50 168 34 q 126 78 136 66 q 50 222 77 138 q 20 425 20 318 q 30 554 20 488 q 210 938 75 795 q 302 1000 255 983 q 347 1008 326 1008 q 369 1006 358 1008 q 456 822 448 987 q 456 793 456 808 q 452 706 456 758 q 438 597 448 654 q 427 543 434 576 q 412 482 419 511 q 401 443 406 454 q 401 435 401 438 q 401 429 401 431 q 401 428 401 428 q 402 427 401 427 l 402 427 q 404 426 403 427 q 408 423 406 425 q 412 421 409 422 q 422 421 414 421 q 435 422 431 421 q 440 423 439 422 q 442 427 441 424 q 446 440 444 431 q 452 468 448 450 q 479 583 469 529 q 499 795 499 694 l 499 808 q 498 831 499 817 q 496 857 497 846 q 495 869 496 867 l 495 870 q 494 876 494 873 q 466 976 488 933 q 347 1051 424 1051 q 316 1048 332 1051 q 310 1047 313 1048 q 305 1046 307 1046 q 278 1036 296 1044 q 246 1021 260 1029 q 238 1016 242 1019 q 231 1011 234 1013 q 228 1008 228 1009 q 227 1008 228 1008 l 227 1008 q 211 997 225 1008 q 133 913 171 964 q -16 533 15 753 q -19 517 -18 524 q -20 507 -20 509 q -20 500 -20 504 q -21 495 -20 497 q -24 426 -24 469 q -22 363 -24 384 q -21 357 -22 360 q -20 347 -20 351 q 63 92 -4 199 l 70 81 q 73 77 73 77 q 75 74 73 76 q 79 68 77 71 q 105 36 90 52 q 133 7 119 20 q 142 0 138 3 q 146 -4 146 -3 q 150 -7 148 -6 l 151 -9 q 161 -16 154 -11 q 175 -26 168 -20 q 189 -35 183 -31 q 310 -77 249 -70 q 318 -78 314 -77 q 323 -79 321 -78 z "},"D":{"ha":1018,"x_min":-24,"x_max":882,"o":"m 313 55 l 316 55 q 322 55 319 55 q 329 56 326 56 q 332 58 332 57 q 333 58 332 58 q 335 58 334 58 q 338 60 336 58 q 342 63 340 61 q 344 65 344 64 q 345 66 344 66 l 345 67 l 345 67 l 345 68 l 345 69 q 346 70 345 70 q 346 71 346 70 q 345 71 345 71 q 345 73 345 72 q 344 75 345 74 q 343 81 344 76 q 342 92 342 85 q 326 343 332 162 q 326 438 326 371 q 326 574 326 505 q 327 675 326 642 q 329 724 328 704 q 330 756 330 744 q 331 775 330 769 q 332 784 332 782 q 334 787 333 787 q 335 787 334 787 q 335 788 335 787 q 336 791 336 789 q 336 796 336 793 q 335 802 336 800 q 334 804 335 804 q 333 805 334 804 q 333 806 333 806 l 332 806 q 332 807 332 807 q 331 808 332 808 q 330 809 330 808 l 330 810 l 330 811 l 329 811 l 329 812 q 328 811 328 811 q 327 812 327 811 l 327 812 q 326 813 327 813 l 326 812 q 323 812 324 812 q 322 813 323 812 l 322 814 l 320 814 q 318 814 319 814 q 317 815 317 815 q 311 818 315 818 q 305 817 309 818 l 302 815 l 300 814 q 300 813 300 814 q 299 812 300 812 q 298 812 299 812 q 298 811 298 812 q 298 809 298 810 l 298 808 l 297 808 q 293 807 294 808 q 292 804 292 807 q 288 781 289 800 q 286 711 287 761 q 283 491 283 617 l 283 414 q 283 304 283 344 q 298 95 291 152 q 298 87 298 91 q 300 82 299 84 l 300 79 q 300 78 300 79 l 300 74 q 302 71 301 73 q 303 66 302 68 q 304 63 304 64 l 304 62 q 304 62 304 62 q 304 61 304 61 q 304 60 304 60 q 305 60 305 60 q 305 59 305 60 q 306 58 305 58 l 308 58 l 308 58 q 308 57 308 57 q 310 56 309 56 q 311 56 311 56 q 312 56 311 56 q 313 55 313 56 m 265 -111 q 290 -111 278 -111 q 360 -104 326 -111 q 563 -3 463 -81 q 741 195 663 75 q 752 211 747 203 q 761 226 757 220 q 764 233 764 232 l 765 234 q 766 235 766 235 q 784 268 772 243 q 806 312 797 292 q 879 558 865 437 q 882 592 881 577 q 882 628 882 607 q 864 769 882 709 q 853 803 860 784 q 842 831 846 823 q 840 837 842 832 q 835 847 838 842 q 662 1029 778 964 q 500 1081 589 1070 q 446 1084 473 1084 q 170 1000 301 1084 q 40 873 90 946 q 35 866 37 869 q 33 862 33 863 q 16 832 26 850 q 1 799 7 814 q -23 707 -20 751 q -24 701 -23 704 q -24 694 -24 696 l -24 690 q -24 680 -24 686 q -23 663 -24 673 q -21 648 -22 653 q 20 545 -12 593 q 26 536 24 539 q 30 530 28 533 q 35 524 32 528 q 40 518 37 522 q 56 501 45 511 q 73 486 66 490 q 130 451 98 465 q 132 450 132 450 q 135 449 134 450 q 136 448 136 449 q 143 447 140 448 q 147 446 146 446 q 150 450 148 446 q 155 461 153 455 q 160 473 158 468 q 162 481 162 479 q 162 484 162 483 q 160 485 161 484 q 155 487 159 486 q 68 551 100 509 q 23 648 34 596 q 20 673 20 659 q 19 690 19 682 l 19 696 q 103 885 27 795 q 127 910 113 896 q 152 933 142 924 q 404 1039 262 1023 q 446 1041 422 1041 q 488 1039 470 1041 q 691 959 606 1025 q 836 692 814 859 q 840 631 840 662 q 835 557 840 595 q 734 267 817 412 q 546 38 654 126 q 326 -66 437 -51 q 290 -68 308 -68 q 231 -63 264 -68 q 172 -41 197 -58 q 152 -18 157 -31 q 151 -14 151 -16 q 150 -12 151 -12 q 149 -10 149 -12 q 149 -8 149 -9 q 148 -6 149 -7 q 146 -5 147 -5 l 146 -5 l 146 -4 l 146 -4 q 146 -3 146 -3 q 145 -3 146 -3 q 144 -3 144 -3 q 144 -2 144 -3 q 143 -1 144 -1 q 141 -1 142 -1 q 140 -1 140 -1 q 140 -1 140 -1 q 138 0 140 0 q 133 0 136 0 q 129 -1 131 -1 q 127 -2 127 -1 q 125 -3 126 -2 l 123 -3 q 121 -3 122 -3 q 119 -5 119 -4 q 117 -6 118 -5 q 116 -7 117 -7 l 115 -6 l 115 -7 q 113 -7 113 -7 l 112 -8 q 111 -9 112 -9 q 111 -11 111 -10 q 109 -16 109 -12 q 109 -21 109 -17 q 112 -33 109 -24 q 115 -41 113 -37 q 119 -48 117 -45 q 121 -51 120 -51 l 122 -52 l 122 -52 q 126 -59 122 -54 q 137 -69 131 -64 q 147 -77 142 -74 q 152 -80 149 -78 q 163 -86 157 -83 q 173 -91 168 -89 q 183 -95 179 -94 q 186 -96 186 -96 l 187 -96 q 188 -96 187 -96 q 195 -99 189 -97 q 210 -103 202 -101 q 220 -105 217 -104 q 265 -111 248 -109 z "},"E":{"ha":756,"x_min":-24,"x_max":756,"o":"m 283 -159 q 298 -160 288 -160 q 321 -160 309 -160 q 339 -159 332 -159 q 530 -94 418 -149 q 663 -9 606 -58 q 682 6 677 2 q 685 11 685 9 q 686 12 685 12 q 687 12 686 12 q 688 13 688 12 q 688 13 688 13 q 688 14 688 13 q 686 14 686 14 l 687 15 q 688 16 688 15 q 688 18 688 16 q 687 19 687 18 q 687 20 687 20 q 686 22 687 21 q 685 24 686 23 q 684 26 684 25 q 684 27 684 26 q 683 29 684 28 q 682 31 682 30 q 680 33 680 32 l 679 35 q 675 37 677 36 q 671 41 673 40 q 669 41 670 41 l 668 41 q 667 42 667 41 q 665 43 667 43 q 664 44 665 44 q 662 44 663 44 q 661 43 661 43 l 661 42 l 661 42 q 641 29 657 42 q 601 -3 618 9 q 499 -61 558 -33 q 389 -105 440 -90 q 307 -117 342 -117 q 223 -85 249 -117 q 216 -71 218 -77 q 213 -52 214 -64 q 220 -7 213 -31 q 357 210 250 88 q 397 253 375 230 q 429 284 419 275 q 435 290 432 287 q 440 297 438 294 q 442 300 442 300 q 441 305 442 302 q 437 312 439 308 q 434 319 435 316 q 431 321 432 321 q 431 323 431 322 l 431 324 q 430 326 431 325 q 429 328 430 327 q 427 332 428 329 q 426 334 427 333 q 425 336 425 335 q 423 336 424 336 q 422 337 422 336 q 418 338 421 338 q 415 338 418 338 q 404 336 412 338 q 384 332 399 335 q 351 325 369 328 q 278 310 304 315 q 235 303 252 304 q 196 301 218 301 q 159 303 173 301 q 132 309 146 304 q 22 443 39 336 q 20 484 20 460 q 22 527 20 507 q 243 932 57 740 q 504 1087 373 1062 q 541 1090 519 1090 q 576 1087 561 1090 q 674 1022 640 1076 q 688 998 681 1013 q 699 972 694 984 q 713 868 713 932 q 710 804 713 834 q 698 731 706 774 q 692 701 694 711 l 692 696 q 693 692 692 692 q 694 691 694 692 l 694 689 l 695 689 l 695 688 q 696 687 695 687 q 697 686 696 686 l 699 686 q 700 685 699 685 q 705 684 703 684 q 706 684 705 684 q 707 684 706 684 q 708 684 707 684 l 708 684 l 710 683 q 714 682 711 682 q 717 683 715 682 q 720 683 718 683 l 720 683 q 721 684 720 684 q 722 684 722 684 q 725 684 724 684 q 727 685 726 684 l 731 687 q 734 691 732 688 q 736 697 736 694 q 737 707 736 698 q 741 728 739 715 q 752 796 749 768 q 755 858 755 825 q 756 877 756 868 q 747 956 756 924 q 746 961 747 959 q 744 970 744 968 q 737 991 743 977 q 726 1017 731 1006 q 717 1035 721 1027 q 711 1043 713 1043 l 711 1044 l 711 1044 q 710 1046 711 1045 q 708 1049 709 1048 q 706 1053 707 1051 q 704 1055 705 1054 q 686 1076 699 1063 q 661 1097 672 1089 q 642 1109 653 1103 q 621 1120 630 1116 q 584 1130 607 1125 q 549 1133 570 1132 l 539 1133 q 513 1131 525 1133 l 510 1131 q 498 1129 503 1130 q 491 1128 494 1128 q 481 1126 487 1127 q 323 1055 404 1109 l 315 1050 q 309 1044 309 1046 q 306 1043 308 1044 q 294 1033 301 1040 q 212 962 254 1005 q 128 864 167 917 q 3 631 43 751 q -21 533 -14 581 q -21 528 -21 531 q -22 522 -22 524 q -23 502 -23 515 q -24 475 -24 488 q -23 454 -24 461 q 3 361 -18 399 q 11 348 8 352 q 14 342 13 344 l 15 342 q 15 341 15 341 q 16 340 16 340 q 20 335 16 339 q 28 325 23 330 q 37 315 33 319 q 96 276 60 292 q 116 269 104 272 q 136 264 127 265 q 157 260 150 261 q 172 258 165 258 q 195 258 180 258 q 229 259 216 258 q 257 262 241 260 q 286 267 275 264 q 311 272 296 269 q 336 277 323 274 q 357 282 349 280 q 366 283 363 283 l 363 281 q 357 273 361 277 q 272 174 304 217 q 262 161 266 166 q 260 158 260 159 q 251 145 258 156 q 235 121 243 134 q 223 102 227 109 q 208 73 217 91 q 194 45 198 56 q 185 25 190 37 q 180 8 181 14 q 174 -15 176 -7 q 171 -31 172 -24 q 170 -50 170 -38 q 172 -75 170 -66 q 180 -94 174 -83 q 221 -140 193 -123 q 230 -144 224 -142 q 241 -150 236 -147 q 249 -152 246 -152 q 251 -153 250 -152 q 254 -154 253 -153 q 257 -155 255 -155 q 260 -155 258 -155 q 265 -157 262 -155 q 271 -157 268 -157 q 278 -159 275 -158 q 283 -159 281 -159 z "},"F":{"ha":561,"x_min":-24,"x_max":832,"o":"m 193 -83 l 201 -83 l 203 -82 l 208 -82 q 216 -79 214 -82 q 218 -78 216 -79 q 220 -77 219 -77 q 221 -75 220 -76 l 222 -74 q 221 -73 222 -73 q 221 -72 221 -73 q 222 -72 221 -72 q 222 -70 222 -71 q 222 -63 222 -68 q 221 -51 222 -59 q 220 -31 220 -43 l 218 -14 q 217 12 217 3 q 216 21 217 17 q 216 29 216 28 q 213 75 214 32 q 212 189 212 119 q 212 288 212 237 q 213 373 212 338 q 214 410 214 408 q 238 414 216 411 q 292 422 260 418 q 351 431 323 427 q 414 442 414 439 q 413 443 414 443 q 413 444 413 444 q 414 444 413 444 q 416 446 416 444 q 416 447 416 447 q 416 448 416 448 q 417 448 416 448 q 418 452 418 449 q 417 458 418 454 q 416 465 417 462 q 414 469 416 468 q 414 470 414 469 q 414 473 414 471 q 410 479 414 475 l 410 479 q 407 481 408 480 q 402 481 406 481 q 391 480 399 481 q 371 478 384 479 q 366 477 369 477 q 277 464 307 469 q 248 459 262 462 q 224 456 234 457 l 215 454 q 214 466 214 454 l 214 481 q 215 516 214 492 q 216 562 215 539 q 217 625 216 589 q 218 680 218 655 q 222 838 221 791 q 222 907 222 884 q 223 941 222 925 l 223 952 l 224 962 l 314 972 q 757 1010 588 999 q 794 1012 778 1011 q 815 1014 810 1013 q 822 1015 819 1014 l 825 1015 q 826 1015 825 1015 l 827 1016 q 827 1017 827 1017 q 827 1017 827 1017 q 828 1018 828 1017 q 828 1020 828 1019 q 829 1021 828 1021 q 830 1021 829 1021 q 831 1022 831 1021 q 831 1023 831 1022 q 831 1026 831 1024 q 831 1028 831 1027 q 831 1029 831 1029 l 831 1030 l 832 1031 l 832 1032 q 831 1034 832 1033 l 831 1038 q 829 1049 830 1048 q 828 1050 829 1050 q 827 1052 827 1051 q 825 1053 826 1053 q 824 1055 825 1054 l 823 1055 l 823 1055 q 821 1055 822 1055 l 821 1055 q 820 1056 821 1056 q 818 1056 820 1056 q 813 1056 817 1056 q 806 1056 810 1056 q 794 1055 801 1055 q 778 1054 787 1055 q 755 1053 768 1053 q 560 1038 661 1046 q 319 1015 459 1029 q 251 1009 279 1012 l 223 1006 l 223 1012 q 222 1023 222 1017 l 222 1039 l 217 1041 q 213 1042 216 1042 q 212 1042 212 1042 q 210 1042 211 1042 q 208 1042 209 1042 q 207 1042 207 1042 q 204 1043 207 1043 l 201 1043 q 198 1043 199 1043 q 196 1042 196 1043 l 195 1042 q 190 1042 193 1042 q 185 1041 187 1042 q 182 1040 184 1041 q 181 1039 182 1040 q 181 1036 181 1038 q 180 1030 180 1034 q 180 1020 180 1026 q 180 1007 180 1013 l 179 1001 l 163 1000 q 125 996 148 998 q -4 981 18 984 q -9 979 -7 980 q -13 977 -12 978 l -15 976 q -16 975 -15 975 l -16 974 q -18 974 -17 974 q -18 973 -18 974 l -19 972 q -21 970 -20 972 q -24 963 -24 966 q -23 960 -24 962 q -22 960 -22 960 l -22 958 l -21 957 l -21 954 q -20 950 -21 952 q -20 945 -20 947 q -20 943 -20 943 q -19 942 -19 943 q -18 941 -18 942 l -19 941 q -18 940 -19 940 l -16 940 l -16 939 q -16 939 -16 939 q -15 938 -16 938 q -14 937 -15 937 q -12 937 -14 937 q -9 935 -11 936 q -6 934 -8 935 q -2 934 -3 934 q 1 933 0 933 q 2 934 2 933 q 3 935 3 935 l 3 936 q 4 937 4 937 q 6 938 5 937 q 9 939 7 939 q 16 940 12 939 q 27 941 20 941 q 45 943 35 942 q 80 947 58 945 q 125 952 102 949 q 164 956 148 954 l 180 958 q 180 938 180 957 q 180 890 180 919 q 179 833 180 862 q 178 783 178 804 q 176 718 177 758 q 176 678 176 697 q 174 616 175 652 q 172 555 173 581 q 172 504 172 528 q 171 469 172 479 l 170 446 l 157 444 q 138 441 151 444 q 111 435 125 438 q 85 431 97 433 q 72 429 74 429 q 67 427 69 428 q 64 426 65 427 q 63 425 64 425 q 62 425 62 425 l 61 425 l 61 425 l 62 424 l 61 424 q 60 423 60 424 q 59 420 59 422 q 59 419 59 420 q 58 418 58 418 q 57 416 57 418 q 57 412 57 414 q 58 406 58 409 q 58 402 58 404 q 58 400 58 401 q 58 399 58 399 q 60 398 59 399 q 60 396 60 397 q 61 393 60 395 q 62 391 61 392 q 64 389 63 389 q 64 387 64 387 q 70 385 64 385 q 111 391 81 385 l 170 403 l 170 388 q 170 350 170 372 q 169 236 169 290 q 170 107 169 181 q 174 -6 170 33 q 176 -24 175 -13 q 178 -45 177 -35 q 180 -62 179 -55 l 180 -70 q 182 -77 180 -75 q 183 -78 182 -78 l 183 -77 q 184 -78 184 -77 q 184 -79 184 -78 q 184 -80 184 -79 q 186 -80 185 -80 l 187 -81 q 188 -82 188 -81 l 189 -82 q 190 -82 189 -82 q 193 -83 191 -83 z "},"G":{"ha":820,"x_min":-24,"x_max":752,"o":"m 270 -102 l 272 -102 q 276 -102 273 -102 q 286 -102 279 -102 q 298 -101 292 -102 q 308 -100 304 -100 q 315 -99 311 -100 q 321 -99 319 -99 q 326 -98 324 -98 q 330 -97 329 -97 l 331 -96 l 332 -96 q 339 -95 334 -96 q 349 -92 344 -94 q 356 -90 353 -91 q 362 -88 357 -90 q 368 -86 365 -87 q 371 -85 370 -86 q 376 -83 374 -84 q 378 -83 378 -83 l 380 -81 q 388 -78 383 -80 l 391 -77 q 396 -74 393 -75 q 401 -73 399 -73 q 408 -68 405 -70 l 409 -68 q 412 -66 410 -66 l 412 -66 l 414 -64 q 417 -62 416 -64 q 426 -57 420 -61 q 438 -49 432 -53 q 445 -45 444 -45 l 446 -43 q 450 -41 448 -43 q 453 -39 451 -40 l 455 -37 q 457 -35 456 -37 q 461 -33 459 -34 q 463 -31 463 -32 q 474 -22 469 -27 q 485 -12 480 -17 l 488 -9 q 492 -6 490 -8 q 508 8 497 -2 q 529 31 518 19 q 549 52 541 43 q 557 62 557 61 q 560 66 557 63 q 564 70 562 68 q 568 75 566 73 l 569 77 l 570 78 q 571 80 570 79 q 573 83 572 81 q 580 93 576 87 q 586 101 584 98 q 589 106 589 105 q 590 108 589 106 q 593 113 591 110 q 598 120 598 119 l 600 122 q 602 125 600 123 l 605 131 l 606 100 q 613 -2 608 48 q 625 -73 618 -52 q 627 -77 626 -75 q 629 -81 628 -79 q 631 -84 631 -83 l 632 -84 l 632 -83 q 633 -84 633 -83 l 633 -85 q 638 -86 634 -86 q 646 -86 642 -86 q 652 -84 650 -85 q 652 -83 652 -83 q 653 -83 652 -83 l 654 -83 q 655 -82 654 -83 q 657 -81 656 -81 l 659 -80 q 660 -79 659 -80 q 662 -79 661 -79 q 664 -77 663 -78 q 665 -75 665 -76 q 665 -74 665 -75 q 665 -74 665 -74 q 667 -73 666 -73 q 667 -72 667 -73 l 667 -71 l 668 -70 l 668 -68 q 667 -65 668 -67 l 667 -63 q 651 54 657 -28 q 649 105 650 73 q 649 158 649 136 q 651 189 650 172 q 653 219 652 206 q 654 235 654 233 l 654 239 l 694 244 q 711 246 704 245 q 735 249 728 248 q 745 252 742 250 l 747 252 q 748 252 747 252 q 747 254 748 253 q 748 255 747 254 q 749 255 748 255 l 750 255 l 750 256 q 750 257 750 256 q 751 258 750 258 q 751 262 751 259 q 751 268 751 265 q 752 271 752 270 q 751 272 752 272 l 751 276 q 751 277 751 277 q 751 279 751 278 q 750 280 750 279 q 749 283 749 281 q 749 285 749 284 q 747 287 748 286 q 745 289 745 288 q 745 290 745 290 l 744 291 l 743 291 l 743 292 l 742 292 q 735 292 742 292 q 718 291 728 292 q 711 290 715 290 q 681 286 698 288 q 565 270 625 279 q 461 252 504 260 q 442 249 450 250 q 433 248 434 248 q 424 246 430 248 q 413 242 418 244 q 408 238 408 239 l 407 238 l 407 237 l 406 237 q 405 237 406 237 q 405 237 405 237 l 406 235 l 405 234 q 404 233 404 234 q 405 228 404 231 q 406 224 405 226 q 406 222 406 223 q 406 221 406 222 l 406 219 q 407 218 407 218 q 409 216 408 217 l 409 215 q 411 207 410 210 q 414 202 413 203 q 420 201 416 201 q 427 202 422 201 q 447 205 431 202 q 572 227 503 217 q 584 229 578 228 q 597 231 591 230 q 603 232 602 232 l 605 233 l 603 227 q 601 221 602 225 q 597 214 600 218 l 597 212 q 580 175 590 195 q 564 144 570 155 q 560 139 561 141 l 559 137 q 557 134 559 136 l 554 130 q 551 125 552 127 q 549 123 549 123 l 548 121 q 544 116 547 119 q 540 111 542 113 q 538 109 538 109 l 538 108 q 535 104 537 106 q 530 98 534 102 q 522 87 527 94 q 515 79 519 83 q 446 11 484 41 q 444 9 445 10 q 441 7 442 7 q 440 5 441 7 q 435 2 438 3 q 431 -1 433 0 q 429 -3 429 -3 q 426 -5 428 -3 q 421 -9 424 -7 q 416 -12 418 -11 q 413 -14 414 -14 q 407 -19 412 -16 q 396 -25 401 -22 q 389 -30 391 -28 q 385 -31 387 -31 q 382 -33 383 -33 q 380 -34 381 -33 q 378 -36 380 -35 q 374 -37 376 -37 q 368 -40 372 -39 q 359 -44 363 -42 q 341 -50 352 -47 q 321 -55 330 -53 q 313 -56 317 -55 q 309 -57 310 -56 q 297 -58 307 -58 q 276 -58 287 -58 q 259 -58 265 -58 q 248 -56 254 -58 q 243 -56 245 -56 q 241 -55 242 -55 q 237 -54 239 -54 q 233 -53 235 -54 q 216 -48 228 -52 q 191 -38 204 -44 q 172 -28 178 -33 q 168 -26 170 -27 l 166 -25 q 161 -22 165 -25 q 150 -15 156 -19 q 140 -7 144 -11 q 122 9 130 2 q 104 31 115 17 q 92 47 100 35 q 79 68 83 59 q 49 135 59 102 q 45 144 47 140 l 45 148 q 43 152 44 149 q 41 160 42 155 q 39 168 40 165 q 39 172 39 171 q 36 179 37 173 q 34 191 35 184 q 33 195 33 193 l 32 200 q 27 229 30 210 q 26 234 26 231 q 26 239 26 237 q 24 245 26 243 q 23 257 24 248 q 21 281 22 267 q 20 308 20 294 q 19 341 19 321 q 20 379 19 361 q 22 404 20 397 l 22 408 q 22 416 22 412 q 23 425 22 420 q 24 434 23 430 q 25 449 24 439 q 26 457 26 453 q 28 473 28 465 q 29 479 28 477 q 31 487 31 483 q 31 492 31 491 q 33 502 31 496 q 34 507 33 504 q 36 515 36 513 q 35 517 36 516 l 36 519 q 38 527 37 522 q 39 536 39 532 q 41 541 40 539 q 42 547 41 543 q 43 554 43 550 q 45 561 44 557 q 45 565 45 564 q 47 571 46 568 q 50 581 47 574 q 52 587 51 584 q 52 591 52 590 q 53 596 52 592 q 56 604 54 600 q 59 615 57 608 q 63 628 61 622 q 72 655 68 644 q 83 688 75 667 q 90 704 85 694 q 97 723 94 714 q 102 735 101 732 q 104 738 104 736 l 105 739 q 104 740 105 740 l 106 743 q 109 749 106 745 q 113 758 111 753 q 117 766 115 763 q 121 774 119 770 q 124 781 123 778 q 128 788 128 787 q 129 790 128 789 q 132 793 130 792 q 134 800 132 796 l 137 804 q 139 808 138 806 q 142 814 141 811 q 144 817 144 816 q 149 825 146 821 q 152 831 151 829 q 157 838 154 834 q 160 844 159 841 q 163 848 161 846 q 166 852 165 850 l 168 855 q 170 859 169 857 q 173 863 172 862 q 176 867 174 865 q 180 873 178 869 q 189 886 183 877 q 193 890 191 888 q 194 893 194 892 l 195 895 q 197 897 196 895 q 200 901 199 899 l 204 906 q 210 913 208 910 q 221 925 214 917 q 235 941 228 933 q 243 949 240 946 q 286 987 263 970 q 290 989 288 988 q 292 991 291 991 q 294 993 292 991 q 299 996 296 994 q 303 999 301 998 q 307 1001 305 1000 q 318 1008 309 1004 q 335 1016 326 1012 q 348 1022 343 1021 q 353 1024 351 1023 q 357 1025 355 1025 q 361 1027 357 1026 q 369 1028 365 1027 q 377 1030 374 1029 q 381 1031 380 1031 q 387 1031 382 1031 q 397 1031 391 1031 q 467 1002 440 1031 q 502 935 490 977 q 505 926 504 930 q 506 923 506 924 q 507 919 507 922 q 509 912 508 916 q 511 903 510 907 q 511 899 511 900 q 512 897 511 898 q 513 891 513 895 q 514 886 514 888 q 515 880 514 883 q 515 875 515 877 q 519 841 517 865 q 520 789 520 817 q 519 738 521 760 q 518 730 519 734 q 517 722 518 725 q 516 701 517 713 q 515 683 515 688 q 514 680 514 682 q 514 678 514 679 l 514 677 q 514 673 514 676 q 513 666 513 670 q 512 659 513 662 q 511 654 511 655 q 511 649 511 652 q 509 640 510 645 q 508 632 509 636 q 507 626 507 628 q 507 619 507 623 q 505 607 507 615 q 502 592 504 601 q 501 584 502 587 q 500 578 500 580 q 500 573 500 576 l 498 566 q 497 559 498 563 q 496 555 496 556 q 496 549 496 553 q 494 539 495 545 q 491 521 492 528 q 489 511 490 515 l 489 502 q 492 496 490 498 q 494 494 493 494 q 496 494 495 494 q 496 492 496 493 q 499 491 497 492 q 506 491 501 491 q 519 492 513 491 q 525 494 525 492 l 528 494 q 530 496 529 494 q 531 499 531 498 q 532 502 532 501 l 532 509 q 532 512 532 511 q 534 522 534 517 q 536 527 535 525 q 536 532 536 528 q 537 539 536 536 q 539 545 538 542 q 539 551 539 549 q 540 554 540 552 q 541 559 541 557 q 542 564 541 562 q 543 568 542 566 q 543 573 543 571 q 544 577 543 576 q 544 583 544 578 q 545 589 545 587 q 547 596 546 593 q 547 600 547 599 l 547 603 q 549 614 549 607 q 551 622 550 618 l 551 625 l 551 629 q 553 637 551 633 q 553 644 553 641 q 554 650 554 649 l 554 651 q 554 654 554 652 q 555 659 555 656 q 556 667 555 662 q 557 675 557 671 l 557 683 q 558 685 558 684 q 559 695 558 686 q 560 712 559 703 q 561 722 561 718 q 562 733 561 725 q 562 749 562 741 q 563 768 563 759 q 564 783 564 778 q 564 795 564 791 l 564 797 q 564 806 564 798 q 563 824 564 814 q 563 841 563 833 q 562 850 562 848 q 561 856 561 852 q 560 863 560 860 q 556 896 559 877 q 549 927 553 916 q 547 936 549 931 q 547 939 547 938 q 545 944 546 942 q 544 946 545 945 q 543 949 543 947 q 541 955 542 951 q 539 960 540 958 q 538 964 539 962 q 536 970 537 967 q 528 986 531 979 l 526 992 q 525 994 526 993 q 523 998 524 996 q 519 1002 522 999 q 516 1008 517 1005 l 512 1014 l 510 1017 q 504 1025 507 1021 q 496 1033 500 1029 q 491 1038 492 1036 q 475 1050 485 1043 q 459 1061 465 1058 q 441 1068 448 1066 q 427 1072 435 1069 q 403 1075 416 1074 q 382 1074 390 1075 q 375 1073 379 1074 q 368 1072 370 1072 q 361 1070 364 1071 q 357 1069 358 1070 q 353 1068 357 1069 q 345 1065 350 1067 q 331 1061 339 1064 q 317 1055 323 1058 q 309 1052 311 1053 q 298 1045 307 1050 q 285 1038 293 1043 q 270 1028 277 1033 q 262 1023 263 1024 q 260 1021 262 1022 q 255 1017 258 1019 q 251 1013 253 1015 q 247 1010 248 1011 q 245 1010 246 1010 q 244 1008 245 1009 q 243 1006 243 1008 q 223 990 237 1002 q 197 963 210 977 q 178 941 184 949 l 176 939 q 170 932 173 935 q 166 927 168 929 l 165 924 l 163 923 q 160 918 162 921 q 140 891 149 904 q 135 883 138 888 q 129 875 132 878 q 128 873 128 874 q 124 868 126 870 q 122 864 123 865 q 119 859 121 863 q 115 852 117 856 l 110 844 q 107 840 109 841 q 104 833 106 837 l 102 829 q 93 813 99 825 q 83 793 87 802 q 80 789 82 792 q 77 783 79 787 q 75 777 76 780 q 71 770 73 772 q 66 758 70 766 q 63 752 64 755 q 53 728 57 738 q 49 717 49 718 l 47 713 q 43 703 45 709 q 35 679 37 688 q 30 667 31 669 q 29 665 30 666 q 27 658 28 661 q 23 644 26 654 q 17 626 20 635 q 14 614 15 617 q 13 609 14 612 q 12 603 12 606 q 9 593 9 598 q 7 590 8 591 q 7 586 7 589 q 4 576 6 581 q -3 540 1 563 q -12 496 -8 517 q -16 467 -15 475 q -16 462 -16 465 q -17 454 -17 458 q -20 430 -19 443 q -21 418 -21 422 q -22 409 -21 416 q -22 393 -22 402 q -24 359 -24 380 q -24 318 -24 338 q -22 289 -24 298 q -22 276 -22 283 q -20 264 -21 269 q -20 257 -20 260 q -18 243 -19 249 q -17 236 -18 241 q -16 229 -16 231 q -13 207 -15 216 q -11 197 -12 198 q -10 193 -11 196 q -9 187 -9 191 q -8 179 -9 183 q -7 173 -7 176 l -5 167 q -3 158 -4 163 q -1 151 -2 154 q 1 147 0 148 l 1 146 q 3 138 1 144 q 5 130 3 135 l 7 122 q 9 117 8 121 q 12 109 11 114 q 14 106 13 108 q 15 101 14 103 q 16 98 16 99 q 18 95 16 98 q 20 90 19 92 q 30 67 22 82 q 44 42 37 53 q 50 31 47 35 q 57 21 53 26 q 60 17 58 20 q 65 10 62 14 q 71 3 70 3 l 72 2 q 73 0 73 1 q 75 -2 74 -1 q 81 -9 76 -4 q 92 -20 86 -14 q 102 -31 98 -26 q 107 -35 106 -35 q 110 -37 108 -35 q 113 -40 111 -38 q 116 -43 115 -42 q 119 -45 118 -45 q 122 -47 120 -46 q 127 -51 125 -49 q 133 -55 132 -55 l 134 -56 q 137 -57 135 -56 q 140 -60 138 -58 q 154 -67 144 -62 q 171 -77 163 -73 q 182 -82 180 -81 q 185 -83 183 -82 q 194 -86 189 -84 q 199 -88 197 -87 q 203 -90 201 -89 q 205 -90 205 -90 q 210 -91 206 -90 q 216 -94 213 -92 q 239 -98 226 -96 q 260 -101 252 -100 q 267 -101 264 -101 q 270 -102 270 -101 z "},"H":{"ha":895,"x_min":-24,"x_max":813,"o":"m 654 -67 q 661 -67 657 -67 q 667 -67 664 -67 q 670 -66 669 -66 q 674 -64 671 -64 q 676 -64 675 -64 q 678 -63 677 -64 q 679 -62 678 -62 l 680 -62 q 684 -48 684 -62 q 684 -37 684 -43 q 682 100 682 -11 q 683 187 682 129 q 685 299 684 245 q 687 378 686 353 q 688 407 688 390 q 689 431 688 420 q 690 458 690 444 q 690 481 690 472 q 692 498 691 489 q 693 519 692 511 l 693 536 l 704 538 q 752 543 724 540 q 794 549 781 547 q 799 549 798 549 q 804 550 802 550 q 806 551 806 551 l 809 551 l 808 552 l 808 553 l 809 553 q 810 553 810 553 q 810 555 810 554 l 810 555 q 811 557 810 556 q 813 558 812 557 q 813 562 813 559 q 813 568 813 564 q 812 573 812 570 q 811 578 812 577 q 811 579 811 578 q 810 582 810 580 q 810 585 810 583 q 809 586 810 585 q 808 587 809 587 q 807 587 808 587 q 807 588 807 587 q 806 589 807 589 q 805 589 806 589 q 804 589 804 589 q 804 590 804 589 l 804 591 l 792 591 q 774 589 788 591 q 745 586 761 588 q 715 582 728 584 q 699 580 703 581 l 696 579 l 696 589 q 696 597 696 592 q 697 604 697 602 q 697 613 697 607 q 699 632 698 619 q 701 667 700 645 q 702 686 701 673 q 704 716 703 701 q 705 740 705 731 q 707 760 706 747 l 708 772 q 708 786 708 780 q 709 793 709 792 l 709 795 q 710 815 710 802 q 711 825 710 820 q 712 846 711 839 q 714 867 713 854 q 715 874 714 871 q 718 931 716 897 q 722 985 720 964 l 722 990 q 723 994 722 993 q 724 1015 724 1007 q 725 1028 725 1023 q 725 1034 725 1032 q 723 1037 724 1036 q 721 1038 722 1038 l 720 1038 q 715 1038 719 1038 q 709 1039 712 1039 q 700 1040 705 1040 q 693 1039 698 1040 q 685 1038 688 1039 q 684 1036 685 1037 q 684 1033 684 1034 l 684 1030 q 683 1026 683 1028 q 681 1016 682 1024 q 680 998 680 1008 q 679 978 680 989 q 677 954 678 964 q 675 929 677 943 q 674 918 675 922 q 673 901 674 910 q 673 889 673 893 q 671 869 672 882 q 671 860 671 864 q 669 848 670 854 q 668 830 669 837 q 666 795 667 817 q 665 767 665 782 q 664 759 664 763 q 662 739 663 746 q 658 671 661 724 q 657 654 658 664 q 656 638 656 645 q 654 614 655 625 q 654 588 654 603 l 652 576 l 636 573 q 577 566 620 572 q 490 555 535 561 q 419 546 444 549 q 314 530 366 538 q 228 516 262 522 q 223 515 225 515 q 216 514 218 514 q 214 515 214 514 l 214 519 q 215 524 214 522 q 215 531 215 526 q 218 590 216 543 q 218 603 218 596 q 222 669 220 644 q 223 684 222 676 q 224 696 223 692 q 227 760 225 742 q 228 771 228 764 q 229 784 229 779 q 229 793 229 788 q 229 802 229 799 q 230 811 230 804 q 231 834 231 818 q 233 880 232 850 q 234 892 233 886 q 235 911 235 904 q 236 923 236 918 q 236 930 236 928 q 236 934 236 932 q 234 936 235 935 q 231 937 233 937 q 220 940 227 939 l 216 940 q 211 939 213 940 l 210 939 q 205 939 208 939 l 203 939 q 198 937 200 939 q 195 933 195 936 q 193 927 194 932 q 193 918 193 923 q 192 907 193 913 q 191 897 191 901 q 190 888 191 894 q 190 879 190 883 q 190 865 190 875 q 189 846 189 855 q 188 826 188 836 q 187 811 187 815 q 187 803 187 806 q 186 799 186 799 q 185 785 185 797 q 185 772 185 780 q 184 758 184 764 q 183 745 184 753 q 182 724 182 734 q 181 708 182 715 q 180 696 180 700 q 179 684 180 693 q 178 663 179 674 l 178 658 q 177 633 178 644 q 176 617 176 621 l 176 613 q 175 582 176 600 q 173 546 174 563 q 172 527 172 536 q 171 514 171 518 l 170 505 l 165 505 q 152 502 164 505 q 125 497 140 500 q 98 491 111 494 q 82 487 86 488 q 75 486 81 487 q 33 476 60 481 q -1 468 11 471 q -16 463 -12 465 q -20 458 -20 461 q -22 454 -20 456 q -23 450 -23 453 q -24 445 -24 448 q -23 441 -24 441 q -22 440 -22 440 q -22 439 -22 439 q -23 439 -22 439 l -23 437 l -22 437 l -22 437 l -21 437 q -20 436 -21 436 q -19 435 -20 435 q -18 434 -18 435 q -17 432 -17 433 l -16 429 l -15 430 q -14 429 -14 430 q -14 428 -14 429 q -13 427 -14 427 q -12 426 -12 426 l -10 426 l -10 425 q -7 425 -10 425 l -5 425 q 0 425 -3 425 q 5 425 2 425 q 33 432 9 427 q 87 444 57 437 q 141 456 117 451 q 168 461 165 461 l 168 460 q 169 454 168 458 q 169 443 169 450 q 169 428 169 435 q 168 418 168 420 q 166 399 167 414 q 165 348 166 384 q 162 243 164 311 l 162 234 q 161 113 161 161 q 164 16 161 34 q 165 13 165 15 q 165 11 165 12 l 168 11 l 168 10 q 170 8 168 9 q 176 7 173 7 q 179 6 178 7 q 180 5 180 5 q 181 4 180 4 q 183 5 182 4 q 185 5 184 5 q 187 5 186 5 l 191 5 q 195 7 192 7 q 198 7 197 7 q 199 9 199 7 q 200 10 199 9 q 200 10 200 10 q 201 10 201 10 q 203 11 203 10 q 203 12 203 12 l 204 13 q 205 14 204 14 q 205 30 205 14 q 203 90 203 67 l 203 115 q 203 151 203 128 q 205 235 203 174 q 208 329 207 294 q 209 383 209 364 q 210 410 210 402 q 211 421 210 418 q 211 433 211 425 q 212 450 212 441 l 212 469 l 231 473 q 619 528 380 500 q 636 530 629 529 q 646 532 644 531 l 650 532 l 650 516 q 648 470 648 489 q 646 428 646 448 q 645 403 645 416 q 644 374 644 387 q 643 327 644 363 q 640 248 642 291 q 639 152 640 191 q 639 60 639 113 q 640 -2 639 20 q 641 -37 640 -25 q 643 -56 642 -48 q 654 -67 645 -66 z "},"I":{"ha":382,"x_min":-24,"x_max":328,"o":"m -12 -79 l -10 -79 q -6 -78 -9 -79 q 3 -77 -4 -78 q 118 -55 40 -67 q 265 -35 197 -42 q 308 -30 308 -31 q 309 -29 308 -29 q 310 -30 309 -29 l 311 -30 l 311 -29 q 310 -28 310 -28 l 311 -28 q 312 -27 311 -28 q 313 -24 313 -26 q 315 -18 314 -22 q 315 -13 315 -15 q 315 -7 315 -10 q 314 -3 315 -4 l 314 -3 q 313 -2 313 -3 q 313 -1 313 -1 q 310 5 313 3 l 309 8 q 307 10 307 9 q 307 11 307 11 q 305 10 306 11 l 304 10 l 304 9 l 304 9 q 298 10 304 10 q 269 8 292 10 q 201 0 246 6 q 184 -2 192 -1 q 170 -3 175 -3 l 164 -3 q 164 19 164 -2 q 163 73 163 41 q 164 138 163 105 q 174 511 168 359 q 196 840 181 663 q 203 939 201 897 q 206 992 206 980 q 207 998 206 996 l 208 1000 l 208 1000 l 208 1000 l 208 1000 q 208 1002 208 1002 q 209 1004 208 1003 l 219 1004 q 254 1006 229 1005 q 284 1008 267 1007 q 297 1009 292 1008 q 307 1009 303 1009 q 313 1009 311 1009 q 317 1010 315 1010 q 319 1010 318 1010 l 319 1010 l 319 1011 l 321 1011 q 323 1012 322 1011 q 325 1015 325 1013 q 325 1017 325 1016 q 326 1017 326 1017 q 327 1019 327 1017 q 328 1020 328 1019 q 327 1021 328 1021 q 327 1024 327 1023 q 328 1025 327 1025 q 328 1027 328 1026 q 328 1028 328 1027 l 328 1031 q 327 1038 327 1034 q 325 1045 326 1044 q 324 1046 324 1045 q 323 1047 323 1046 q 323 1048 323 1047 q 323 1049 323 1049 q 321 1049 322 1049 q 321 1050 321 1049 l 320 1050 l 320 1051 q 319 1052 319 1051 l 319 1052 q 281 1051 309 1052 q 217 1048 254 1050 q 87 1036 138 1042 q 37 1026 37 1030 l 37 1025 l 36 1025 q 32 1023 35 1025 q 27 1017 29 1020 q 27 1014 27 1016 q 28 1010 27 1013 q 29 1008 28 1010 q 30 1006 29 1007 q 31 1002 30 1004 q 31 998 31 1000 q 31 996 31 996 l 32 995 l 32 993 q 33 992 32 992 l 33 991 q 34 991 33 991 q 34 989 34 990 q 33 989 33 989 l 35 989 q 36 989 35 989 q 36 988 36 989 q 38 986 36 987 q 43 985 40 985 q 48 984 45 984 q 53 984 52 984 q 56 987 54 985 q 60 988 57 987 q 71 991 64 989 q 92 994 79 992 q 108 995 98 994 q 131 998 119 996 q 152 1000 143 999 q 162 1000 161 1000 q 163 1000 163 1000 q 163 999 163 1000 q 163 995 163 998 q 163 985 163 993 q 162 968 163 978 q 159 918 161 945 q 153 841 157 890 q 128 431 135 618 q 122 205 125 334 q 120 25 120 77 l 121 -11 l 119 -11 q 110 -13 117 -12 q 92 -15 102 -14 q 12 -30 45 -23 q -21 -39 -21 -37 q -22 -40 -21 -40 q -23 -40 -22 -40 q -24 -41 -24 -40 l -24 -44 q -21 -57 -23 -50 q -16 -71 -18 -65 q -12 -79 -14 -77 z "},"J":{"ha":797,"x_min":-24,"x_max":865,"o":"m 249 -87 l 275 -87 q 305 -85 294 -87 q 334 -78 317 -83 q 364 -65 347 -73 q 392 -47 380 -56 q 418 -28 408 -37 q 441 -6 429 -19 q 462 17 452 5 q 479 38 473 29 q 558 195 527 106 q 620 598 620 379 q 618 666 620 631 q 613 728 616 694 q 608 779 610 762 q 607 784 608 781 q 606 789 607 787 q 606 793 606 791 q 605 798 606 796 q 604 804 605 801 q 603 808 604 806 q 584 899 597 850 q 555 987 571 947 l 553 993 l 555 993 q 594 995 559 994 q 677 997 628 996 q 777 999 727 998 q 834 1000 817 1000 q 855 1000 852 1000 l 858 1000 q 859 1001 859 1000 q 861 1003 860 1002 q 862 1005 862 1004 l 862 1006 l 863 1006 l 863 1006 q 864 1008 864 1007 q 865 1013 865 1010 q 865 1021 865 1016 q 865 1030 865 1027 q 864 1035 865 1034 q 863 1036 864 1036 q 862 1037 863 1036 q 862 1038 862 1037 q 861 1039 862 1038 q 860 1040 861 1040 q 859 1042 859 1041 l 853 1042 q 798 1042 846 1042 q 688 1040 749 1042 q 584 1037 627 1039 q 554 1036 567 1036 q 540 1036 542 1036 l 535 1036 l 536 1039 l 536 1042 q 535 1046 536 1044 q 531 1049 534 1048 q 528 1050 530 1050 q 524 1050 526 1050 q 519 1052 522 1050 q 515 1055 517 1053 q 512 1059 513 1058 q 509 1060 510 1060 l 509 1060 q 507 1059 508 1059 q 506 1059 507 1059 q 503 1057 504 1057 q 500 1055 500 1056 q 499 1055 500 1055 q 498 1054 498 1055 q 498 1053 498 1053 q 497 1053 498 1053 l 496 1053 l 496 1053 q 497 1052 497 1053 q 497 1050 497 1051 q 496 1049 496 1050 q 492 1044 494 1047 q 491 1037 491 1040 l 491 1034 l 482 1033 q 467 1032 479 1033 q 441 1031 455 1031 q 119 1010 275 1023 q 71 1007 98 1009 q 37 1004 52 1006 q 3 1001 16 1002 q -14 998 -9 1000 q -21 995 -20 997 q -22 989 -22 993 l -22 981 q -22 978 -22 979 q -23 977 -22 977 q -24 977 -24 977 q -24 976 -24 977 l -24 975 q -24 973 -24 974 q -23 972 -24 972 q -22 971 -22 972 q -22 968 -22 970 l -22 967 q -22 965 -22 966 q -22 964 -22 964 q -21 964 -21 964 q -20 963 -20 963 q -20 962 -20 962 l -20 961 q -19 960 -20 960 q -18 960 -19 960 l -17 960 l -17 958 l -16 958 l -16 959 q -15 959 -16 959 q -15 958 -15 958 l -11 958 q -3 957 -7 957 q 4 957 1 957 q 9 958 8 958 q 14 958 10 958 q 44 961 24 960 q 84 964 60 962 q 126 968 106 966 q 450 988 277 981 q 482 990 468 989 q 500 990 496 990 l 507 991 l 515 971 q 577 615 573 827 l 577 600 q 522 222 577 396 q 319 -37 450 12 q 271 -45 294 -45 q 231 -39 250 -45 q 142 58 170 -16 q 127 165 127 100 l 127 180 q 183 392 131 304 q 190 406 188 401 q 193 413 193 411 q 192 417 193 415 q 191 418 191 418 l 191 419 l 191 420 q 186 424 189 422 q 183 427 185 426 q 181 429 182 429 q 180 429 180 429 q 178 430 179 429 q 176 431 177 431 l 176 432 q 175 431 175 432 q 173 432 174 431 q 171 433 172 433 q 169 435 170 434 q 168 435 169 435 l 168 435 q 166 434 167 434 q 165 435 165 434 q 163 434 164 435 q 162 434 163 434 l 161 434 q 158 432 161 434 q 152 424 156 429 q 145 413 149 419 q 87 226 98 332 q 84 167 84 195 q 87 106 84 136 q 152 -37 99 16 q 177 -59 163 -49 q 201 -73 191 -69 q 205 -75 203 -74 q 209 -77 208 -76 q 221 -81 213 -78 q 234 -84 229 -83 q 239 -85 237 -85 q 244 -86 241 -86 q 249 -87 246 -87 z "},"K":{"ha":695,"x_min":-24,"x_max":695,"o":"m 59 -67 l 64 -67 q 65 -67 64 -67 q 66 -66 65 -67 q 68 -65 67 -66 q 71 -66 70 -65 q 72 -65 71 -66 q 74 -64 73 -64 l 75 -63 l 77 -63 l 77 -62 q 79 -62 79 -62 q 82 -60 81 -61 q 85 -58 84 -59 q 87 -57 87 -58 q 87 -56 87 -56 l 87 -55 l 88 -54 q 89 -53 89 -54 q 90 -53 90 -53 q 90 -52 90 -52 q 91 -51 90 -51 q 92 -50 91 -50 l 92 -50 q 92 -50 92 -50 q 91 -49 91 -50 q 91 -48 91 -49 q 90 -47 90 -47 q 90 -43 90 -46 q 87 -36 89 -40 q 80 19 83 -20 q 77 73 78 45 q 76 153 77 101 l 76 172 l 75 260 l 119 260 q 225 254 181 259 q 477 184 376 237 q 506 169 495 176 q 524 155 517 161 q 532 146 530 148 q 536 145 534 145 q 536 146 536 145 q 537 146 537 146 q 538 146 538 146 q 539 146 538 146 l 541 146 q 543 146 542 146 q 545 147 544 147 q 546 148 545 148 q 547 149 547 149 q 549 150 548 149 q 551 151 550 150 q 553 153 551 152 l 553 153 q 557 155 555 153 q 561 159 559 157 q 562 162 562 161 q 563 163 562 163 q 564 164 563 164 q 565 166 564 165 q 565 169 565 168 q 564 170 564 170 l 564 172 q 562 175 564 172 q 557 181 560 178 q 551 189 554 185 q 507 217 536 201 q 444 246 478 233 q 437 250 441 248 q 428 253 431 252 q 375 269 410 260 q 307 286 340 279 q 126 303 223 301 l 94 304 l 112 316 q 307 471 215 389 q 479 646 400 555 q 489 658 486 654 q 496 666 493 662 q 503 675 499 669 q 510 683 507 678 q 517 692 514 688 q 524 700 524 699 q 535 713 526 703 q 553 737 543 724 q 570 759 564 750 q 610 817 593 791 q 644 871 627 842 q 672 926 662 901 q 675 935 674 930 q 677 939 677 938 q 681 950 679 943 q 685 963 683 957 q 688 973 687 970 q 690 981 688 981 l 691 981 l 691 981 q 692 982 692 981 q 692 983 692 983 q 693 983 692 983 l 694 984 l 694 985 q 694 987 694 986 l 694 993 q 695 994 695 993 q 694 995 695 994 l 694 997 q 693 1000 694 999 q 692 1000 692 1000 q 690 1001 690 1000 q 690 1002 690 1002 l 690 1004 q 688 1005 690 1004 q 685 1008 687 1006 q 681 1010 683 1010 q 679 1011 680 1011 l 678 1011 q 677 1012 677 1011 l 677 1012 q 676 1013 677 1013 q 669 1010 675 1013 q 666 1008 667 1008 q 663 1009 665 1008 q 661 1010 663 1010 q 653 1003 659 1010 q 650 997 651 1000 q 646 987 648 994 q 636 953 642 968 q 621 918 631 937 q 549 804 595 868 q 142 391 383 573 q 125 378 136 386 q 104 363 115 371 q 86 350 93 355 l 79 345 l 79 349 q 79 375 79 355 q 82 427 80 395 q 83 448 83 438 q 106 752 90 555 q 117 883 114 841 q 120 960 120 926 q 120 995 121 981 q 118 1029 120 1008 q 115 1037 118 1035 q 114 1038 115 1038 q 113 1038 113 1038 q 112 1039 112 1038 q 108 1040 111 1040 q 97 1040 104 1040 q 78 1038 83 1040 q 75 1031 75 1036 l 75 1027 q 77 960 77 1001 q 75 892 77 929 q 66 781 72 855 q 64 753 65 768 q 36 353 39 486 q 35 338 35 345 q 34 319 34 321 q 33 316 34 317 q 29 313 32 315 q 21 309 26 311 q 8 302 13 304 q 0 299 3 300 q -9 298 -3 298 l -9 298 q -17 297 -14 298 q -21 297 -20 297 q -23 288 -22 296 q -24 270 -24 280 q -24 263 -24 265 q -24 259 -24 260 q -23 257 -24 258 q -22 256 -23 256 q -7 254 -14 254 q 15 256 1 254 q 21 257 18 257 q 26 257 24 257 l 32 258 l 33 171 q 35 59 33 98 q 39 -11 36 20 q 52 -61 45 -52 q 54 -63 53 -62 q 54 -64 54 -64 l 54 -65 l 55 -64 q 56 -65 56 -64 q 56 -66 56 -65 l 57 -66 q 59 -67 58 -66 z "},"L":{"ha":449,"x_min":-24,"x_max":720,"o":"m 0 -33 q 4 -35 2 -35 q 9 -33 6 -35 q 16 -30 12 -32 q 30 -24 22 -27 q 277 32 123 7 q 430 52 348 43 q 581 64 511 60 q 632 65 614 65 q 669 64 650 65 q 686 64 679 64 q 697 63 692 64 q 704 63 701 63 q 708 63 707 63 q 709 63 709 63 q 711 64 710 64 q 711 64 711 64 l 712 64 l 713 65 l 713 65 q 715 67 714 66 q 716 68 716 68 q 716 70 716 69 q 717 70 716 70 q 719 75 718 71 q 720 84 720 79 q 720 93 720 89 q 719 97 720 96 l 718 98 q 718 98 718 98 q 718 100 718 99 q 717 101 718 100 l 716 102 q 715 102 715 102 q 715 102 715 102 l 715 103 q 708 106 715 104 q 671 107 700 106 q 609 107 643 107 q 551 105 575 106 q 193 60 352 92 l 162 54 l 161 59 q 142 164 149 88 q 136 300 136 227 l 136 330 q 144 496 137 406 q 167 744 151 587 q 179 871 176 832 q 182 941 182 909 q 179 991 182 977 q 178 998 178 995 l 178 1000 q 178 1002 178 1001 q 176 1004 178 1003 q 171 1006 174 1005 q 166 1006 168 1006 l 162 1006 q 161 1007 162 1007 q 157 1008 159 1008 q 153 1007 155 1008 q 151 1006 151 1007 l 147 1006 q 142 1006 142 1006 l 142 1005 l 142 1005 l 142 1004 q 141 1005 142 1005 l 140 1004 l 138 1004 q 136 1003 137 1004 q 136 1000 136 1002 q 136 994 136 998 q 137 985 136 990 q 138 977 138 980 q 139 954 139 970 q 140 937 140 945 q 139 914 140 928 q 138 886 139 900 q 125 755 134 835 q 105 561 112 634 q 96 427 99 488 q 93 307 93 360 q 96 199 93 252 q 99 171 98 186 q 101 143 100 155 q 102 130 102 132 q 103 127 102 129 q 104 122 104 125 q 109 85 105 106 q 117 54 113 65 q 119 45 119 46 l 112 43 q 94 38 104 41 q 37 23 63 31 q 1 11 11 15 q -3 9 -1 9 q -5 8 -5 8 q -12 4 -8 7 q -18 0 -15 2 q -20 -3 -20 -3 q -20 -5 -20 -4 q -21 -5 -20 -5 q -22 -7 -22 -5 q -24 -12 -23 -9 l -24 -20 q -23 -21 -23 -20 q -22 -21 -23 -21 l -22 -22 q -22 -23 -22 -23 q -21 -24 -22 -24 l -21 -24 q -21 -25 -21 -25 q -20 -26 -20 -26 q -18 -26 -19 -26 q -16 -28 -17 -27 l -16 -28 q -14 -28 -15 -28 q -12 -28 -14 -28 l -11 -28 q -9 -28 -10 -28 q -9 -29 -9 -28 l -8 -29 q -8 -30 -8 -30 q -7 -30 -7 -30 q -3 -31 -5 -30 q -1 -32 -2 -31 q 0 -33 -1 -32 z "},"M":{"ha":846,"x_min":-24,"x_max":710,"o":"m 5 -61 q 9 -64 7 -63 q 12 -65 10 -65 q 14 -66 13 -66 q 22 -63 20 -66 q 24 -62 24 -62 l 25 -61 l 25 -62 l 26 -62 l 26 -61 l 27 -61 q 29 -58 29 -60 q 29 -57 29 -58 q 30 -57 29 -57 q 33 -56 31 -57 q 34 -54 34 -55 q 38 -50 34 -52 q 39 -47 39 -48 l 40 -47 q 39 -46 40 -46 q 39 -45 39 -45 q 40 -44 39 -44 q 41 -41 41 -43 q 40 -39 41 -41 q 37 -31 40 -37 q 20 82 25 -14 q 19 138 19 99 q 18 218 18 178 q 18 279 18 258 q 25 413 20 340 q 41 615 31 485 q 44 644 43 629 q 47 682 46 665 q 50 706 49 699 q 50 715 50 711 q 53 739 51 739 q 58 709 55 739 q 58 699 58 704 q 77 572 68 625 q 96 469 85 520 q 98 466 97 468 q 106 430 101 450 q 113 403 111 411 l 115 397 q 118 383 116 391 q 130 347 123 367 q 142 312 136 328 q 211 189 174 227 q 231 172 222 178 q 251 163 240 166 q 258 160 256 161 q 264 159 261 159 q 273 159 267 159 q 284 159 280 159 q 292 161 288 160 q 347 205 321 171 q 353 212 351 209 l 355 216 q 376 249 362 224 q 400 296 390 274 q 449 409 423 345 q 527 616 474 473 q 627 880 592 791 q 637 903 633 892 q 650 936 645 924 q 656 949 655 948 l 656 947 q 646 823 656 932 q 634 676 638 731 q 627 566 630 621 q 623 384 623 469 q 627 227 623 299 q 644 77 634 148 q 663 -22 654 7 q 672 -40 667 -32 q 681 -47 678 -47 l 682 -47 l 682 -48 q 684 -49 682 -49 q 686 -49 685 -49 q 689 -48 688 -49 l 690 -47 l 691 -47 q 694 -46 692 -47 q 700 -41 696 -45 l 705 -37 q 706 -35 706 -35 l 706 -34 l 707 -31 q 710 -24 710 -28 l 710 -22 q 708 -17 710 -19 q 691 54 701 -6 q 673 195 681 113 q 665 385 665 280 q 675 637 665 499 q 679 696 676 664 q 686 776 682 728 q 689 810 687 791 q 694 876 692 847 q 696 905 696 897 q 700 977 700 949 q 695 1021 700 1010 q 671 1038 686 1038 q 659 1036 665 1038 q 650 1029 655 1035 q 641 1017 644 1023 q 586 893 626 994 q 463 570 547 793 q 409 426 431 480 q 370 333 387 372 q 302 218 331 246 q 287 205 292 209 q 274 201 281 202 q 259 205 267 201 q 243 218 252 209 q 127 534 174 292 q 92 782 111 614 q 67 959 75 931 q 66 961 66 960 q 66 964 66 963 q 64 972 66 967 q 58 981 61 977 q 55 984 56 984 l 54 984 q 53 985 54 984 l 52 985 q 51 986 52 986 q 47 984 49 986 q 46 984 46 984 q 45 985 45 985 l 45 985 q 43 984 44 985 q 39 981 41 983 q 35 978 37 979 q 31 977 33 977 l 31 977 l 31 976 l 30 976 l 30 975 l 29 975 q 25 973 27 975 q 22 968 22 970 q 22 967 22 967 l 21 966 q 19 966 20 966 q 19 965 19 966 q 19 964 19 964 q 18 964 18 964 l 17 963 q 15 963 16 963 q 14 962 14 962 q 14 961 14 961 q 14 960 14 960 l 14 956 q 14 953 14 955 q 14 948 14 951 q 14 943 14 945 q 15 942 14 943 q 15 940 15 941 q 16 939 16 939 q 18 916 18 937 q 18 892 18 911 q 16 825 18 873 q 14 799 14 813 q 0 627 9 734 q -15 443 -11 506 q -22 317 -20 380 q -24 246 -24 293 l -24 199 q -24 142 -24 176 q -24 85 -24 107 q -8 -37 -18 -5 q -2 -51 -5 -45 q 5 -61 1 -56 z "},"N":{"ha":815,"x_min":-24,"x_max":666,"o":"m 29 -92 q 31 -92 29 -92 q 32 -92 31 -92 q 34 -91 33 -92 q 35 -90 35 -90 l 35 -90 q 36 -90 36 -90 q 38 -89 37 -90 q 41 -86 39 -88 q 44 -83 43 -85 q 45 -80 45 -81 q 47 -78 45 -79 q 49 -76 48 -77 q 50 -75 50 -75 q 50 -73 50 -74 q 51 -71 50 -72 q 52 -69 52 -71 q 53 -65 52 -67 q 53 -62 53 -64 q 52 -61 53 -61 l 52 -61 q 52 -60 52 -60 q 51 -58 52 -60 q 50 -55 50 -56 q 46 -51 47 -54 q 44 -47 45 -49 q 44 -46 44 -47 q 43 -44 43 -45 q 42 -43 42 -43 q 40 -32 41 -41 q 36 -10 38 -22 q 33 14 34 3 q 32 18 32 16 q 31 27 31 23 q 30 35 31 32 q 29 43 29 37 q 28 56 28 49 l 28 59 q 26 70 27 65 q 26 79 26 78 q 20 188 24 79 q 19 250 19 210 q 20 324 19 289 q 22 372 21 355 q 23 397 22 388 l 23 404 q 24 408 24 407 q 23 410 24 410 l 24 416 q 24 431 24 422 q 25 446 25 440 q 25 452 25 452 l 26 458 l 26 471 q 30 522 29 505 q 31 534 31 530 q 31 545 31 538 q 33 558 32 552 q 33 568 33 564 q 34 576 34 575 l 34 577 q 34 583 34 578 q 35 595 34 587 q 37 610 36 604 l 37 616 l 37 623 q 39 637 37 628 q 39 653 39 647 q 40 659 40 658 l 40 660 q 40 666 40 661 q 41 678 40 670 q 43 692 42 687 q 43 699 43 699 l 43 711 q 44 713 43 711 q 45 722 44 717 q 46 736 45 730 q 46 748 46 741 q 47 762 47 755 q 49 774 48 768 q 50 783 50 781 q 50 791 50 785 q 51 804 50 798 q 52 814 52 809 q 52 823 52 821 q 53 830 52 824 q 54 843 53 836 q 55 855 54 850 q 56 862 55 861 q 73 811 58 862 q 112 671 88 760 q 128 613 120 642 q 140 568 136 583 q 287 182 211 321 q 295 168 291 174 q 301 159 299 161 l 302 156 q 304 153 304 153 l 307 149 q 313 138 309 144 q 331 111 321 125 q 348 87 341 96 q 351 83 350 85 q 357 77 355 79 q 378 53 364 67 q 402 31 392 39 q 467 -1 435 5 l 482 -1 q 490 -1 486 -1 q 498 0 495 -1 q 539 19 519 3 q 554 32 546 24 q 568 47 562 40 q 664 532 651 154 q 666 604 665 555 q 666 703 666 653 q 665 780 665 753 q 656 947 661 890 q 654 973 655 958 q 651 1001 652 988 q 648 1019 649 1014 q 648 1022 648 1020 q 647 1027 648 1025 q 646 1034 646 1029 q 644 1042 645 1038 q 642 1050 643 1047 q 641 1054 641 1053 q 640 1056 640 1055 q 639 1058 639 1057 q 635 1063 638 1061 q 629 1065 633 1065 l 625 1065 q 616 1064 621 1065 q 610 1061 612 1063 q 608 1060 609 1061 q 607 1060 608 1060 q 605 1059 606 1059 q 603 1057 603 1058 q 602 1056 603 1057 q 602 1055 602 1055 q 600 1054 601 1055 q 600 1053 600 1054 l 600 1053 l 599 1052 l 599 1050 q 600 1044 599 1047 q 601 1037 600 1040 q 603 1031 602 1033 q 604 1022 603 1028 q 608 998 606 1011 q 621 804 616 930 q 623 658 623 728 q 622 566 623 610 q 523 62 611 153 q 481 41 504 41 q 453 49 468 41 q 411 81 434 58 q 352 157 380 111 q 201 517 273 281 q 168 633 189 557 q 154 681 161 655 q 122 797 133 758 q 100 867 111 836 q 58 959 73 945 l 57 959 q 52 963 54 962 l 50 963 q 43 961 47 963 q 28 951 39 958 q 25 949 26 949 q 14 942 18 944 q 10 937 11 939 l 10 930 q 11 927 10 929 q 12 919 11 923 q 12 912 12 914 q 13 888 13 908 q 12 874 12 880 q 12 867 12 868 l 12 862 q 12 849 12 857 q 10 835 11 842 q 9 826 9 829 q 9 818 9 824 q 8 804 9 812 q 7 791 7 798 q 7 783 7 785 q 6 775 7 781 q 5 763 5 769 q 4 751 5 756 q 3 743 3 745 q 3 735 3 742 q 2 722 3 729 q -2 682 0 700 q -3 662 -3 665 q -7 603 -3 659 q -9 587 -8 593 q -9 579 -9 581 q -10 567 -9 578 q -12 541 -11 555 q -14 517 -13 528 q -15 503 -14 509 q -15 496 -15 497 l -15 490 q -16 475 -16 484 q -17 471 -17 473 q -18 459 -18 464 q -18 454 -18 454 l -18 449 q -18 437 -18 444 q -19 424 -19 431 q -20 412 -20 416 q -20 395 -20 407 q -21 372 -20 384 q -23 294 -22 338 q -24 215 -24 251 q -23 171 -24 180 q -22 160 -22 168 q -21 144 -21 153 q -21 131 -21 136 q -20 125 -21 125 q -20 121 -20 125 q -20 113 -20 118 q -19 102 -19 109 l -18 92 q -16 73 -18 85 q -16 62 -16 66 q -14 47 -15 54 q -14 36 -14 39 q -13 30 -13 34 q -12 21 -12 26 q -11 14 -12 18 q -10 4 -11 8 q -9 -1 -9 -1 q -8 -2 -8 -1 q -8 -4 -8 -3 q -7 -15 -8 -7 q -5 -31 -6 -23 q -3 -41 -3 -39 l -1 -44 q -1 -46 -1 -45 q 0 -48 0 -47 q 2 -56 1 -52 q 3 -62 3 -60 l 4 -63 l 4 -66 q 8 -73 5 -68 q 14 -82 11 -77 q 22 -89 18 -86 q 27 -91 26 -91 l 28 -91 l 29 -92 z "},"O":{"ha":966,"x_min":-24,"x_max":831,"o":"m 450 -93 q 474 -94 460 -94 q 498 -93 488 -94 q 654 20 579 -80 q 663 33 659 26 q 671 44 668 40 l 671 45 q 676 52 673 48 q 680 57 678 55 q 681 59 680 58 q 707 104 692 76 q 734 159 722 132 q 797 342 772 245 q 810 397 804 368 q 818 440 816 426 q 818 443 818 441 q 819 446 819 444 l 819 446 q 821 458 819 448 q 824 481 822 468 q 826 503 825 494 q 830 550 829 531 q 831 606 831 569 q 830 661 831 642 q 826 703 829 680 q 825 720 825 714 q 823 731 824 726 q 820 746 822 736 q 734 960 798 876 q 710 986 726 970 q 683 1010 694 1002 q 675 1016 679 1013 l 672 1019 q 671 1019 671 1019 q 669 1020 670 1019 q 660 1026 667 1022 q 644 1035 652 1030 q 629 1042 635 1040 q 608 1051 620 1046 q 590 1056 595 1055 l 587 1057 q 584 1058 586 1057 q 574 1060 581 1059 q 560 1063 567 1061 q 549 1065 553 1064 q 508 1067 528 1067 q 432 1059 469 1067 q 416 1056 425 1058 q 400 1051 408 1053 q 391 1048 393 1049 q 389 1048 390 1048 q 387 1047 388 1047 q 384 1046 386 1047 q 378 1044 381 1045 q 349 1032 359 1037 q 326 1021 338 1027 q 36 699 138 925 q -22 484 -10 595 q -23 453 -23 474 q -24 411 -24 432 q -23 380 -24 390 q 8 237 -17 299 q 61 151 28 182 q 82 132 73 140 q 105 118 92 125 q 138 103 120 110 q 172 95 157 97 q 191 93 183 93 q 210 92 198 92 q 229 93 221 92 q 248 96 237 94 q 253 97 250 96 q 262 100 257 98 q 273 103 273 103 l 275 98 q 281 85 277 93 q 308 23 292 49 q 316 8 311 17 q 326 -7 321 0 q 333 -17 331 -14 q 335 -19 334 -18 q 337 -22 336 -20 q 345 -30 339 -24 q 357 -43 350 -36 q 368 -53 363 -50 q 425 -86 395 -75 q 429 -88 427 -87 q 433 -89 431 -89 l 434 -90 l 434 -89 q 435 -89 435 -89 q 436 -90 435 -90 q 437 -90 437 -90 q 442 -91 439 -91 q 448 -92 444 -92 q 450 -93 449 -92 m 495 -50 q 474 -51 486 -51 q 454 -50 463 -51 q 385 -9 417 -42 q 310 137 335 39 q 288 330 288 229 q 300 489 288 407 q 316 560 307 526 q 334 614 325 594 q 339 621 337 619 q 342 624 340 623 q 346 627 345 625 q 347 631 347 628 q 349 633 348 632 l 350 634 q 354 637 353 634 q 355 647 355 640 q 354 651 355 650 q 353 653 354 652 q 352 653 352 653 q 351 654 351 654 l 350 654 q 349 654 350 654 l 349 654 q 348 655 349 655 q 344 656 347 656 q 338 659 339 656 q 338 660 338 659 l 336 661 q 335 662 336 662 q 335 663 335 663 l 335 664 q 333 665 335 665 l 331 665 q 329 665 330 665 q 326 664 327 665 q 323 663 325 664 q 320 661 322 662 q 312 655 317 660 q 303 646 307 651 q 300 640 302 644 q 295 631 298 635 q 292 623 293 626 q 291 621 292 623 q 290 618 290 619 q 272 561 281 597 q 247 396 253 490 q 245 358 245 383 q 245 308 245 332 q 247 271 245 283 q 260 165 251 210 q 262 152 261 157 q 262 146 262 146 q 258 144 262 145 q 248 140 254 142 q 237 137 241 138 q 212 135 224 135 q 166 140 193 135 q 112 163 138 146 q 28 319 52 205 q 19 424 19 363 q 43 593 19 514 q 294 954 115 829 q 320 970 310 964 q 345 983 330 976 q 469 1021 404 1013 q 506 1023 482 1023 l 517 1023 q 543 1022 533 1023 q 729 889 666 1006 q 783 702 770 812 q 787 660 786 676 q 787 605 787 643 q 786 546 787 566 q 782 496 785 525 q 625 52 747 231 q 495 -50 559 -37 z "},"P":{"ha":822,"x_min":-24,"x_max":754,"o":"m 294 -104 q 294 -104 294 -104 l 294 -105 q 296 -104 295 -105 l 296 -103 l 297 -103 l 298 -104 q 298 -103 298 -104 q 298 -102 298 -103 l 299 -102 l 300 -102 q 303 -100 301 -102 q 308 -95 306 -98 q 310 -92 310 -93 l 311 -91 l 311 -90 q 315 -84 313 -88 q 317 -75 316 -79 l 317 -69 l 316 -68 q 312 -65 315 -68 q 307 -58 309 -62 q 304 -52 304 -54 q 304 -50 304 -51 q 304 -47 304 -48 q 297 -21 301 -42 q 290 23 294 -1 q 288 43 290 33 q 287 52 287 48 q 286 63 286 56 q 285 74 285 69 q 283 90 284 80 q 283 101 283 96 q 282 117 282 109 q 281 132 281 126 q 281 146 281 140 l 281 153 q 279 166 280 157 q 279 187 279 176 l 278 213 l 289 215 q 379 239 330 219 q 439 268 414 253 q 444 271 440 268 q 450 275 447 273 q 471 287 458 279 q 493 303 483 295 q 508 314 498 307 q 525 327 517 321 q 534 335 532 333 q 537 337 535 336 q 541 341 539 339 q 556 355 546 345 q 577 376 566 365 q 593 393 588 387 q 603 403 599 399 q 606 406 605 405 q 618 422 610 411 q 634 442 627 433 q 730 633 698 529 q 754 784 754 714 q 718 939 754 869 q 710 951 715 943 q 702 964 706 958 q 697 971 698 970 l 696 973 q 692 977 694 975 q 675 997 686 985 q 654 1016 663 1008 q 573 1061 618 1045 q 563 1064 568 1063 q 558 1065 559 1065 q 555 1067 557 1066 q 549 1068 552 1067 q 544 1069 546 1069 q 513 1075 528 1074 q 476 1077 498 1077 l 460 1077 q 437 1076 446 1077 q 422 1075 427 1076 q 411 1074 417 1075 q 393 1071 405 1073 q 384 1069 391 1070 q 370 1065 377 1067 q 359 1063 363 1063 q 117 915 223 1023 q 29 801 64 861 q -22 663 -15 726 l -22 659 q -23 654 -23 656 q -24 642 -24 650 q -23 622 -24 632 q -22 607 -23 612 q -20 588 -22 597 q -15 572 -18 578 q -12 561 -14 567 q -6 551 -9 555 q -3 547 -4 547 l -3 547 l -3 546 q 0 541 -3 545 q 6 534 3 538 q 12 530 9 531 q 15 529 14 529 q 18 530 16 529 q 20 531 19 530 q 22 533 22 532 q 26 534 22 533 l 30 534 q 35 535 33 534 q 37 536 37 535 l 39 537 q 41 538 40 538 q 42 539 41 539 q 43 540 42 540 q 43 540 43 540 q 43 541 43 541 q 44 543 43 542 q 44 547 44 545 l 44 549 q 44 554 44 553 q 43 557 44 556 q 42 558 43 557 l 41 558 q 39 562 41 559 q 37 565 38 563 q 20 634 20 585 q 33 709 20 671 q 190 923 76 826 q 397 1027 287 1004 q 469 1035 434 1035 q 534 1027 503 1035 q 694 886 651 997 q 711 781 711 836 q 659 568 711 684 q 541 401 616 476 q 446 321 496 355 q 290 258 364 269 l 284 257 q 279 256 279 256 q 278 258 278 256 q 279 260 278 258 l 279 264 q 279 295 279 275 q 281 341 280 326 q 281 366 281 357 q 282 374 282 370 l 282 379 q 283 389 283 385 q 283 391 283 391 q 283 393 283 393 q 283 399 283 393 q 284 418 283 406 q 286 434 285 427 q 286 441 286 441 l 286 459 q 287 461 287 460 q 288 476 288 469 q 288 486 288 484 q 289 496 288 490 q 290 511 289 503 q 291 523 290 517 q 292 542 292 535 q 293 556 292 548 q 294 572 293 565 q 295 583 294 578 l 295 588 q 295 594 295 589 q 296 606 295 599 l 296 611 q 301 749 301 680 q 295 830 301 812 q 293 836 294 833 q 292 839 293 838 q 292 841 292 840 q 290 843 291 842 q 288 845 289 844 q 287 846 288 846 q 285 846 286 846 l 284 846 q 282 845 283 846 q 277 845 280 845 q 267 844 273 844 q 251 839 255 843 l 251 831 q 252 827 252 829 q 253 823 252 825 q 254 817 253 821 q 258 776 256 806 q 259 722 259 747 q 258 708 258 716 q 257 696 257 701 q 257 682 257 692 q 256 663 256 673 q 255 647 255 654 q 255 640 255 641 l 255 633 q 254 616 254 626 q 252 598 253 605 l 252 592 q 252 589 252 591 q 252 582 252 587 q 250 567 252 577 q 250 550 250 557 l 249 543 q 250 541 250 543 q 249 533 250 538 q 247 519 248 528 q 246 500 246 507 l 245 494 q 246 489 246 494 q 245 477 245 484 l 245 475 q 244 460 244 468 q 243 441 243 448 q 242 425 243 431 l 242 424 q 240 397 241 421 q 238 343 239 374 q 237 289 237 312 q 236 266 237 276 q 235 256 235 256 l 233 256 q 226 257 231 256 q 213 258 221 257 q 199 260 205 259 q 181 266 189 262 q 165 275 174 269 q 133 305 144 289 q 131 307 132 307 q 130 307 130 307 q 129 307 129 307 q 128 308 128 307 q 126 309 128 309 q 122 308 124 309 q 119 307 119 308 q 117 306 118 307 q 115 306 117 306 q 112 304 115 306 q 110 303 111 303 q 109 302 109 302 l 106 300 q 104 298 105 299 q 102 297 103 297 q 101 296 101 296 q 100 295 100 296 q 99 294 99 295 q 99 293 99 294 q 98 292 99 292 q 97 288 97 290 q 99 281 97 286 q 114 261 102 273 q 137 242 125 250 q 145 236 142 239 q 151 233 149 234 q 155 230 152 231 q 157 229 155 230 q 162 227 159 229 q 186 219 171 223 q 218 214 202 216 l 224 214 q 235 212 233 212 l 236 212 l 235 212 q 236 194 235 211 q 238 134 236 177 l 238 128 q 240 98 239 114 q 242 71 241 82 q 243 57 243 59 q 244 48 244 55 q 245 35 245 42 q 247 20 246 26 q 249 11 248 14 q 250 3 249 9 q 252 -14 252 -4 q 255 -29 254 -22 q 256 -37 256 -36 q 268 -74 263 -63 q 279 -94 272 -85 q 288 -100 283 -98 q 292 -103 290 -103 l 293 -102 q 294 -103 294 -102 q 294 -104 294 -103 z "},"Q":{"ha":996,"x_min":-24,"x_max":928,"o":"m 269 -144 l 273 -148 l 278 -146 q 294 -141 281 -144 q 312 -136 302 -139 q 604 -73 446 -98 q 861 -35 747 -49 q 895 -30 880 -32 q 913 -28 909 -28 q 917 -27 915 -27 q 920 -27 918 -27 l 920 -27 q 921 -26 921 -27 l 921 -26 l 922 -24 l 923 -25 l 924 -25 q 924 -24 924 -25 l 924 -24 l 925 -23 q 926 -23 926 -23 q 926 -22 926 -22 q 926 -20 926 -21 l 926 -20 q 927 -18 926 -19 q 928 -16 928 -18 q 928 -9 928 -13 q 927 -2 928 -5 q 926 2 927 1 l 926 4 l 924 9 q 923 10 923 9 q 922 11 922 10 q 922 12 922 12 l 922 13 q 920 14 921 14 q 919 14 920 14 q 919 14 919 14 q 916 15 919 15 q 908 14 914 15 q 891 12 902 14 q 863 9 880 11 q 646 -22 753 -5 l 638 -24 l 642 -19 q 657 0 648 -11 q 668 14 665 10 q 691 48 682 34 q 833 490 798 231 q 841 612 841 542 q 826 768 841 705 q 740 957 803 884 q 731 966 738 960 q 718 980 724 973 q 709 988 711 986 q 593 1049 657 1033 q 571 1055 584 1052 q 551 1059 559 1057 q 545 1059 549 1059 q 538 1060 542 1059 q 527 1061 536 1061 q 509 1061 518 1061 l 494 1061 q 410 1050 450 1061 q 219 949 311 1026 q 180 912 201 932 q 144 873 160 891 l 140 867 q 137 863 138 865 q 134 861 135 861 q 125 849 132 857 q 113 833 119 841 q 104 820 106 825 q 99 813 102 817 q 96 808 97 810 l 87 795 q 83 788 85 792 q 77 779 80 783 q 68 764 73 772 q 59 747 64 757 q 50 729 56 741 q 38 705 43 717 q 28 686 32 692 q 25 677 27 681 q 23 671 24 673 q 12 642 18 659 q 1 611 5 624 q -24 441 -24 530 q -16 353 -24 395 q -16 350 -16 352 q -15 345 -16 347 q -9 321 -13 335 q -1 294 -5 307 q 71 174 24 220 q 81 164 77 168 q 87 159 85 160 q 94 153 90 157 q 98 150 96 151 q 100 147 100 148 q 104 146 101 147 q 108 144 105 144 q 115 139 113 140 q 125 134 118 137 q 139 127 132 130 q 151 122 146 123 q 235 109 193 109 q 323 123 279 109 q 345 131 333 125 q 365 140 357 136 q 374 144 373 144 q 376 138 374 144 q 378 130 377 134 q 386 97 381 115 q 393 71 391 79 q 394 70 394 71 q 395 68 394 69 q 397 60 395 67 q 404 44 400 52 q 410 30 407 35 q 418 13 413 22 q 426 -1 422 4 q 446 -30 435 -17 q 465 -50 456 -43 q 469 -52 468 -52 l 469 -53 q 469 -54 469 -54 q 462 -55 467 -54 q 441 -59 454 -57 q 330 -86 389 -71 q 291 -97 306 -93 q 268 -104 275 -102 q 258 -109 260 -107 q 255 -113 255 -111 q 252 -116 255 -116 q 250 -119 250 -116 q 249 -124 249 -121 q 249 -128 249 -126 q 250 -132 249 -130 q 250 -132 250 -132 l 250 -134 l 250 -134 l 251 -134 l 251 -135 q 251 -136 251 -136 q 252 -136 252 -136 l 253 -137 q 254 -137 254 -137 q 255 -137 254 -137 q 256 -138 256 -138 l 256 -139 q 258 -140 257 -140 q 261 -140 260 -140 q 266 -141 264 -140 q 269 -144 267 -142 m 549 -31 q 536 -33 543 -33 q 524 -33 529 -33 q 424 121 459 -15 q 417 151 420 136 q 414 172 414 167 q 411 195 413 183 q 409 210 410 206 q 405 242 407 217 q 401 298 402 267 l 401 330 q 401 381 401 348 q 403 440 401 414 q 432 643 411 559 q 449 699 440 675 q 462 724 457 722 q 464 726 463 725 q 465 729 465 727 q 467 731 466 730 q 469 732 468 732 l 469 732 q 471 733 470 733 q 471 734 471 734 q 472 735 471 735 q 473 735 473 735 q 474 735 473 735 q 475 736 475 736 q 475 737 475 737 q 476 737 475 737 l 477 737 l 477 749 q 475 754 477 752 q 469 756 474 755 l 468 756 q 465 756 466 756 q 465 758 465 757 q 465 760 465 760 q 464 760 465 760 q 463 761 463 760 q 462 763 462 762 q 456 766 461 766 q 452 766 456 766 q 440 762 448 766 q 406 707 422 754 q 359 434 370 606 q 357 367 357 410 l 357 298 q 361 237 359 269 q 367 195 364 205 q 366 193 367 193 q 364 190 366 192 q 358 186 362 189 q 238 153 302 153 q 171 161 205 153 q 146 172 160 165 q 122 185 132 178 q 103 202 114 192 q 86 221 92 213 q 31 338 49 269 q 18 444 18 389 q 47 614 18 525 q 263 928 114 806 q 453 1016 354 1001 q 490 1019 468 1018 q 509 1019 500 1019 q 526 1019 519 1019 q 722 911 653 1006 q 798 629 794 812 l 798 621 q 751 300 798 467 q 627 31 703 134 q 549 -31 586 -22 z "},"R":{"ha":856,"x_min":-24,"x_max":802,"o":"m 270 -100 q 271 -101 270 -101 q 273 -100 272 -101 q 276 -100 274 -100 l 279 -100 q 281 -99 280 -100 q 283 -98 282 -98 q 284 -97 283 -98 q 286 -97 286 -97 q 289 -97 288 -97 q 290 -96 290 -96 q 291 -95 290 -95 q 292 -94 292 -94 q 294 -94 293 -94 q 296 -93 295 -94 q 297 -92 297 -92 q 297 -90 297 -91 q 298 -90 298 -90 l 300 -88 l 300 -87 q 300 -86 300 -87 l 301 -85 l 301 -82 q 300 -75 300 -79 q 298 -68 299 -72 q 289 38 290 -32 q 288 92 288 57 q 289 158 288 127 q 289 195 289 189 l 290 200 l 297 205 q 304 208 300 207 q 317 211 309 210 q 340 213 325 212 q 371 214 350 214 q 415 214 393 214 q 449 212 437 214 q 686 153 618 194 q 691 149 688 151 q 696 146 694 147 q 700 145 699 146 q 702 144 701 144 l 702 143 l 703 144 l 703 145 l 704 145 q 705 144 705 144 q 706 145 706 144 q 707 146 706 146 q 708 146 707 146 q 710 147 709 146 q 714 151 712 149 q 718 155 718 155 q 720 157 718 156 q 721 158 720 157 q 722 161 722 159 q 723 162 722 161 q 724 163 723 163 q 725 166 724 165 q 725 172 725 168 q 725 176 725 175 q 721 180 724 178 q 694 198 711 189 q 658 214 677 208 q 612 228 640 221 q 570 238 585 235 l 567 238 q 564 239 565 239 q 406 257 487 255 l 376 258 l 387 267 q 632 501 525 372 q 781 746 739 631 q 789 768 786 758 q 795 793 792 779 q 802 852 802 824 q 791 921 802 888 q 784 937 788 928 q 777 951 780 945 q 772 958 773 957 l 772 958 q 771 959 771 958 q 771 959 771 959 q 770 960 770 959 q 758 977 770 960 l 755 980 q 744 993 751 985 q 684 1036 718 1019 q 660 1047 673 1042 q 640 1055 646 1053 q 639 1055 640 1055 l 637 1055 q 624 1060 633 1057 q 607 1064 616 1062 q 593 1067 598 1066 q 590 1067 591 1067 q 587 1069 588 1068 l 583 1069 q 571 1071 578 1069 q 527 1074 554 1073 q 502 1074 513 1074 q 481 1074 491 1074 q 464 1071 474 1072 q 443 1068 453 1069 q 429 1066 433 1067 q 427 1065 428 1065 q 423 1065 425 1065 q 401 1060 416 1064 q 373 1053 387 1057 q 144 931 248 1016 q 59 845 97 891 q 51 834 54 838 q 44 825 47 830 q 34 809 40 819 q -24 640 -24 721 q -20 601 -24 621 q -11 569 -18 587 q 2 545 -3 551 q 4 543 3 544 q 4 541 4 542 q 8 536 4 541 l 13 532 q 45 510 29 513 q 47 509 46 509 q 48 510 47 509 q 52 513 50 511 l 52 513 q 56 516 54 515 q 60 517 57 517 q 64 518 64 517 q 65 519 64 519 q 66 519 66 519 q 70 523 68 519 q 72 532 71 526 q 66 541 72 541 q 64 543 64 542 l 64 544 q 57 551 64 547 q 42 563 50 554 q 29 585 35 572 q 19 642 19 612 q 71 788 19 708 q 222 935 127 871 q 462 1027 334 1010 q 508 1030 479 1030 l 522 1030 q 554 1029 541 1030 q 694 979 639 1021 q 758 878 747 940 q 759 853 759 868 l 759 846 q 758 826 759 835 q 691 659 749 754 q 311 265 550 431 l 292 252 l 291 256 q 292 278 291 259 q 292 292 292 285 l 292 294 q 294 317 293 307 q 294 332 294 328 q 295 345 294 335 q 296 366 296 355 q 297 385 296 375 q 298 403 298 395 q 299 412 299 408 q 300 431 299 420 q 301 441 301 437 q 302 452 301 445 q 302 467 302 459 q 303 473 303 471 q 304 482 303 478 q 304 492 304 488 q 304 497 304 496 q 307 534 305 501 q 312 618 309 568 q 313 684 313 646 q 312 741 313 722 q 311 751 311 747 q 311 756 311 755 l 311 759 q 310 764 311 761 q 310 771 310 767 q 309 779 309 775 l 309 783 l 308 785 l 308 787 q 307 791 307 789 q 302 818 304 807 q 297 831 299 829 q 295 832 296 831 q 292 832 294 832 q 286 832 290 832 q 275 831 281 831 q 265 830 268 831 q 261 829 262 829 q 259 826 260 828 q 258 821 258 823 q 260 809 258 816 q 266 777 263 795 q 269 749 269 759 q 269 739 269 747 q 269 724 269 732 q 270 701 270 715 q 270 664 270 688 q 269 614 269 640 q 267 597 268 606 q 266 571 267 581 q 262 501 264 539 q 261 484 262 495 q 259 463 260 473 q 258 439 258 452 q 257 414 257 425 q 254 377 255 397 q 254 366 254 372 q 253 356 253 361 q 252 345 252 349 q 252 339 252 340 q 251 330 252 337 q 250 312 250 322 q 249 293 250 302 q 249 280 249 284 q 248 268 248 275 q 248 254 248 260 l 248 239 l 236 235 q 207 222 220 229 q 189 209 194 214 q 182 194 182 201 l 182 191 q 182 190 182 191 q 182 188 182 189 l 181 188 l 181 187 l 182 187 l 182 185 q 183 182 182 184 q 186 178 184 180 q 189 174 188 176 q 191 173 190 174 q 193 172 191 172 q 193 171 193 171 q 200 168 196 169 q 210 167 205 167 q 218 168 213 167 q 228 170 223 169 q 234 173 232 172 q 236 174 235 174 q 239 174 238 174 q 241 176 240 175 q 243 176 243 176 q 244 176 244 176 q 245 174 245 176 q 245 169 245 172 q 245 159 245 165 q 245 143 245 153 q 245 121 245 134 q 248 -2 245 34 q 249 -15 248 -7 q 249 -27 249 -22 q 251 -44 250 -35 q 254 -66 252 -52 q 255 -70 255 -68 q 260 -90 257 -82 q 265 -98 263 -98 l 266 -99 q 267 -100 266 -100 q 269 -100 267 -100 l 269 -99 l 269 -100 q 270 -100 270 -100 z "},"S":{"ha":698,"x_min":-24,"x_max":589,"o":"m 220 -62 l 229 -62 q 247 -62 235 -62 q 275 -62 258 -62 q 300 -60 291 -61 q 518 20 431 -47 q 587 113 572 64 q 589 125 588 117 q 589 142 589 134 q 588 155 589 150 q 588 159 588 157 q 587 162 587 161 q 582 175 586 166 q 574 190 577 184 q 553 211 566 200 q 526 231 541 222 q 518 236 524 233 q 508 241 513 239 q 500 245 503 244 q 498 246 500 245 l 492 249 q 487 251 490 250 q 482 253 484 252 q 478 254 480 253 q 475 256 477 255 q 457 262 470 258 q 431 270 444 266 q 322 294 397 279 q 211 319 248 309 q 144 343 173 330 q 121 356 131 350 q 101 370 111 361 q 79 390 91 378 q 60 412 67 402 q 20 549 20 471 q 44 680 20 609 q 109 806 68 745 q 235 941 164 888 q 367 993 308 993 q 429 975 400 993 q 517 769 500 926 q 521 686 521 730 q 502 473 521 590 q 499 454 499 460 l 499 451 q 500 447 499 448 l 500 445 q 500 444 500 444 l 502 444 l 502 444 l 503 442 q 504 441 503 441 l 505 441 q 506 441 505 441 q 506 440 506 441 q 511 439 507 439 q 521 438 515 438 q 530 439 526 438 q 534 441 534 439 q 535 441 534 441 q 536 441 535 441 q 538 442 537 441 q 539 443 539 442 q 542 455 540 444 q 547 482 544 466 q 551 513 549 498 q 563 651 559 576 q 564 691 564 671 q 515 940 564 846 q 511 947 513 944 q 509 951 509 951 q 507 954 508 952 q 505 956 506 955 q 504 959 505 958 q 503 961 503 960 q 500 964 502 962 q 497 968 498 966 q 488 979 494 972 q 475 993 481 986 q 465 1003 468 1000 q 442 1017 454 1010 q 418 1027 429 1024 q 394 1034 406 1032 q 367 1036 383 1036 q 334 1033 349 1036 q 301 1025 320 1031 q 268 1011 286 1019 q 238 995 250 1003 q 234 993 236 994 l 232 991 q 225 987 231 991 q 211 977 218 983 q 198 967 203 971 q 50 793 111 899 q -24 547 -24 663 q -22 511 -24 529 q -20 501 -21 506 q -19 494 -19 496 q -18 488 -18 491 q -17 484 -17 486 q -11 459 -16 475 q -1 434 -5 444 q 1 427 0 431 q 3 424 3 425 q 10 410 5 419 q 21 393 16 401 q 125 305 58 336 q 153 293 142 297 q 180 283 163 288 q 232 269 202 275 q 315 252 262 262 q 422 228 384 238 q 487 204 460 217 q 547 139 547 175 q 545 125 547 131 q 539 109 543 119 q 450 28 517 64 q 292 -18 381 -9 q 264 -19 282 -19 l 247 -19 q 225 -19 238 -19 q 203 -18 212 -19 q 134 4 149 -13 q 121 16 123 16 l 120 16 q 119 16 120 16 q 117 16 119 16 q 116 16 117 16 q 115 16 115 16 q 113 15 114 16 q 111 14 112 15 l 108 13 q 106 12 107 13 q 104 10 105 12 l 103 9 q 101 7 102 7 q 100 7 100 7 q 99 7 99 7 q 98 5 98 6 l 98 4 q 95 2 96 3 q 93 -1 94 1 l 93 -2 q 93 -3 93 -3 q 92 -3 93 -3 q 92 -6 92 -4 q 92 -10 92 -7 q 95 -16 93 -12 q 103 -26 98 -21 q 112 -34 107 -31 q 117 -37 116 -36 q 122 -41 118 -39 q 132 -46 127 -43 q 142 -50 138 -48 q 175 -58 157 -55 q 220 -62 193 -60 z "},"T":{"ha":562,"x_min":-24,"x_max":765,"o":"m 330 -47 q 332 -48 330 -48 q 335 -49 333 -49 q 339 -48 337 -49 q 342 -47 341 -48 q 344 -46 342 -47 l 345 -46 q 347 -45 346 -45 l 349 -44 l 350 -43 q 352 -42 351 -42 q 353 -41 353 -42 l 355 -39 q 357 -37 356 -38 q 359 -36 358 -36 q 360 -35 359 -35 q 360 -34 360 -35 q 361 -33 361 -33 q 361 -31 361 -31 q 362 -27 362 -29 q 362 -24 362 -26 q 359 -18 361 -22 q 341 68 349 -3 q 327 304 330 165 q 326 353 326 328 q 359 837 326 575 q 370 920 364 882 q 372 943 371 934 l 373 951 q 385 952 374 951 q 453 958 410 954 q 533 964 497 962 q 603 969 564 966 q 670 973 641 972 q 737 978 718 976 q 758 981 757 979 l 759 982 l 760 982 q 761 983 760 982 q 762 984 762 983 q 763 986 763 985 l 763 987 q 764 987 763 987 q 765 990 764 987 q 765 997 765 994 q 765 1004 765 1001 q 764 1008 765 1007 q 764 1008 764 1008 q 764 1009 764 1008 q 764 1011 764 1010 q 763 1015 764 1013 l 760 1017 q 760 1019 760 1018 q 759 1019 760 1019 q 758 1019 758 1019 q 758 1020 758 1019 q 751 1021 757 1021 q 745 1022 748 1022 q 737 1021 741 1022 q 715 1020 732 1021 q 677 1017 699 1019 q 563 1009 608 1013 q 442 1000 517 1006 l 373 994 l 371 997 q 369 998 370 998 q 367 999 368 999 q 364 998 366 999 l 361 998 q 359 998 361 998 q 356 999 357 998 q 355 1000 356 1000 q 354 1000 355 1000 q 354 1000 354 1000 q 352 1000 353 1000 q 349 1001 351 1001 q 347 1002 347 1002 q 345 1001 345 1002 l 342 1001 q 341 1001 342 1001 q 341 1000 341 1001 q 340 1000 341 1000 q 339 1000 340 1000 l 338 1000 q 338 1000 338 1000 q 338 999 338 1000 l 338 999 q 337 998 338 998 q 336 998 336 998 q 336 997 336 998 q 336 996 336 996 l 335 995 q 333 993 334 994 q 329 991 332 991 q 316 989 325 990 q 123 971 182 977 q 36 958 60 963 l 33 958 q 29 957 31 957 q 16 954 24 956 q 2 950 9 952 q -9 946 -5 948 q -18 940 -15 943 q -22 935 -22 937 q -22 932 -22 934 q -23 931 -22 931 q -24 926 -24 930 l -24 922 q -24 917 -24 920 q -22 911 -24 914 q -19 909 -21 909 l -12 909 q -11 909 -12 909 q -9 909 -10 909 l -9 908 l -9 907 l -7 907 q -2 906 -3 907 q 1 905 -1 905 q 3 905 2 905 q 9 907 5 905 q 271 943 43 922 q 303 945 291 944 q 314 946 309 945 q 321 947 318 947 q 325 947 323 947 q 328 947 327 947 l 329 947 l 329 946 l 328 935 q 325 907 326 924 q 288 522 296 697 q 283 357 283 437 q 294 102 283 225 q 325 -42 305 -24 l 327 -46 q 327 -47 327 -47 q 328 -47 328 -47 l 330 -47 l 330 -47 l 330 -47 z "},"U":{"ha":766,"x_min":-24,"x_max":630,"o":"m 155 -45 l 169 -45 q 188 -42 178 -45 q 203 -37 198 -40 q 211 -34 205 -37 q 216 -31 214 -33 q 262 3 237 -22 q 282 25 273 14 q 301 50 291 36 q 511 532 400 191 l 524 572 l 524 561 q 519 455 520 515 l 519 416 q 520 349 519 379 q 533 168 524 251 q 556 48 543 85 q 566 29 559 38 q 575 20 572 20 q 576 20 576 20 q 576 19 576 20 q 578 18 576 18 q 581 18 579 18 q 583 19 582 18 l 585 19 q 587 19 586 19 q 589 20 587 19 q 589 21 589 21 q 590 22 589 22 q 591 23 591 22 q 593 24 592 23 q 596 27 595 25 q 600 30 598 28 l 601 31 q 603 35 601 33 q 605 36 604 35 q 606 37 606 37 q 605 39 605 39 q 606 41 605 40 q 606 43 606 41 q 602 52 606 45 q 578 158 589 68 q 564 347 567 248 q 563 404 563 370 q 563 459 563 420 q 564 530 563 498 q 581 747 570 652 q 582 751 582 749 q 584 769 583 762 q 587 784 585 777 q 592 806 589 792 q 629 986 629 941 q 630 993 630 989 q 629 1000 630 996 q 627 1004 628 1004 q 627 1004 627 1004 q 627 1006 627 1005 q 627 1006 627 1006 q 626 1006 627 1006 l 626 1007 q 625 1008 625 1007 q 624 1009 625 1008 q 619 1014 623 1012 q 612 1017 615 1017 l 610 1017 q 607 1017 608 1017 q 606 1016 606 1016 l 604 1016 q 603 1016 603 1016 q 602 1015 602 1015 q 599 1013 601 1013 l 595 1013 q 593 1014 594 1014 q 572 959 585 1014 q 545 808 556 896 q 542 791 543 798 q 538 774 541 784 q 531 747 536 765 q 412 379 472 539 q 327 180 370 265 q 252 55 288 100 q 232 34 244 46 q 213 16 220 22 q 196 6 206 12 q 180 -1 186 1 q 168 -2 174 -2 q 86 71 123 -2 q 22 382 35 174 q 20 429 21 398 l 20 460 q 20 499 20 475 q 21 541 20 523 q 76 899 31 768 q 83 917 80 911 q 88 923 85 922 q 90 924 89 924 q 92 926 92 926 l 92 927 l 94 927 q 95 927 94 927 q 95 928 95 928 q 96 929 95 929 q 97 930 96 930 q 98 930 98 930 q 98 931 98 930 q 97 932 97 931 q 98 932 97 932 l 98 935 l 98 939 q 98 943 98 941 q 98 946 98 945 q 95 947 97 946 q 93 948 94 947 q 91 949 92 948 l 90 949 q 91 950 90 949 q 91 952 91 951 q 89 955 91 953 q 87 956 88 956 q 86 956 87 956 l 85 956 q 84 957 85 956 q 81 958 83 958 q 74 959 79 959 q 65 958 69 959 q 60 956 60 957 l 60 955 l 60 955 q 57 953 59 955 q 51 947 54 951 q 44 935 47 942 q 37 918 40 927 q 35 913 36 916 q 33 909 34 910 q 27 887 31 904 q 18 853 22 871 q -20 585 -10 738 q -24 475 -24 530 q -20 366 -24 420 q 7 171 -12 251 q 8 166 7 170 q 10 157 9 162 q 27 102 17 130 q 47 52 37 73 q 54 40 50 46 q 60 28 58 33 q 64 23 63 23 q 65 22 64 22 q 65 22 65 22 q 65 21 65 22 q 76 5 65 20 q 90 -10 82 -2 q 105 -24 98 -18 q 127 -37 115 -31 q 150 -44 140 -43 l 154 -44 l 155 -45 z "},"V":{"ha":642,"x_min":-24,"x_max":574,"o":"m 201 -56 l 208 -56 q 219 -56 212 -56 q 231 -55 226 -56 q 238 -52 233 -54 q 246 -48 242 -50 q 250 -46 250 -47 l 251 -45 l 252 -45 q 254 -44 253 -44 q 268 -32 258 -41 q 283 -14 277 -22 q 350 127 317 31 q 410 328 377 204 q 494 671 442 451 q 515 759 503 709 q 535 846 527 808 q 574 1012 574 1006 q 573 1016 574 1015 q 572 1019 573 1017 q 570 1021 571 1020 q 569 1022 569 1021 q 568 1024 569 1023 q 565 1025 566 1025 q 563 1025 564 1025 q 562 1026 562 1025 q 560 1027 561 1027 q 557 1027 559 1027 l 555 1027 q 553 1028 555 1027 q 548 1028 551 1028 q 543 1029 545 1029 q 541 1028 541 1029 q 541 1027 541 1027 q 540 1027 541 1027 q 538 1027 538 1027 q 538 1027 538 1027 q 537 1025 538 1025 q 536 1025 536 1025 q 535 1026 535 1026 q 535 1025 535 1025 l 535 1023 q 533 1019 534 1023 q 529 1006 532 1016 q 523 979 527 997 q 513 939 519 966 q 494 859 505 901 q 475 778 486 823 q 456 694 464 730 q 367 334 401 460 q 307 133 334 207 q 239 0 271 32 q 214 -14 227 -14 q 190 -1 202 -14 q 95 201 140 47 q 21 655 37 412 q 18 785 18 719 q 19 845 18 798 q 24 935 19 891 l 24 937 q 25 942 24 941 q 26 945 25 944 q 27 945 26 945 l 30 947 q 30 948 30 947 q 31 949 31 949 q 34 951 33 949 q 36 956 35 953 q 36 963 36 960 q 35 967 36 966 q 33 971 35 969 q 31 974 32 972 q 30 975 30 975 l 28 977 q 24 979 26 978 q 20 981 22 981 l 18 982 l 17 981 q 16 982 16 981 q 14 983 16 983 q 9 983 12 983 q 4 982 6 983 q 1 981 1 982 l 1 981 q -1 980 0 981 q -2 979 -1 980 q -9 974 -5 978 q -14 965 -12 969 q -23 891 -20 951 q -24 831 -24 874 l -24 787 q -24 732 -24 766 q -23 680 -24 699 q -7 497 -18 583 q 89 87 25 248 q 103 54 94 75 q 119 23 113 33 q 157 -29 137 -8 q 167 -38 161 -33 q 177 -45 172 -42 q 184 -50 182 -49 q 186 -51 185 -50 q 189 -52 188 -51 q 191 -52 190 -52 q 193 -53 193 -52 l 194 -53 q 195 -54 194 -54 q 197 -54 195 -54 q 201 -56 199 -55 z "},"W":{"ha":1010,"x_min":-24,"x_max":848,"o":"m 163 -58 q 171 -58 165 -58 q 184 -58 178 -58 q 193 -58 191 -58 q 199 -56 197 -57 q 204 -55 202 -56 q 210 -53 206 -54 q 317 51 266 -35 q 327 69 320 56 q 339 93 334 81 q 348 111 345 105 q 351 117 349 113 q 352 121 351 119 q 442 410 392 210 l 453 454 l 454 446 q 469 343 458 397 q 492 249 479 289 q 494 241 493 244 l 496 237 q 498 230 496 237 q 503 215 500 223 q 509 201 506 206 q 568 102 534 136 q 578 94 572 98 q 587 86 583 90 q 592 83 591 83 q 593 83 593 83 q 594 82 594 83 q 598 79 594 81 q 608 74 603 77 q 618 71 614 72 q 626 68 623 69 q 634 67 629 68 q 646 67 638 67 l 648 67 q 658 67 654 67 q 665 68 662 68 q 673 71 668 69 q 728 108 702 79 q 804 250 772 156 q 839 417 829 326 q 848 557 848 490 q 844 640 848 600 q 841 675 843 656 q 837 704 839 695 q 836 709 836 706 q 836 714 836 712 q 823 776 832 736 q 808 839 814 816 q 757 949 783 919 q 752 954 755 951 q 747 960 749 958 q 740 963 743 962 q 737 964 739 964 q 734 962 735 964 l 734 962 q 733 962 734 962 q 729 960 732 962 l 726 958 q 726 958 726 958 l 724 957 q 723 956 724 956 q 722 954 722 955 l 723 954 l 722 954 l 721 954 l 720 952 l 719 952 q 718 951 718 951 q 718 949 718 950 q 715 945 717 947 q 714 943 714 944 q 713 941 713 942 l 713 941 q 713 939 713 940 q 712 939 712 939 q 712 938 712 939 q 713 936 713 937 q 713 935 713 935 q 715 931 713 934 q 718 927 717 929 q 739 897 730 914 q 758 854 748 880 q 785 752 772 811 q 801 639 797 692 q 805 551 805 595 q 794 401 805 477 q 691 132 764 205 q 645 109 668 109 q 602 131 623 109 q 528 277 557 172 q 490 530 499 380 q 489 548 490 540 q 485 596 487 584 q 484 604 485 599 q 484 614 484 609 q 483 619 484 616 q 482 624 483 623 q 479 625 481 624 q 476 626 478 625 q 472 626 474 626 q 471 627 471 627 l 470 628 l 466 628 q 464 629 465 629 q 461 630 463 629 q 458 631 459 630 q 455 632 456 632 q 453 633 454 633 q 450 631 452 633 q 446 627 448 629 q 443 624 444 625 q 442 622 442 623 l 442 621 q 441 620 442 621 l 441 618 q 440 615 441 617 q 439 610 439 612 q 432 565 438 596 q 420 506 427 534 q 376 328 401 416 q 329 180 351 240 q 191 -14 265 8 q 178 -16 184 -16 q 170 -15 176 -16 q 155 -12 163 -15 q 96 43 124 0 q 22 313 37 133 q 19 406 19 359 q 34 621 19 496 q 88 867 49 745 q 138 978 114 943 l 143 987 l 156 987 q 162 988 160 987 q 164 989 163 988 q 166 990 165 989 q 168 990 167 990 q 169 992 168 990 q 171 995 170 994 q 172 1000 172 998 q 171 1006 172 1003 q 168 1013 170 1009 q 140 1031 159 1031 l 139 1031 q 116 1020 125 1031 q 110 1013 113 1017 q 104 1005 106 1008 q 102 1001 102 1002 q 100 1000 102 1000 q 99 998 100 998 q 67 934 86 979 q 37 845 49 888 q 33 834 35 839 q 32 829 33 831 q 15 760 24 805 q 0 685 5 715 q -1 678 0 684 q -3 666 -2 673 q -5 647 -4 659 q -9 627 -7 636 q -24 407 -24 510 q -11 221 -24 334 q 61 18 2 108 q 66 10 64 13 l 68 7 q 112 -37 93 -23 q 118 -41 115 -39 l 120 -42 q 125 -45 121 -42 q 142 -52 132 -49 q 163 -58 152 -56 z "},"X":{"ha":712,"x_min":-24,"x_max":736,"o":"m -1 -22 q 1 -23 0 -23 l 2 -24 q 2 -23 2 -23 q 4 -23 3 -23 q 5 -23 5 -23 q 9 -22 8 -23 q 13 -20 11 -22 q 16 -15 14 -18 q 20 -10 18 -12 q 21 -7 21 -8 q 24 -3 21 -7 q 26 1 25 -1 l 32 9 q 47 33 39 19 q 63 56 56 45 q 71 68 68 64 l 73 72 q 77 79 77 79 l 81 83 q 87 93 83 87 q 94 103 91 98 q 97 108 97 107 q 100 112 98 109 q 109 125 103 117 q 127 154 119 142 q 136 168 136 167 l 140 173 q 148 184 143 178 q 153 192 151 189 q 158 199 156 196 l 159 202 l 161 205 q 167 212 163 208 q 171 218 169 215 q 174 224 173 221 l 176 227 q 180 233 177 229 q 187 243 184 238 q 194 253 191 248 q 197 259 197 257 q 202 265 199 260 q 210 276 205 270 q 217 286 214 282 q 219 291 219 290 l 220 292 q 222 295 221 293 q 225 299 224 297 q 229 304 227 302 q 235 313 232 310 q 241 323 236 315 q 249 334 245 328 q 258 347 254 342 l 261 352 q 263 354 262 354 l 264 353 q 266 350 264 352 q 268 347 267 349 q 271 340 270 342 q 273 337 273 338 q 276 334 274 336 q 279 328 277 332 q 283 320 281 325 q 289 311 286 315 q 296 300 292 307 l 304 288 q 317 267 309 278 q 330 250 324 256 q 336 241 332 248 q 345 230 340 235 q 350 222 349 224 l 357 215 q 362 209 359 212 q 383 186 372 198 q 401 170 395 174 q 406 165 404 168 l 408 163 q 411 161 409 163 q 416 157 414 159 q 420 153 419 155 q 435 143 426 149 q 452 132 444 137 q 464 124 460 126 q 471 120 467 122 l 476 117 q 503 103 488 111 q 524 93 518 96 q 531 91 528 92 q 535 90 534 90 q 548 84 541 87 q 564 79 556 81 q 574 76 571 77 q 580 75 575 75 q 587 73 583 74 q 633 66 613 66 q 641 66 637 66 q 644 65 644 66 q 649 65 645 65 q 659 66 653 66 q 668 67 664 66 q 674 68 673 68 q 682 70 675 68 q 689 73 685 71 q 726 87 713 79 q 731 90 729 89 q 732 92 732 92 l 732 93 l 734 93 q 735 93 734 93 q 735 94 735 94 q 735 95 735 94 l 735 96 q 736 98 736 96 q 736 102 736 100 q 735 106 736 104 q 734 107 734 106 q 733 108 733 107 q 732 112 733 109 q 729 118 730 115 q 725 123 727 121 q 723 125 724 125 l 721 127 q 720 127 720 127 l 719 127 q 718 127 718 127 q 717 128 717 127 l 716 128 q 710 126 715 128 q 699 121 705 125 q 691 118 695 120 q 686 116 688 117 q 681 114 684 115 q 677 113 679 113 q 648 109 668 109 l 641 109 q 610 112 625 109 q 542 133 573 119 q 518 144 527 140 q 502 152 509 148 q 495 156 498 155 l 492 157 q 482 163 490 157 q 464 175 473 169 q 449 186 454 182 q 444 190 447 188 q 438 195 441 193 q 435 197 435 197 q 424 207 431 199 q 408 223 416 214 q 395 237 399 231 q 389 243 392 241 q 384 250 385 249 q 377 257 382 251 q 366 273 372 264 q 354 289 359 281 q 347 299 351 294 q 342 308 342 307 q 336 317 340 309 q 325 334 331 324 q 316 349 320 342 q 311 358 313 354 q 307 364 308 363 q 303 370 306 366 q 298 381 301 375 q 293 391 295 387 q 291 396 291 395 l 292 398 q 295 402 294 399 q 298 407 297 405 q 300 409 299 408 q 303 414 300 410 q 311 425 306 418 q 332 456 326 448 q 336 463 335 461 l 338 465 q 340 469 338 465 q 348 479 343 473 q 359 496 353 487 q 371 514 366 506 q 377 523 376 521 q 381 528 377 524 q 389 541 385 534 q 398 552 394 547 q 401 557 401 557 q 404 562 402 559 q 410 571 407 566 q 416 579 413 576 q 420 584 419 583 q 422 589 420 585 q 429 598 425 593 q 438 611 435 606 q 439 612 439 612 q 444 619 440 614 q 452 631 448 625 q 458 639 455 635 q 473 660 467 652 q 479 670 479 669 q 483 676 479 671 q 492 688 486 681 q 504 705 498 696 q 513 717 509 713 q 522 730 516 723 q 532 744 527 738 q 540 755 536 751 l 543 760 l 546 766 q 553 777 549 770 q 572 802 567 795 q 576 808 574 805 q 581 814 578 810 q 586 821 583 817 q 597 837 591 829 q 608 852 602 844 q 615 862 612 858 q 629 882 621 870 q 635 890 632 886 q 644 902 640 897 q 648 909 648 907 q 652 915 650 911 q 659 924 655 919 q 665 932 662 928 l 667 935 q 669 940 667 937 q 676 949 672 944 q 683 957 680 954 q 686 960 686 960 l 688 962 q 690 963 690 962 q 693 966 692 965 q 694 969 694 967 q 694 974 694 970 q 694 980 694 977 q 694 982 694 982 q 692 983 693 982 q 691 986 692 984 q 690 988 690 987 l 690 989 q 689 988 690 989 q 688 989 688 988 q 687 991 688 989 q 684 994 686 992 q 680 996 682 995 q 674 996 676 996 q 668 995 670 996 q 667 994 668 994 q 665 995 666 994 q 664 996 665 996 q 662 995 663 996 q 659 993 661 994 q 649 984 654 990 q 640 971 644 978 q 636 966 638 969 q 630 959 633 962 q 627 954 629 956 q 619 943 623 947 q 615 936 618 940 q 610 928 612 932 l 607 926 l 603 919 q 597 912 600 914 q 591 903 597 909 q 585 895 589 899 q 578 884 581 888 l 574 880 q 572 876 574 879 q 566 867 570 872 q 559 859 562 862 l 557 855 q 551 846 557 854 q 545 839 548 843 q 538 827 541 832 l 532 819 q 526 812 530 816 q 521 804 524 808 q 517 798 518 800 q 512 791 515 795 q 504 781 509 786 q 497 771 500 775 q 493 765 494 766 q 490 759 492 764 q 482 749 487 755 q 476 740 478 744 q 473 736 473 736 l 471 732 q 464 724 467 728 q 459 716 461 720 q 454 709 454 710 q 451 704 454 709 q 443 692 448 699 q 430 674 436 684 q 419 659 423 665 q 414 650 414 652 l 412 648 q 409 644 411 646 q 403 635 406 640 q 395 625 399 630 q 391 618 392 621 l 389 616 q 387 613 389 615 q 380 602 384 608 q 374 593 376 597 l 371 590 q 363 579 371 589 q 361 576 363 578 q 357 569 359 572 q 353 562 353 563 q 349 556 352 561 q 341 546 345 552 q 335 537 338 541 q 328 528 330 530 q 320 516 326 524 q 308 498 315 507 q 298 483 302 489 q 292 475 295 479 q 288 469 288 469 q 285 464 288 468 q 279 456 283 460 q 272 444 272 445 l 272 444 q 271 443 271 443 q 271 441 271 442 q 269 440 270 440 l 269 440 l 267 443 q 264 449 267 445 q 260 458 262 454 q 258 463 260 460 q 248 486 254 474 q 242 500 245 494 q 239 507 240 506 q 228 536 237 513 q 211 586 220 559 q 196 631 201 613 q 191 646 193 638 q 187 656 189 653 q 183 672 186 660 q 176 698 180 684 q 174 705 175 702 q 174 708 174 707 q 171 719 173 709 q 166 738 168 728 q 163 752 164 747 q 162 755 163 753 q 162 758 162 757 q 161 758 161 758 q 161 761 161 759 q 160 765 161 762 q 159 773 159 768 q 157 785 158 778 q 153 802 155 794 q 151 812 152 809 q 150 822 151 814 q 147 837 149 829 q 145 851 146 845 q 144 858 144 857 q 144 863 144 859 q 142 873 143 868 l 142 874 q 142 885 142 880 q 140 900 141 894 q 139 922 139 913 q 141 930 139 930 q 142 930 142 930 q 142 932 142 931 q 144 933 143 932 q 145 933 144 933 q 146 933 146 933 q 147 935 146 934 l 147 935 l 148 936 l 148 937 q 149 936 149 936 l 149 937 q 150 939 149 937 q 150 945 150 941 q 150 950 150 948 q 148 952 149 951 q 147 954 148 954 q 146 956 146 955 q 145 958 146 956 q 140 961 143 959 q 135 965 138 963 q 129 967 132 966 q 123 968 125 968 q 120 967 121 968 q 118 966 119 966 q 115 966 117 966 q 107 962 111 966 q 100 951 102 958 q 98 939 99 947 q 96 924 97 932 q 97 906 96 919 q 99 879 98 892 q 101 861 100 866 q 102 851 102 857 q 104 838 103 844 q 105 825 104 831 q 107 815 106 819 q 108 812 107 814 q 111 793 110 805 q 114 775 113 783 q 117 762 117 762 q 118 758 117 761 q 123 736 120 751 q 127 716 125 724 q 128 711 128 712 q 131 704 129 711 q 135 686 132 696 q 139 669 137 676 q 141 661 141 661 q 143 656 142 661 q 146 644 144 651 q 151 629 149 637 q 155 615 153 621 q 160 600 157 609 q 166 583 163 591 q 170 572 168 577 q 172 563 172 564 q 184 530 174 560 q 189 518 186 524 q 191 512 191 513 q 195 503 192 511 q 199 492 197 498 q 205 477 202 484 q 210 467 208 470 q 213 459 211 464 q 217 451 215 454 q 228 426 222 439 q 237 408 234 413 q 239 402 238 405 q 240 399 240 400 l 236 393 q 227 378 232 387 q 214 360 219 366 q 212 355 212 357 l 208 350 q 199 338 204 345 q 190 324 194 330 q 185 317 186 319 q 183 313 184 315 q 179 307 181 311 l 178 304 q 173 298 174 301 l 172 296 l 168 290 q 159 279 164 286 q 152 268 155 273 l 149 262 q 144 256 149 262 q 140 249 142 253 q 134 241 137 245 q 129 233 130 235 q 125 227 127 231 q 119 218 122 223 q 112 207 112 208 l 109 202 q 100 190 105 197 q 92 178 96 183 q 87 171 87 172 q 78 158 85 168 q 63 136 72 149 q 60 130 62 133 q 52 119 56 123 l 49 113 q 46 109 49 113 q 39 98 44 104 q 30 84 35 92 q 21 70 25 77 q 11 55 17 64 q 0 39 5 46 q -5 32 -3 35 q -9 24 -7 27 q -12 21 -12 22 l -12 20 q -13 19 -12 20 q -14 16 -14 18 q -22 2 -20 8 q -24 -3 -24 -1 q -23 -5 -24 -5 q -22 -6 -22 -5 q -22 -6 -22 -6 q -22 -7 -22 -7 q -21 -9 -22 -9 q -18 -11 -20 -10 q -16 -12 -17 -11 q -16 -14 -16 -13 q -15 -15 -16 -14 q -13 -16 -14 -15 q -12 -16 -12 -16 l -9 -18 q -8 -19 -9 -19 q -6 -20 -7 -20 q -1 -22 -3 -20 z "},"Y":{"ha":751,"x_min":-24,"x_max":629,"o":"m 263 -99 l 266 -99 q 279 -100 272 -100 q 468 27 392 -99 q 473 36 471 32 q 477 41 476 40 l 477 42 q 481 51 479 45 q 488 62 484 56 q 549 262 526 142 q 554 296 551 275 q 559 326 557 316 l 559 330 q 559 333 559 332 q 562 352 560 336 q 566 386 564 367 q 568 420 568 406 q 575 522 573 473 q 577 677 576 572 l 578 800 l 587 825 q 626 975 615 912 q 629 1016 629 995 l 629 1024 q 627 1047 629 1039 q 621 1060 625 1057 q 612 1069 616 1067 q 610 1070 610 1069 q 608 1072 608 1071 l 608 1072 q 603 1072 606 1072 q 595 1072 599 1072 q 588 1069 591 1071 q 572 1054 579 1065 q 567 1041 570 1048 q 562 1029 564 1033 q 562 1025 562 1028 q 560 1019 561 1023 q 554 996 557 1011 q 549 967 551 980 q 537 830 540 912 l 536 809 l 529 790 q 387 484 465 616 q 204 294 288 321 q 182 292 195 292 l 177 292 q 161 293 169 292 q 81 364 115 305 q 30 515 46 422 q 19 661 19 586 q 35 852 19 753 q 71 984 51 940 q 77 993 74 991 q 89 996 81 996 q 91 996 90 996 q 95 997 94 996 q 96 998 96 998 q 98 999 97 999 q 99 1000 98 1000 l 100 1000 q 100 1000 100 1000 q 101 1001 100 1001 q 102 1001 101 1001 q 102 1001 102 1001 q 103 1003 102 1002 q 103 1005 103 1004 q 103 1010 103 1007 q 103 1016 103 1015 q 100 1021 102 1018 q 92 1030 96 1027 q 85 1034 87 1034 l 85 1034 q 83 1035 85 1034 q 77 1037 81 1036 q 71 1038 74 1038 q 26 988 44 1038 q -12 826 1 923 q -24 659 -24 742 l -24 633 q 19 391 -20 488 q 38 351 27 371 q 58 321 49 332 q 60 318 58 320 q 64 311 62 315 q 81 294 71 304 q 99 277 91 283 q 109 271 102 275 q 121 263 115 267 q 127 260 127 260 q 129 259 128 260 q 131 258 130 258 q 137 256 133 257 q 146 253 142 254 q 155 250 151 251 q 158 250 157 250 l 161 250 q 172 249 164 249 l 180 249 q 190 249 184 249 q 201 250 196 249 q 376 388 285 265 q 409 438 390 409 q 438 486 427 467 q 444 496 439 490 q 452 511 448 503 q 524 663 485 572 l 534 685 l 534 621 q 513 309 533 441 q 374 -20 475 66 q 282 -56 331 -56 l 277 -56 q 252 -51 261 -56 q 237 -36 243 -46 q 227 -22 230 -22 l 226 -22 q 225 -21 226 -22 q 222 -22 224 -21 q 221 -21 221 -22 q 220 -20 220 -21 l 220 -20 q 217 -22 219 -20 q 214 -22 216 -22 q 212 -23 212 -23 l 210 -24 q 209 -25 210 -24 q 208 -27 208 -26 q 206 -27 207 -27 q 205 -27 206 -26 q 204 -27 205 -27 q 202 -28 203 -28 l 201 -29 q 200 -31 201 -30 q 199 -31 199 -31 q 196 -33 197 -32 q 195 -35 195 -34 q 195 -36 195 -36 q 195 -37 195 -37 l 194 -38 q 193 -40 193 -39 l 193 -41 q 193 -42 193 -41 q 194 -42 193 -42 q 195 -43 195 -42 l 194 -43 q 195 -45 194 -43 q 196 -50 195 -47 q 233 -90 209 -78 q 248 -95 239 -92 q 263 -99 257 -98 z "},"Z":{"ha":739,"x_min":-24,"x_max":763,"o":"m 142 -71 q 167 -71 153 -71 q 192 -69 182 -71 l 195 -69 q 199 -68 197 -68 q 291 -44 237 -63 q 395 2 345 -24 q 511 75 460 37 q 517 78 514 77 q 523 83 520 81 q 526 85 526 85 q 533 91 528 86 q 545 101 538 95 q 557 111 552 106 q 564 117 562 115 q 566 119 564 117 q 571 123 568 121 q 594 144 582 132 q 611 161 606 156 q 614 165 612 163 q 616 168 616 167 q 616 168 616 168 q 616 169 616 168 q 615 169 616 169 l 615 171 l 616 172 q 615 173 616 172 l 615 174 l 614 175 l 615 176 q 615 177 615 176 q 613 179 614 178 l 610 182 q 609 184 610 183 q 608 185 609 184 l 607 186 q 606 186 607 186 l 606 186 q 606 186 606 186 q 606 188 606 187 q 604 189 605 189 q 602 191 603 190 q 601 191 602 191 q 600 192 600 191 q 598 193 599 193 q 594 195 597 194 q 589 195 591 195 q 587 195 587 195 l 587 194 q 586 195 586 194 q 580 190 585 195 q 568 179 575 186 q 541 154 554 166 q 521 136 528 142 q 519 135 520 136 q 504 123 512 130 q 395 51 454 83 q 193 -26 280 -9 q 159 -28 176 -28 q 130 -26 142 -28 q 53 67 61 -12 q 52 85 52 75 q 53 102 52 90 q 55 130 53 115 q 224 487 81 287 q 575 861 362 677 q 720 976 636 911 q 733 985 728 981 q 742 992 739 989 q 748 997 746 995 q 752 1000 751 999 q 754 1002 753 1001 q 755 1003 755 1002 q 755 1004 755 1003 q 757 1006 755 1006 q 761 1010 761 1008 l 761 1011 l 762 1012 q 762 1014 762 1012 q 763 1016 763 1015 q 763 1018 763 1017 q 762 1022 762 1020 q 761 1025 762 1024 q 760 1026 760 1025 q 760 1028 760 1027 l 757 1031 q 755 1033 756 1032 q 754 1034 755 1034 q 754 1036 754 1035 q 753 1036 753 1036 q 753 1037 753 1036 l 751 1037 l 749 1039 q 748 1042 749 1041 q 746 1042 747 1042 l 745 1042 q 744 1042 745 1042 q 744 1043 744 1042 q 741 1044 743 1044 q 720 1032 736 1044 q 538 935 665 991 q 370 875 442 892 q 251 859 307 859 q 127 881 184 859 q 111 888 120 884 q 93 897 101 892 q 83 902 85 901 q 71 911 79 907 q 46 930 61 916 q 18 958 31 944 q 12 965 14 963 q 8 967 9 967 q 4 967 6 968 q -2 963 2 966 q -12 957 -7 960 q -20 950 -16 953 q -24 946 -24 947 l -24 945 q -17 932 -24 941 q 3 911 -9 923 q 28 888 15 899 q 84 852 56 865 l 94 848 q 97 846 96 847 q 216 818 149 825 q 243 817 227 817 q 270 818 251 817 q 305 819 288 818 q 532 885 408 831 q 540 888 536 887 q 543 890 542 890 l 544 890 q 538 884 544 890 q 524 871 532 879 q 131 425 271 650 q 78 329 102 378 q 40 240 54 279 q 9 93 9 154 l 9 81 q 10 64 9 70 l 10 60 q 11 57 11 59 q 12 53 11 55 q 21 17 14 35 q 37 -15 28 -2 q 55 -35 44 -25 q 73 -48 66 -45 q 75 -50 73 -49 l 77 -52 q 106 -64 88 -59 q 142 -71 123 -70 z "},"[":{"ha":420,"x_min":68,"x_max":353,"o":"m 99 -147 l 98 -146 l 96 -146 q 93 -146 95 -146 q 84 -144 88 -145 q 81 -141 81 -142 q 80 -140 81 -140 q 79 -140 79 -140 l 79 -140 q 79 -139 79 -139 q 78 -138 79 -138 q 77 -137 77 -138 q 76 -131 77 -135 q 75 -118 76 -126 q 74 -101 75 -111 q 69 23 71 -40 q 68 202 68 86 q 69 347 68 299 q 72 460 70 395 q 81 649 75 554 q 95 857 87 746 q 109 1042 102 968 q 111 1061 110 1054 q 112 1071 112 1067 q 113 1077 113 1075 q 114 1080 113 1079 q 117 1087 115 1084 q 118 1089 117 1088 q 119 1091 118 1090 q 120 1093 119 1093 q 123 1094 121 1094 q 129 1097 126 1095 q 132 1101 131 1099 q 133 1103 132 1102 q 137 1104 134 1103 q 148 1105 141 1104 l 149 1105 q 176 1107 157 1105 q 219 1110 196 1108 q 336 1119 321 1119 q 341 1119 340 1119 q 344 1118 343 1119 q 347 1116 345 1118 q 351 1109 350 1114 q 352 1095 352 1105 q 353 1088 353 1090 q 352 1086 353 1086 q 351 1085 352 1085 q 350 1085 351 1085 q 350 1084 350 1084 q 347 1079 350 1081 q 334 1077 343 1078 q 308 1074 326 1076 q 273 1072 295 1074 q 251 1069 262 1071 q 218 1067 235 1069 q 190 1064 201 1065 q 166 1063 176 1063 q 159 1062 160 1062 l 154 1061 l 153 1048 q 139 868 146 974 q 125 667 131 762 q 118 536 121 599 q 113 391 115 473 q 111 232 111 328 l 111 182 q 114 -21 111 54 l 117 -86 q 117 -102 117 -102 q 124 -102 118 -102 q 138 -101 130 -102 q 208 -95 173 -98 q 230 -93 219 -94 l 233 -93 q 252 -92 243 -92 q 263 -91 260 -92 q 271 -90 266 -90 q 279 -90 275 -90 q 284 -90 281 -90 q 288 -90 286 -90 l 290 -90 q 295 -89 290 -89 q 306 -89 300 -89 q 318 -89 313 -89 q 324 -90 323 -89 q 327 -91 326 -90 q 328 -93 328 -92 q 329 -94 328 -94 q 329 -95 329 -94 q 330 -95 330 -95 q 332 -100 332 -96 q 332 -102 332 -101 q 333 -103 332 -103 l 333 -105 q 334 -109 334 -107 q 333 -113 334 -111 q 329 -127 333 -125 q 328 -128 328 -127 l 328 -130 l 328 -130 q 326 -129 327 -129 q 325 -130 326 -129 q 324 -131 325 -130 q 322 -131 323 -131 q 318 -131 321 -131 q 312 -132 316 -132 q 300 -132 307 -132 l 300 -132 q 292 -132 296 -132 q 280 -133 285 -133 q 273 -134 275 -134 q 263 -134 271 -134 q 252 -135 258 -134 q 169 -141 216 -137 q 103 -148 122 -146 q 101 -148 102 -148 q 100 -148 100 -148 q 99 -147 99 -148 z "},"\\":{"ha":899,"x_min":68,"x_max":831,"o":"m 810 -36 q 806 -37 808 -37 q 803 -37 806 -37 q 798 -35 800 -37 q 795 -33 796 -35 q 791 -28 793 -32 q 785 -19 789 -25 q 774 -1 781 -12 q 763 17 769 7 q 713 94 732 66 q 668 163 695 122 q 665 168 667 165 q 294 689 472 455 q 247 750 276 713 q 190 822 217 788 q 153 867 163 855 q 148 875 152 870 q 141 885 144 880 l 134 893 q 130 899 131 897 q 128 901 130 899 q 121 911 125 905 q 110 925 117 916 q 95 945 103 935 q 82 963 87 956 q 75 971 76 971 q 73 976 75 972 q 71 979 72 978 q 70 980 71 980 l 69 981 l 69 981 l 70 981 l 70 983 l 69 983 l 68 985 q 68 990 68 987 q 68 994 68 993 q 69 996 68 996 q 71 997 69 997 q 73 998 72 998 l 73 998 q 75 998 74 998 q 76 999 75 999 q 79 1000 77 1000 q 84 1000 82 1000 q 87 1003 85 1001 q 90 1006 89 1005 l 91 1008 q 92 1008 91 1008 q 94 1008 93 1008 q 97 1007 96 1008 q 99 1006 98 1007 q 101 1005 100 1006 q 104 1003 102 1004 q 109 998 105 1002 q 117 989 113 994 q 125 979 121 983 q 130 973 128 975 q 138 963 133 970 q 228 844 150 941 q 616 315 423 598 q 714 171 675 230 q 796 45 753 113 q 811 20 805 31 q 822 4 818 10 q 828 -6 825 -3 q 831 -12 830 -10 l 831 -14 q 831 -16 831 -15 q 830 -18 831 -17 l 830 -18 q 829 -21 829 -19 q 829 -23 829 -22 q 826 -25 829 -24 q 824 -27 825 -26 q 822 -28 823 -28 q 819 -31 821 -29 q 818 -31 819 -31 q 817 -32 817 -31 q 815 -34 817 -33 q 814 -35 814 -35 q 811 -35 812 -35 q 810 -36 810 -35 z "},"]":{"ha":420,"x_min":68,"x_max":353,"o":"m 321 1118 l 323 1118 q 325 1118 323 1118 q 328 1117 326 1118 q 337 1115 333 1116 q 341 1112 341 1114 l 342 1112 l 342 1112 q 342 1110 342 1110 q 342 1109 342 1109 q 344 1106 343 1109 q 345 1096 345 1103 q 347 1073 345 1088 q 351 949 350 1012 q 353 770 353 886 q 352 625 353 673 q 349 511 351 576 q 340 322 345 416 q 326 114 334 225 q 311 -71 318 3 q 310 -87 311 -81 q 309 -100 309 -96 q 308 -105 308 -104 q 307 -108 307 -107 q 304 -115 305 -113 q 303 -118 303 -117 q 302 -119 302 -119 q 301 -121 302 -121 q 298 -123 300 -122 q 292 -125 294 -123 q 290 -130 290 -127 q 288 -132 290 -131 q 283 -133 287 -132 q 273 -134 279 -133 l 271 -134 q 244 -136 264 -134 q 201 -139 224 -137 q 85 -148 100 -148 q 79 -148 81 -148 q 76 -147 77 -148 q 74 -145 75 -146 q 70 -137 71 -142 q 68 -123 68 -133 q 68 -117 68 -119 q 68 -115 68 -115 q 69 -114 68 -114 q 70 -114 70 -114 q 71 -112 71 -113 q 74 -108 71 -109 q 86 -105 77 -106 q 113 -103 95 -104 q 147 -100 125 -102 q 170 -98 159 -100 q 202 -96 185 -98 q 231 -93 220 -94 q 254 -92 245 -92 q 262 -91 260 -91 l 267 -90 l 267 -77 q 282 104 275 -2 q 296 304 290 210 q 302 436 300 373 q 308 580 305 498 q 309 728 309 640 l 309 789 q 307 992 309 918 q 303 1074 304 1070 q 298 1074 302 1074 q 288 1073 294 1074 l 283 1073 q 191 1065 235 1068 q 170 1064 179 1065 q 157 1062 160 1063 l 151 1062 q 142 1061 146 1061 q 135 1061 138 1061 q 131 1061 132 1061 l 130 1061 q 119 1060 126 1061 q 104 1060 111 1060 q 96 1061 98 1060 q 94 1062 95 1061 q 92 1064 92 1063 q 92 1065 92 1065 q 91 1067 92 1066 q 88 1072 88 1067 q 88 1073 88 1072 q 87 1074 88 1074 l 87 1084 q 92 1099 87 1097 l 92 1099 q 93 1100 93 1099 q 92 1101 93 1101 l 92 1101 l 93 1101 l 96 1101 q 97 1102 96 1101 q 101 1102 98 1102 q 108 1103 103 1103 q 121 1103 113 1103 q 122 1103 121 1103 q 138 1104 131 1103 q 147 1105 145 1105 l 151 1105 q 169 1106 159 1106 q 251 1113 204 1109 q 317 1119 298 1117 q 319 1119 319 1119 q 321 1119 320 1119 q 321 1118 321 1119 z "},"_":{"ha":559,"x_min":68,"x_max":491,"o":"m 78 186 q 71 210 74 191 q 69 218 69 216 q 68 222 68 221 q 68 224 68 224 q 70 225 69 224 q 78 229 72 227 q 99 231 85 230 q 138 233 113 232 q 218 235 165 234 q 330 236 271 236 q 430 237 388 237 q 479 236 473 237 q 488 231 488 234 q 488 230 488 230 q 489 229 488 229 q 491 225 490 229 q 491 216 491 221 q 490 207 490 211 q 488 201 489 202 l 487 200 l 487 199 l 486 199 q 484 197 486 197 q 483 195 484 196 q 479 195 481 195 q 472 194 476 195 q 459 194 467 194 q 347 193 399 194 q 137 190 203 193 q 106 188 121 189 q 85 186 92 187 q 78 186 80 186 z "},"a":{"ha":509,"x_min":-47,"x_max":533,"o":"m 16 214 q 6 217 12 215 q -4 220 1 218 q -9 224 -8 222 l -9 224 l -9 225 l -10 225 q -15 228 -12 225 q -22 235 -18 231 q -28 243 -26 239 q -41 269 -37 254 q -46 290 -45 280 q -47 321 -47 300 q -46 351 -47 338 q -39 379 -44 363 q -38 388 -39 384 q -37 393 -37 392 q -26 420 -34 403 q -12 452 -19 438 q 70 544 22 513 q 94 556 81 551 q 117 564 106 562 q 120 565 119 565 q 130 566 125 566 q 140 567 134 567 q 147 566 143 567 q 153 566 151 566 q 156 565 155 566 q 159 565 158 565 q 161 564 161 564 q 175 559 166 563 q 190 552 184 556 q 198 546 193 549 q 207 540 203 543 q 216 535 212 535 q 221 542 220 535 q 223 556 221 547 q 228 573 226 566 q 229 577 228 575 l 230 580 q 235 590 232 586 q 240 595 239 595 q 242 595 241 595 q 247 594 244 595 q 251 593 248 593 q 258 591 254 592 q 263 591 261 591 q 266 591 266 591 q 267 590 267 590 q 268 589 267 589 q 270 589 269 589 l 271 588 l 271 587 l 272 587 l 273 585 q 274 581 273 583 q 274 575 274 578 q 274 572 274 574 q 273 571 274 571 l 273 570 l 273 570 l 273 569 l 273 568 l 273 568 l 273 568 q 268 557 271 568 q 262 531 265 547 q 258 498 260 515 q 257 464 257 484 q 258 430 257 444 q 323 321 269 342 q 342 319 332 319 q 361 321 351 319 q 425 360 389 328 q 486 435 461 392 q 493 448 490 444 q 498 453 496 452 q 502 454 500 454 q 504 454 503 454 q 505 455 505 454 q 506 456 505 456 q 507 455 507 456 q 509 454 508 454 q 511 453 510 453 q 513 452 513 452 l 514 453 l 515 452 q 517 450 516 452 q 519 450 517 450 l 519 449 q 521 448 520 449 q 523 448 522 448 l 524 447 q 525 446 524 446 q 527 444 526 445 q 529 443 528 444 q 530 441 530 441 q 530 439 530 440 q 531 438 530 439 q 532 438 531 438 l 532 438 l 532 437 q 532 435 532 436 q 532 434 532 435 q 533 433 533 434 l 532 433 q 532 433 532 433 q 532 432 532 433 l 532 431 q 531 430 532 431 q 530 429 531 429 q 530 427 530 428 q 530 426 530 427 q 527 420 530 425 q 519 406 524 414 q 510 393 514 398 q 467 340 492 366 q 363 276 411 285 q 342 275 353 275 q 323 276 332 275 q 306 281 315 278 q 293 287 297 284 q 288 290 290 290 l 286 291 q 282 294 284 292 q 251 324 268 303 q 249 327 250 325 q 246 331 248 329 q 243 336 244 334 q 234 354 239 342 q 225 376 229 366 q 220 398 222 385 q 216 418 217 410 l 213 412 q 205 395 210 406 q 60 221 133 251 q 24 214 42 214 q 16 214 20 214 m 40 259 q 127 346 82 275 q 164 412 146 376 q 193 477 182 449 l 197 488 l 186 498 q 138 524 163 524 q 124 522 131 524 q 21 420 64 505 q -5 317 -5 368 q 27 257 -5 257 q 40 259 33 257 z "}}}
